<svg width="24" height="24" viewBox="0 0 24 24" fill="none"
    xmlns="http://www.w3.org/2000/svg">
    <g clip-path="url(#clip0_2_689)">
        <rect width="24" height="24" rx="5" fill="white"/>
        <path d="M24 16.3334L16.28 13.7374C16.28 13.7374 16.8733 12.8493 17.5066 11.1081C18.14 9.36685 18.2307 8.41068 18.2307 8.41068L13.2334 8.36949V6.66262L19.2854 6.61995V5.41326H13.2322V2.66655H10.268V5.41338H4.6213V6.62007L10.268 6.57996V8.41068H5.73869V9.36672H15.0615C15.0615 9.36672 14.9588 10.1426 14.6014 11.108C14.2441 12.0733 13.876 12.9187 13.876 12.9187C13.876 12.9187 9.49866 11.3867 7.19199 11.3867C4.88533 11.3867 2.07995 12.3133 1.80796 15.0027C1.53726 17.6907 3.11475 19.1468 5.33719 19.6827C7.5599 20.2215 9.61189 19.6774 11.3985 18.8027C13.1853 17.9294 14.9386 15.944 14.9386 15.944L24 20.3134C23.633 22.4452 21.719 24.0022 19.5559 24H4.44402C1.99188 24.0024 0.00227832 22.0164 1.95475e-06 19.5643V4.44414C-0.00227441 1.99182 1.98392 0.00218598 4.43599 1.90242e-06H19.556C22.0081 -0.0022437 23.9978 1.98382 24 4.43593L24 16.3334ZM12.7486 14.8294C12.7486 14.8294 9.94 18.375 6.63075 18.375C3.32008 18.375 2.62502 16.6903 2.62502 15.4786C2.62502 14.2685 3.31325 12.9518 6.1301 12.7614C8.94538 12.5713 12.75 14.8294 12.75 14.8294H12.7486Z" fill="#02A9F1"/>
    </g>
    <defs>
        <clipPath id="clip0_2_689">
            <rect width="24" height="24" rx="5" fill="white"/>
        </clipPath>
    </defs>
</svg>
