<svg width="73" height="72" viewBox="0 0 73 72" fill="none"
    xmlns="http://www.w3.org/2000/svg">
    <path d="M36.4793 67.5303C32.2216 67.5303 28.0897 66.6958 24.1985 65.0499C20.4414 63.4608 17.0678 61.1864 14.1714 58.29C11.275 55.3937 9.00064 52.02 7.41153 48.263C5.76564 44.3717 4.93115 40.2399 4.93115 35.9821C4.93115 31.7244 5.76571 27.5925 7.41153 23.7013C9.00064 19.9442 11.275 16.5706 14.1714 13.6742C17.0678 10.7778 20.4415 8.5034 24.1985 6.91428C28.0897 5.2684 32.2215 4.43384 36.4793 4.43384C40.737 4.43384 44.869 5.2684 48.7602 6.91421C52.5173 8.50333 55.8909 10.7777 58.7873 13.6741C61.6837 16.5705 63.958 19.9441 65.5472 23.7012C67.193 27.5925 68.0275 31.7244 68.0275 35.9821C68.0275 40.2708 67.1812 44.4304 65.5121 48.3455C63.9006 52.1254 61.596 55.5131 58.6622 58.4144C57.5456 59.5188 55.7448 59.5089 54.6404 58.3919C53.5359 57.2752 53.5459 55.4745 54.6628 54.3701C59.6134 49.4743 62.3397 42.944 62.3397 35.9821C62.3397 21.7226 50.7388 10.1217 36.4794 10.1217C22.2199 10.1217 10.619 21.7226 10.619 35.9821C10.619 50.2415 22.2199 61.8424 36.4793 61.8424C39.7982 61.8424 43.0283 61.2234 46.0798 60.0025C47.5383 59.419 49.1932 60.1283 49.7768 61.5866C50.3601 63.0449 49.651 64.7 48.1927 65.2835C44.4662 66.7743 40.5252 67.5303 36.4793 67.5303ZM49.2692 28.5595L33.9668 43.887L24.54 34.3749C23.4242 33.2497 21.6128 33.2497 20.497 34.3749C19.3811 35.5002 19.3811 37.3248 20.497 38.4501L31.6939 49.625C31.6945 49.6255 31.6954 49.6259 31.696 49.6263C32.9813 50.9097 35.0636 50.9092 36.3481 49.6247C36.4205 49.5524 36.4882 49.477 36.5525 49.3999C36.5851 49.3855 36.6066 49.3709 36.6139 49.3562L53.2493 32.5707C54.3653 31.4453 54.4292 29.6849 53.3122 28.5596C52.1963 27.4342 50.385 27.4342 49.2692 28.5595Z" fill="url(#paint0_linear_2_2862)"/>
    <defs>
        <linearGradient id="paint0_linear_2_2862" x1="4.93115" y1="4.43384" x2="68.0276" y2="67.5302" gradientUnits="userSpaceOnUse">
            <stop stop-color="#05C6B6"/>
            <stop offset="1" stop-color="#81EFE0"/>
        </linearGradient>
    </defs>
</svg>
