<svg width="16" height="18" viewBox="0 0 16 18" fill="none"
    xmlns="http://www.w3.org/2000/svg">
    <path d="M14.7027 0.5C15.0468 0.5 15.3767 0.63433 15.62 0.873439C15.8633 1.11255 16 1.43685 16 1.775V16.225C16 16.5632 15.8633 16.8875 15.62 17.1266C15.3767 17.3657 15.0468 17.5 14.7027 17.5H2.59459C2.25053 17.5 1.92056 17.3657 1.67727 17.1266C1.43398 16.8875 1.2973 16.5632 1.2973 16.225V13.675H0.648649C0.476616 13.675 0.31163 13.6078 0.189985 13.4883C0.0683397 13.3687 0 13.2066 0 13.0375C0 12.8684 0.0683397 12.7063 0.189985 12.5867C0.31163 12.4672 0.476616 12.4 0.648649 12.4H1.2973V9.85H0.648649C0.476616 9.85 0.31163 9.78283 0.189985 9.66328C0.0683397 9.54373 0 9.38158 0 9.2125C0 9.04342 0.0683397 8.88127 0.189985 8.76172C0.31163 8.64216 0.476616 8.575 0.648649 8.575H1.2973V6.025H0.648649C0.476616 6.025 0.31163 5.95784 0.189985 5.83828C0.0683397 5.71873 0 5.55657 0 5.3875C0 5.21842 0.0683397 5.05627 0.189985 4.93672C0.31163 4.81716 0.476616 4.75 0.648649 4.75H1.2973V1.775C1.2973 1.43685 1.43398 1.11255 1.67727 0.873439C1.92056 0.63433 2.25053 0.5 2.59459 0.5H14.7027ZM11.4858 4.937C11.3642 4.81749 11.1992 4.75035 11.0272 4.75035C10.8552 4.75035 10.6903 4.81749 10.5686 4.937L8.65514 6.81677L6.74249 4.93657C6.6208 4.81704 6.45579 4.74991 6.28374 4.74995C6.11169 4.74999 5.94671 4.81719 5.82508 4.93679C5.70345 5.05638 5.63515 5.21856 5.63519 5.38765C5.63523 5.55674 5.70361 5.71889 5.8253 5.83842L7.30119 7.28895H5.83784C5.66581 7.28895 5.50082 7.35611 5.37917 7.47567C5.25753 7.59522 5.18919 7.75737 5.18919 7.92645C5.18919 8.09553 5.25753 8.25768 5.37917 8.37723C5.50082 8.49678 5.66581 8.56395 5.83784 8.56395H7.97146V9.83895H5.83784C5.66581 9.83895 5.50082 9.90611 5.37917 10.0257C5.25753 10.1452 5.18919 10.3074 5.18919 10.4764C5.18919 10.6455 5.25753 10.8077 5.37917 10.9272C5.50082 11.0468 5.66581 11.1139 5.83784 11.1139H7.97146V13.3625C7.97146 13.5316 8.0398 13.6937 8.16144 13.8133C8.28309 13.9328 8.44808 14 8.62011 14C8.79214 14 8.95713 13.9328 9.07877 13.8133C9.20042 13.6937 9.26876 13.5316 9.26876 13.3625V11.1139H11.4595C11.6315 11.1139 11.7965 11.0468 11.9181 10.9272C12.0398 10.8077 12.1081 10.6455 12.1081 10.4764C12.1081 10.3074 12.0398 10.1452 11.9181 10.0257C11.7965 9.90611 11.6315 9.83895 11.4595 9.83895H9.26876V8.56395H11.4595C11.6315 8.56395 11.7965 8.49678 11.9181 8.37723C12.0398 8.25768 12.1081 8.09553 12.1081 7.92645C12.1081 7.75737 12.0398 7.59522 11.9181 7.47567C11.7965 7.35611 11.6315 7.28895 11.4595 7.28895H10.0095L11.4858 5.83842C11.6074 5.71888 11.6758 5.55675 11.6758 5.38771C11.6758 5.21867 11.6074 5.05655 11.4858 4.937Z" fill="url(#paint0_linear_2_487)"/>
    <defs>
        <linearGradient id="paint0_linear_2_487" x1="-1.33333" y1="-0.916667" x2="19.7045" y2="4.79174" gradientUnits="userSpaceOnUse">
            <stop stop-color="#F74757"/>
            <stop offset="0.994792" stop-color="#FF8A7E"/>
        </linearGradient>
    </defs>
</svg>
