<svg width="24" height="24" viewBox="0 0 24 24" fill="none"
    xmlns="http://www.w3.org/2000/svg">
    <path d="M17.7027 3.5C18.0468 3.5 18.3767 3.63433 18.62 3.87344C18.8633 4.11255 19 4.43685 19 4.775V19.225C19 19.5632 18.8633 19.8875 18.62 20.1266C18.3767 20.3657 18.0468 20.5 17.7027 20.5H5.59459C5.25053 20.5 4.92056 20.3657 4.67727 20.1266C4.43398 19.8875 4.2973 19.5632 4.2973 19.225V16.675H3.64865C3.47662 16.675 3.31163 16.6078 3.18998 16.4883C3.06834 16.3687 3 16.2066 3 16.0375C3 15.8684 3.06834 15.7063 3.18998 15.5867C3.31163 15.4672 3.47662 15.4 3.64865 15.4H4.2973V12.85H3.64865C3.47662 12.85 3.31163 12.7828 3.18998 12.6633C3.06834 12.5437 3 12.3816 3 12.2125C3 12.0434 3.06834 11.8813 3.18998 11.7617C3.31163 11.6422 3.47662 11.575 3.64865 11.575H4.2973V9.025H3.64865C3.47662 9.025 3.31163 8.95784 3.18998 8.83828C3.06834 8.71873 3 8.55657 3 8.3875C3 8.21842 3.06834 8.05627 3.18998 7.93672C3.31163 7.81716 3.47662 7.75 3.64865 7.75H4.2973V4.775C4.2973 4.43685 4.43398 4.11255 4.67727 3.87344C4.92056 3.63433 5.25053 3.5 5.59459 3.5H17.7027ZM14.4858 7.937C14.3642 7.81749 14.1992 7.75035 14.0272 7.75035C13.8552 7.75035 13.6903 7.81749 13.5686 7.937L11.6551 9.81677L9.74249 7.93657C9.6208 7.81704 9.45579 7.74991 9.28374 7.74995C9.11169 7.74999 8.94671 7.81719 8.82508 7.93679C8.70345 8.05638 8.63515 8.21856 8.63519 8.38765C8.63523 8.55674 8.70361 8.71889 8.8253 8.83842L10.3012 10.2889H8.83784C8.66581 10.2889 8.50082 10.3561 8.37917 10.4757C8.25753 10.5952 8.18919 10.7574 8.18919 10.9264C8.18919 11.0955 8.25753 11.2577 8.37917 11.3772C8.50082 11.4968 8.66581 11.5639 8.83784 11.5639H10.9715V12.8389H8.83784C8.66581 12.8389 8.50082 12.9061 8.37917 13.0257C8.25753 13.1452 8.18919 13.3074 8.18919 13.4764C8.18919 13.6455 8.25753 13.8077 8.37917 13.9272C8.50082 14.0468 8.66581 14.1139 8.83784 14.1139H10.9715V16.3625C10.9715 16.5316 11.0398 16.6937 11.1614 16.8133C11.2831 16.9328 11.4481 17 11.6201 17C11.7921 17 11.9571 16.9328 12.0788 16.8133C12.2004 16.6937 12.2688 16.5316 12.2688 16.3625V14.1139H14.4595C14.6315 14.1139 14.7965 14.0468 14.9181 13.9272C15.0398 13.8077 15.1081 13.6455 15.1081 13.4764C15.1081 13.3074 15.0398 13.1452 14.9181 13.0257C14.7965 12.9061 14.6315 12.8389 14.4595 12.8389H12.2688V11.5639H14.4595C14.6315 11.5639 14.7965 11.4968 14.9181 11.3772C15.0398 11.2577 15.1081 11.0955 15.1081 10.9264C15.1081 10.7574 15.0398 10.5952 14.9181 10.4757C14.7965 10.3561 14.6315 10.2889 14.4595 10.2889H13.0095L14.4858 8.83842C14.6074 8.71888 14.6758 8.55675 14.6758 8.38771C14.6758 8.21867 14.6074 8.05655 14.4858 7.937Z" fill="url(#paint0_linear_2_486)"/>
    <defs>
        <linearGradient id="paint0_linear_2_486" x1="1.66667" y1="2.08333" x2="22.7045" y2="7.79174" gradientUnits="userSpaceOnUse">
            <stop stop-color="#F74757"/>
            <stop offset="0.994792" stop-color="#FF8A7E"/>
        </linearGradient>
    </defs>
</svg>
