<svg width="48" height="48" viewBox="0 0 48 48" fill="none"
    xmlns="http://www.w3.org/2000/svg">
    <path d="M2.51038 24.1272C2.51038 26.9023 3.05697 29.6502 4.11895 32.214C5.18094 34.7779 6.73751 37.1075 8.6998 39.0698C10.6621 41.0321 12.9917 42.5886 15.5555 43.6506C18.1194 44.7126 20.8673 45.2592 23.6424 45.2592C26.4175 45.2592 29.1654 44.7126 31.7292 43.6506C34.2931 42.5886 36.6227 41.0321 38.585 39.0698C40.5472 37.1075 42.1038 34.7779 43.1658 32.214C44.2278 29.6502 44.7744 26.9023 44.7744 24.1272C44.7744 21.3521 44.2278 18.6042 43.1658 16.0403C42.1038 13.4765 40.5472 11.1469 38.585 9.1846C36.6227 7.22231 34.2931 5.66574 31.7292 4.60376C29.1654 3.54177 26.4175 2.99518 23.6424 2.99518C20.8673 2.99518 18.1194 3.54177 15.5555 4.60376C12.9917 5.66574 10.6621 7.22231 8.6998 9.1846C6.73751 11.1469 5.18094 13.4765 4.11895 16.0403C3.05697 18.6042 2.51038 21.3521 2.51038 24.1272Z" fill="url(#paint0_linear_2_561)"/>
    <path d="M11.76 19.5656C11.76 22.1036 16.2364 23.7307 21.9788 23.9541C21.0892 24.8622 20.4106 25.9077 19.9887 27.0679C15.2414 26.4549 11.7601 24.5843 11.7601 22.3499L11.76 19.5656ZM11.76 24.5156C11.76 26.6869 15.0418 28.1909 19.5781 28.7237C19.5325 29.0732 19.4555 29.4169 19.4555 29.775C19.4555 30.5455 19.6009 31.2818 19.8119 31.995C15.1559 31.3591 11.7601 29.5085 11.7601 27.2999L11.76 24.5156ZM23.3018 37.2C18.6286 37.2 14.5999 36.0054 12.7865 34.2924C12.125 33.6709 11.7601 32.9805 11.7601 32.25V29.4657C11.7601 31.7974 15.5265 33.3644 20.5874 33.7797C20.6872 33.9516 20.7956 34.1263 20.9067 34.2925C21.668 35.4326 22.6944 36.418 23.9404 37.1743C23.7266 37.177 23.5213 37.2 23.3018 37.2ZM23.3018 22.35C16.9293 22.35 11.7601 20.1357 11.7601 17.4V15.75C11.7601 13.0172 16.9293 10.8 23.3018 10.8C29.6771 10.8 34.8435 13.0172 34.8435 15.75V17.4C34.8435 18.7349 33.5975 19.9437 31.5931 20.8318C31.0798 20.7688 30.5695 20.7 30.0363 20.7C27.7981 20.7 25.731 21.3015 24.0231 22.3156C23.7779 22.3271 23.547 22.35 23.3018 22.35ZM36.48 31.1728H31.7304V35.9248H29.4969V31.1728H24.8014V28.8239H29.4969V24.0719H31.7304V28.8239H36.48V31.1728Z" fill="white"/>
    <defs>
        <linearGradient id="paint0_linear_2_561" x1="-1.01162" y1="-0.526822" x2="54.0729" y2="15.354" gradientUnits="userSpaceOnUse">
            <stop stop-color="#F74757"/>
            <stop offset="0.994792" stop-color="#FF8A7E"/>
        </linearGradient>
    </defs>
</svg>
