<svg width="48" height="48" viewBox="0 0 48 48" fill="none"
    xmlns="http://www.w3.org/2000/svg">
    <path d="M2.51038 24.1272C2.51038 26.9023 3.05697 29.6502 4.11895 32.214C5.18094 34.7779 6.73751 37.1075 8.6998 39.0698C10.6621 41.0321 12.9917 42.5886 15.5555 43.6506C18.1194 44.7126 20.8673 45.2592 23.6424 45.2592C26.4175 45.2592 29.1654 44.7126 31.7292 43.6506C34.2931 42.5886 36.6227 41.0321 38.585 39.0698C40.5472 37.1075 42.1038 34.7779 43.1658 32.214C44.2278 29.6502 44.7744 26.9023 44.7744 24.1272C44.7744 21.3521 44.2278 18.6042 43.1658 16.0403C42.1038 13.4765 40.5472 11.1469 38.585 9.1846C36.6227 7.22231 34.2931 5.66574 31.7292 4.60376C29.1654 3.54177 26.4175 2.99518 23.6424 2.99518C20.8673 2.99518 18.1194 3.54177 15.5555 4.60376C12.9917 5.66574 10.6621 7.22231 8.6998 9.1846C6.73751 11.1469 5.18094 13.4765 4.11895 16.0403C3.05697 18.6042 2.51038 21.3521 2.51038 24.1272Z" fill="url(#paint0_linear_2_571)"/>
    <path d="M37.4509 22.1193C35.3047 14.7543 32.2343 13.4178 30.532 13.4178C28.8274 13.4178 27.6537 14.029 27.0108 14.4647C26.3679 14.9003 25.7249 15.2356 24.1462 15.2356C22.5675 15.2356 21.7072 14.6221 21.1673 14.3096C20.6273 13.9994 19.5176 13.1212 17.7032 13.2056C15.7791 13.2946 11.1436 16.4559 9.79367 24.391C9.46192 26.3457 8.50554 40.4528 18.0007 32.7663C19.5794 31.489 21.8651 29.783 23.9655 29.783C26.0658 29.783 27.2075 30.5904 28.9121 31.8335C30.6167 33.0765 33.5933 35.7132 35.895 34.6708C37.9497 33.7403 39.4666 29.0394 37.4509 22.1193ZM21.0483 23.5995H19.6343V25.0091C19.6343 25.3618 19.4938 25.7 19.2436 25.9494C18.9935 26.1988 18.6542 26.3389 18.3004 26.3389C17.9466 26.3389 17.6074 26.1988 17.3572 25.9494C17.1071 25.7 16.9665 25.3618 16.9665 25.0091V23.5995H15.5525C15.1988 23.5995 14.8595 23.4594 14.6093 23.2101C14.3592 22.9607 14.2186 22.6225 14.2186 22.2698C14.2186 21.9171 14.3592 21.5789 14.6093 21.3295C14.8595 21.0801 15.1988 20.94 15.5525 20.94H16.9665V19.5305C16.9665 19.1778 17.1071 18.8396 17.3572 18.5902C17.6074 18.3408 17.9466 18.2007 18.3004 18.2007C18.6542 18.2007 18.9935 18.3408 19.2436 18.5902C19.4938 18.8396 19.6343 19.1778 19.6343 19.5305V20.94H21.0483C21.4021 20.94 21.7413 21.0801 21.9915 21.3295C22.2416 21.5789 22.3822 21.9171 22.3822 22.2698C22.3822 22.6225 22.2416 22.9607 21.9915 23.2101C21.7413 23.4594 21.4021 23.5995 21.0483 23.5995ZM29.4635 18.4379C30.2414 18.4379 30.8729 19.0675 30.8729 19.843C30.8729 20.6184 30.2414 21.248 29.4635 21.248C28.6856 21.248 28.0541 20.6184 28.0541 19.843C28.0541 19.0652 28.6856 18.4379 29.4635 18.4379ZM26.7934 23.9097C26.0155 23.9097 25.384 23.2802 25.384 22.5047C25.384 21.7292 26.0155 21.0997 26.7934 21.0997C27.5713 21.0997 28.2028 21.7292 28.2028 22.5047C28.2005 23.2802 27.5713 23.9097 26.7934 23.9097ZM29.4635 26.5715C28.6856 26.5715 28.0541 25.942 28.0541 25.1665C28.0541 24.391 28.6856 23.7615 29.4635 23.7615C30.2414 23.7615 30.8729 24.391 30.8729 25.1665C30.8729 25.942 30.2414 26.5715 29.4635 26.5715ZM32.1336 23.9097C31.3557 23.9097 30.7242 23.2802 30.7242 22.5047C30.7242 21.7292 31.3557 21.0997 32.1336 21.0997C32.9115 21.0997 33.543 21.7292 33.543 22.5047C33.543 23.2802 32.9115 23.9097 32.1336 23.9097Z" fill="white"/>
    <defs>
        <linearGradient id="paint0_linear_2_571" x1="6.03238" y1="2.99518" x2="42.4264" y2="42.9112" gradientUnits="userSpaceOnUse">
            <stop stop-color="#FF8000"/>
            <stop offset="1" stop-color="#FFA800"/>
        </linearGradient>
    </defs>
</svg>
