<svg width="48" height="48" viewBox="0 0 48 48" fill="none"
    xmlns="http://www.w3.org/2000/svg">
    <path d="M2.51038 24.1272C2.51038 26.9023 3.05697 29.6502 4.11895 32.214C5.18094 34.7779 6.73751 37.1075 8.6998 39.0698C10.6621 41.0321 12.9917 42.5886 15.5555 43.6506C18.1194 44.7126 20.8673 45.2592 23.6424 45.2592C26.4175 45.2592 29.1654 44.7126 31.7292 43.6506C34.2931 42.5886 36.6227 41.0321 38.585 39.0698C40.5472 37.1075 42.1038 34.7779 43.1658 32.214C44.2278 29.6502 44.7744 26.9023 44.7744 24.1272C44.7744 21.3521 44.2278 18.6042 43.1658 16.0403C42.1038 13.4765 40.5472 11.1469 38.585 9.1846C36.6227 7.22231 34.2931 5.66574 31.7292 4.60376C29.1654 3.54177 26.4175 2.99518 23.6424 2.99518C20.8673 2.99518 18.1194 3.54177 15.5555 4.60376C12.9917 5.66574 10.6621 7.22231 8.6998 9.1846C6.73751 11.1469 5.18094 13.4765 4.11895 16.0403C3.05697 18.6042 2.51038 21.3521 2.51038 24.1272Z" fill="url(#paint0_linear_2_581)"/>
    <path d="M27.9694 23.5006C29.8087 22.2278 31.0155 20.1479 31.0155 17.7847C31.0155 13.9237 27.8258 10.8 23.8717 10.8C19.9214 10.8 16.7278 13.9237 16.7278 17.7653C16.7278 20.1479 17.9541 22.2627 19.8128 23.5161C16.0798 25.2274 12.96 29.6704 12.96 32.8097C12.96 38.6458 34.9619 38.6458 34.9619 32.9145C34.9658 29.2475 31.7567 25.1575 27.9694 23.5006ZM22.4592 19.8802H25.4743C25.5868 19.8802 25.6838 19.9772 25.6722 20.0897C25.5674 20.9395 24.8457 21.5992 23.9687 21.5992C23.0917 21.5992 22.3661 20.9395 22.2652 20.0897C22.2458 19.9772 22.3467 19.8802 22.4592 19.8802ZM26.6578 31.8784H25.0707V33.4655C25.0707 34.0747 24.5779 34.5675 23.9687 34.5675C23.3595 34.5675 22.8667 34.0747 22.8667 33.4655V31.8784H21.2757C20.6665 31.8784 20.1737 31.3856 20.1737 30.7764C20.1737 30.1671 20.6665 29.6743 21.2757 29.6743H22.8628V28.0872C22.8628 27.478 23.3556 26.9852 23.9648 26.9852C24.574 26.9852 25.0669 27.478 25.0669 28.0872V29.6743H26.6539C27.2632 29.6743 27.756 30.1671 27.756 30.7764C27.7599 31.3856 27.267 31.8784 26.6578 31.8784Z" fill="white"/>
    <defs>
        <linearGradient id="paint0_linear_2_581" x1="1.26732" y1="1.88299" x2="49.4737" y2="11.7358" gradientUnits="userSpaceOnUse">
            <stop stop-color="#51A6F4"/>
            <stop offset="0.994792" stop-color="#76CBFC"/>
        </linearGradient>
    </defs>
</svg>
