<svg width="219" height="45" viewBox="0 0 219 45" fill="none"
    xmlns="http://www.w3.org/2000/svg">
    <g clip-path="url(#clip0_2_1353)" filter="url(#filter0_d_2_1353)">
        <path fill-rule="evenodd" clip-rule="evenodd" d="M218.455 11.1124C218.455 11.1124 210.96 19.8746 205.028 24.1782C205.028 24.1782 207.275 39.5254 207.275 41.7944C207.275 44.0634 194.275 38.379 186.709 34.872V3.58107C186.709 3.58107 187.157 1.49235 188.574 1.1947C189.991 0.897056 193.802 0.718522 199.506 4.29559C205.21 7.87266 218.455 11.1124 218.455 11.1124Z" fill="#EB3D51"/>
        <path fill-rule="evenodd" clip-rule="evenodd" d="M186.46 2.12524C186.46 2.12524 185.151 5.49886 185.151 12.2437C185.151 12.2437 194.445 14.7015 196.473 12.2437C198.501 9.78577 194.865 7.13664 192.469 5.87972C190.073 4.6228 186.46 2.12524 186.46 2.12524Z" fill="#C12D3D"/>
        <path fill-rule="evenodd" clip-rule="evenodd" d="M0.879395 11.1124C0.879395 11.1124 8.37474 19.8746 14.3068 24.1782C14.3068 24.1782 12.0599 39.5254 12.0599 41.7944C12.0599 44.0634 25.0593 38.379 32.6258 34.872V3.58107C32.6258 3.58107 32.1777 1.49235 30.7608 1.1947C29.3439 0.897056 25.5325 0.718522 19.8284 4.29559C14.1244 7.87266 0.879395 11.1124 0.879395 11.1124Z" fill="#EB3D51"/>
        <path fill-rule="evenodd" clip-rule="evenodd" d="M32.8748 2.12524C32.8748 2.12524 34.1833 5.49886 34.1833 12.2437C34.1833 12.2437 24.8898 14.7015 22.8617 12.2437C20.8336 9.78577 24.4698 7.13664 26.8658 5.87972C29.2618 4.6228 32.8748 2.12524 32.8748 2.12524Z" fill="#C12D3D"/>
        <path fill-rule="evenodd" clip-rule="evenodd" d="M109.667 6.97085C109.716 6.97066 127.851 6.90176 145.894 7.58483C156.847 7.99949 171.046 9.83874 181.079 11.1383C187.594 11.9823 192.352 12.5986 193.322 12.4491C193.641 12.3999 193.943 12.3593 194.227 12.3212C196.135 12.0653 197.2 11.9223 196.751 10.0363C196.492 8.95041 193.758 7.50018 191.147 6.11593C188.549 4.73806 186.074 3.42555 186.287 2.60282C186.714 0.953545 187.404 0.409995 190.846 0.0651657C194.289 -0.279663 199.733 2.69428 203.255 5.08057C206.777 7.46685 216.072 9.24118 217.676 9.54715C219.28 9.85313 218.455 11.1124 218.455 11.1124C211.545 10.5031 202.758 6.40706 197.024 3.07412C191.291 -0.25882 185.253 1.61467 189.964 3.66968C194.674 5.72469 198.856 8.55617 198.856 10.0363C198.856 11.5164 191.887 40.416 191.887 40.416C187.293 44.0761 183.429 43.6544 175.001 42.7348C173.386 42.5586 171.604 42.3641 169.617 42.1766C157.27 41.0111 109.747 39.5895 109.667 39.5871M109.667 6.97085C109.667 6.97085 109.667 6.97085 109.667 6.97085C109.618 6.97066 91.4834 6.90176 73.4403 7.58483C62.487 7.99949 48.2881 9.83874 38.2559 11.1383C31.7401 11.9823 26.982 12.5986 26.0126 12.4491C25.6936 12.3999 25.3911 12.3593 25.1072 12.3212C23.1998 12.0653 22.1341 11.9223 22.5835 10.0363C22.8423 8.95041 25.5769 7.50019 28.187 6.11594C30.7851 4.73806 33.26 3.42555 33.0472 2.60282C32.6207 0.953545 31.9302 0.409995 28.488 0.0651657C25.0459 -0.279663 19.6012 2.69428 16.0795 5.08057C12.5579 7.46685 3.2625 9.24118 1.65842 9.54715C0.0543481 9.85313 0.879436 11.1124 0.879436 11.1124C7.78973 10.5031 16.5766 6.40706 22.3102 3.07412C28.0438 -0.25882 34.0811 1.61467 29.3707 3.66968C24.6603 5.72469 20.4789 8.55617 20.4789 10.0363C20.4789 11.5164 27.4476 40.416 27.4476 40.416C32.0413 44.0761 35.9057 43.6544 44.3335 42.7348C45.9482 42.5586 47.7304 42.3641 49.7174 42.1766C62.0648 41.0111 109.588 39.5895 109.667 39.5871" fill="url(#paint0_linear_2_1353)"/>
        <path d="M38.5723 29.1409C38.4526 29.1409 38.3341 29.1155 38.2242 29.0662L36.6794 28.3725C36.5841 28.3298 36.476 28.3298 36.3807 28.3725L34.8359 29.0662C34.7264 29.1156 34.6082 29.1411 34.4888 29.1409C34.2424 29.1401 34.0077 29.0321 33.842 28.8431C33.6761 28.6557 33.5955 28.4036 33.6206 28.1505L33.7802 26.4141C33.7897 26.3073 33.7561 26.2011 33.6875 26.1207L32.5773 24.8144C32.3727 24.5746 32.3057 24.2406 32.4011 23.9362C32.4966 23.6318 32.7402 23.4024 33.0418 23.3331L34.6896 22.9531C34.7908 22.93 34.8781 22.8643 34.9306 22.7717L35.7854 21.2712C35.9422 20.9952 36.2282 20.8257 36.5373 20.8257C36.8463 20.8257 37.1323 20.9952 37.2891 21.2712L38.1439 22.7717C38.1961 22.8645 38.2836 22.9304 38.3849 22.9531L40.0327 23.3331C40.3343 23.4024 40.5779 23.6318 40.6734 23.9362C40.7688 24.2406 40.7018 24.5746 40.4972 24.8144L39.3736 26.1207C39.305 26.2011 39.2715 26.3073 39.2809 26.4141L39.4405 28.1505C39.4659 28.4033 39.3852 28.6551 39.2191 28.8421C39.0538 29.0317 38.8189 29.1403 38.5723 29.1409V29.1409Z" fill="#E6374E"/>
        <path d="M184.832 29.1409C184.712 29.1409 184.594 29.1155 184.484 29.0662L182.939 28.3725C182.844 28.3298 182.736 28.3298 182.641 28.3725L181.096 29.0662C180.986 29.1156 180.868 29.1411 180.749 29.1409C180.502 29.1401 180.268 29.0321 180.102 28.8431C179.936 28.6557 179.855 28.4036 179.88 28.1505L180.04 26.4141C180.05 26.3073 180.016 26.2011 179.947 26.1207L178.837 24.8144C178.633 24.5746 178.566 24.2406 178.661 23.9362C178.756 23.6318 179 23.4024 179.302 23.3331L180.95 22.9531C181.051 22.93 181.138 22.8643 181.19 22.7717L182.045 21.2712C182.202 20.9952 182.488 20.8257 182.797 20.8257C183.106 20.8257 183.392 20.9952 183.549 21.2712L184.404 22.7717C184.456 22.8645 184.543 22.9304 184.645 22.9531L186.293 23.3331C186.594 23.4024 186.838 23.6318 186.933 23.9362C187.029 24.2406 186.962 24.5746 186.757 24.8144L185.633 26.1207C185.565 26.2011 185.531 26.3073 185.541 26.4141L185.7 28.1505C185.726 28.4033 185.645 28.6551 185.479 28.8421C185.314 29.0317 185.079 29.1403 184.832 29.1409V29.1409Z" fill="#E6374E"/>
    </g>
    <defs>
        <filter id="filter0_d_2_1353" x="0.667236" y="0.0377197" width="218" height="44.3334" filterUnits="userSpaceOnUse" color-interpolation-filters="sRGB">
            <feFlood flood-opacity="0" result="BackgroundImageFix"/>
            <feColorMatrix in="SourceAlpha" type="matrix" values="0 0 0 0 0 0 0 0 0 0 0 0 0 0 0 0 0 0 127 0" result="hardAlpha"/>
            <feOffset dy="1"/>
            <feColorMatrix type="matrix" values="0 0 0 0 0.426829 0 0 0 0 0 0 0 0 0 0 0 0 0 0.196856 0"/>
            <feBlend mode="normal" in2="BackgroundImageFix" result="effect1_dropShadow_2_1353"/>
            <feBlend mode="normal" in="SourceGraphic" in2="effect1_dropShadow_2_1353" result="shape"/>
        </filter>
        <linearGradient id="paint0_linear_2_1353" x1="55.1672" y1="0.0377197" x2="55.1672" y2="21.7044" gradientUnits="userSpaceOnUse">
            <stop stop-color="#FFAD55"/>
            <stop offset="1" stop-color="#FF4B61"/>
        </linearGradient>
        <clipPath id="clip0_2_1353">
            <rect width="218" height="43.3333" fill="white" transform="translate(0.667236 0.0377197)"/>
        </clipPath>
    </defs>
</svg>
