<svg width="20" height="20" viewBox="0 0 20 20"
    xmlns="http://www.w3.org/2000/svg">
    <rect width="20" height="20" fill-opacity="0.01"/>
    <path opacity="0.8" fill-rule="evenodd" clip-rule="evenodd" d="M17.9878 13.5556H18V10C18 5.58172 14.4183 2 10 2C5.58172 2 2 5.58172 2 10V13.5556H2.01221C2.00414 13.6285 2 13.7027 2 13.7778V16C2 17.1046 2.89543 18 4 18H4.44444C5.54901 18 6.44444 17.1046 6.44444 16V13.7778C6.44444 12.6732 5.54901 11.7778 4.44444 11.7778H4C3.92488 11.7778 3.85074 11.7819 3.77777 11.79V10C3.77777 6.56356 6.56355 3.77778 9.99999 3.77778C13.4364 3.77778 16.2222 6.56356 16.2222 10V11.79C16.1493 11.7819 16.0751 11.7778 16 11.7778H15.5555C14.451 11.7778 13.5555 12.6732 13.5555 13.7778V16C13.5555 17.1046 14.451 18 15.5555 18H16C17.1046 18 18 17.1046 18 16V13.7778C18 13.7027 17.9958 13.6285 17.9878 13.5556Z" />
</svg>
