<svg width="24" height="24" viewBox="0 0 24 24" fill="none"
    xmlns="http://www.w3.org/2000/svg">
    <path d="M12 3C7.07143 3 3 7.02857 3 12C3 13.9714 3.64286 15.9 4.84286 17.4429L4.5 19.1143C4.45714 19.4571 4.54286 19.8 4.84286 20.0143C5.1 20.2286 5.44286 20.3143 5.78571 20.2286L7.37143 19.7143C8.78572 20.5286 10.3714 21 12 21C16.9286 21 21 16.9714 21 12C20.9571 7.02857 16.9286 3 12 3ZM14.7429 14.1429C14.1857 15.2143 13.1571 15.9 12 15.9H11.9143C10.8 15.9 9.77143 15.2571 9.12857 14.1857C8.95714 13.8429 9.08571 13.4571 9.38572 13.2857C9.72857 13.1143 10.1143 13.2429 10.2857 13.5429C10.6286 14.1857 11.2714 14.5714 11.9571 14.5714C12.6429 14.5714 13.2429 14.1857 13.5857 13.5C13.6714 13.3286 13.8 13.2429 13.9714 13.1571C14.1429 13.1143 14.3143 13.1143 14.4857 13.2C14.6571 13.2857 14.7429 13.4143 14.7857 13.6286C14.8714 13.8 14.8286 13.9714 14.7429 14.1429Z" fill="url(#paint0_linear_2_496)"/>
    <defs>
        <linearGradient id="paint0_linear_2_496" x1="3" y1="16" x2="21" y2="34" gradientUnits="userSpaceOnUse">
            <stop stop-color="#05C6B6"/>
            <stop offset="1" stop-color="#81EFE0"/>
        </linearGradient>
    </defs>
</svg>
