<svg viewBox="0 0 343 138" fill="none"
  xmlns="http://www.w3.org/2000/svg">
  <path d="M80.3631 7.30695C81.998 4.63166 84.9073 3 88.0426 3H255.948C259.083 3 261.992 4.63166 263.627 7.30695C267.292 13.3041 262.976 21 255.948 21H88.0426C81.0143 21 76.6981 13.3041 80.3631 7.30695Z" fill="url(#paint0_radial_475_1141)"/>
  <path d="M80.3631 7.30695C81.998 4.63166 84.9073 3 88.0426 3H255.948C259.083 3 261.992 4.63166 263.627 7.30695C267.292 13.3041 262.976 21 255.948 21H88.0426C81.0143 21 76.6981 13.3041 80.3631 7.30695Z" fill="url(#paint1_radial_475_1141)" fill-opacity="0.4"/>
  <g opacity="0.8" filter="url(#filter0_bii_475_1141)">
    <path d="M0 25C0 16.1634 7.16344 9 16 9H327C335.837 9 343 16.1634 343 25V122C343 130.837 335.837 138 327 138H16C7.16345 138 0 130.837 0 122V25Z" fill="#F2E0C0"/>
  </g>
  <path d="M10.9951 18C11.2777 14.6087 14.1129 12.0003 17.5159 12.0007L19.4951 12.001H326.495L327.653 12.3167C330.217 13.0153 331.995 15.3433 331.995 18L332.693 17.8359C336.578 16.9217 340.244 20.0163 339.995 24V121.001C339.995 128.733 333.727 135.001 325.995 135.001H16.9951C9.26312 135.001 2.99512 128.733 2.99512 121.001V25V23.6476C2.99512 20.6864 5.15555 18.168 8.08234 17.7175L9.49512 17.5L10.9951 18Z" fill="#FDFAF5" fill-opacity="0.9"/>
  <path d="M10.837 18.4743L11.4406 18.6755L11.4934 18.0415C11.7544 14.9094 14.3729 12.5004 17.5159 12.5007L19.4951 12.501H19.4951H326.428L327.522 12.7991C329.868 13.4384 331.495 15.5688 331.495 18V18.6313L332.11 18.4867L332.807 18.3226C336.366 17.4852 339.724 20.3198 339.496 23.9688L339.495 23.9844V24V121.001C339.495 128.457 333.451 134.501 325.995 134.501H16.9951C9.53927 134.501 3.49512 128.457 3.49512 121.001V25V23.6476C3.49512 20.9331 5.47551 18.6246 8.1584 18.2116L9.45169 18.0126L10.837 18.4743Z" stroke="url(#paint2_linear_475_1141)" stroke-opacity="0.8"/>
  <path fill-rule="evenodd" clip-rule="evenodd" d="M17.5208 12.0015C14.1402 12.0015 11.324 14.5928 11.0433 17.9617L11.0334 18.08C10.6052 17.8112 10.1249 17.6165 9.60993 17.5135C9.55613 17.5028 9.50109 17.4996 9.44641 17.5042L8.9602 17.5447C5.59131 17.8255 3 20.6417 3 24.0223V25.6594C3 25.9355 3.22386 26.1594 3.5 26.1594C3.77614 26.1594 4 25.9355 4 25.6594L4 24.0223C4 21.1618 6.19264 18.7788 9.04325 18.5413L9.46939 18.5057C10.7445 18.7839 11.7312 19.8004 11.9686 21.0875L12 21.2577V21.633C12 23.2172 10.7158 24.5015 9.13158 24.5015C8.32472 24.5015 7.71098 23.777 7.84363 22.9811L7.90205 22.6305C7.9442 22.3777 8.0643 22.1443 8.24558 21.963L8.35355 21.855C8.54882 21.6598 8.54882 21.3432 8.35355 21.1479C8.15829 20.9527 7.84171 20.9527 7.64645 21.1479L7.53847 21.2559C7.20982 21.5845 6.99207 22.0077 6.91566 22.4661L6.85723 22.8167C6.623 24.2221 7.70678 25.5015 9.13158 25.5015C11.2681 25.5015 13 23.7695 13 21.633V21.4248C13.4252 21.6785 13.899 21.8602 14.4046 21.9535L14.6198 21.9932L14.6648 22.0015H14.7105H15.1316C17.268 22.0015 19 20.2695 19 18.133C19 16.7082 17.7206 15.6245 16.3152 15.8587L15.9647 15.9171C15.5062 15.9935 15.0831 16.2113 14.7544 16.5399L14.6464 16.6479C14.4512 16.8432 14.4512 17.1598 14.6464 17.355C14.8417 17.5503 15.1583 17.5503 15.3536 17.355L15.4615 17.247C15.6428 17.0658 15.8762 16.9457 16.1291 16.9035L16.4796 16.8451C17.2755 16.7124 18 17.3262 18 18.133C18 19.7172 16.7158 21.0015 15.1316 21.0015H14.7563L14.586 20.9701C13.2989 20.7326 12.2824 19.746 12.0043 18.4709L12.0398 18.0447C12.2773 15.1941 14.6603 13.0015 17.5208 13.0015H19.1579C19.434 13.0015 19.6579 12.7776 19.6579 12.5015C19.6579 12.2253 19.434 12.0015 19.1579 12.0015H17.5208ZM16 25.0015C16 25.5538 15.5523 26.0015 15 26.0015C14.4477 26.0015 14 25.5538 14 25.0015C14 24.4492 14.4477 24.0015 15 24.0015C15.5523 24.0015 16 24.4492 16 25.0015ZM340.158 24.0223C340.158 20.6417 337.567 17.8255 334.198 17.5447L333.712 17.5042C333.657 17.4996 333.602 17.5028 333.548 17.5135C333.033 17.6165 332.553 17.8112 332.125 18.08L332.115 17.9617C331.834 14.5928 329.018 12.0015 325.637 12.0015H324C323.724 12.0015 323.5 12.2253 323.5 12.5015C323.5 12.7776 323.724 13.0015 324 13.0015H325.637C328.498 13.0015 330.881 15.1941 331.118 18.0447L331.154 18.4709C330.876 19.746 329.859 20.7326 328.572 20.9701L328.402 21.0015H328.027C326.442 21.0015 325.158 19.7172 325.158 18.133C325.158 17.3262 325.883 16.7124 326.679 16.8451L327.029 16.9035C327.282 16.9457 327.515 17.0658 327.697 17.247L327.805 17.355C328 17.5503 328.316 17.5503 328.512 17.355C328.707 17.1598 328.707 16.8432 328.512 16.6479L328.404 16.5399C328.075 16.2113 327.652 15.9935 327.194 15.9171L326.843 15.8587C325.438 15.6245 324.158 16.7082 324.158 18.133C324.158 20.2695 325.89 22.0015 328.027 22.0015H328.448H328.493L328.538 21.9932L328.754 21.9535C329.259 21.8602 329.733 21.6785 330.158 21.4248V21.633C330.158 23.7695 331.89 25.5015 334.027 25.5015C335.451 25.5015 336.535 24.2221 336.301 22.8167L336.243 22.4661C336.166 22.0077 335.948 21.5845 335.62 21.2559L335.512 21.1479C335.316 20.9527 335 20.9527 334.805 21.1479C334.609 21.3432 334.609 21.6598 334.805 21.855L334.913 21.963C335.094 22.1443 335.214 22.3777 335.256 22.6305L335.315 22.9811C335.447 23.777 334.833 24.5015 334.027 24.5015C332.442 24.5015 331.158 23.2172 331.158 21.633V21.2577L331.19 21.0875C331.427 19.8004 332.414 18.7839 333.689 18.5057L334.115 18.5413C336.966 18.7788 339.158 21.1618 339.158 24.0223V25.6594C339.158 25.9355 339.382 26.1594 339.658 26.1594C339.934 26.1594 340.158 25.9355 340.158 25.6594V24.0223ZM328.158 26.0015C327.606 26.0015 327.158 25.5538 327.158 25.0015C327.158 24.4492 327.606 24.0015 328.158 24.0015C328.71 24.0015 329.158 24.4492 329.158 25.0015C329.158 25.5538 328.71 26.0015 328.158 26.0015Z" fill="#F5CFA3"/>
  <g filter="url(#filter1_diii_475_1141)">
    <path d="M88.9951 3H254.995C251.338 3.60951 248.37 6.29158 247.395 9.86843L244.014 22.2624C241.641 30.9636 233.738 37 224.719 37H119.271C110.252 37 102.349 30.9636 99.9758 22.2623L96.5956 9.86843C95.6201 6.29157 92.6522 3.60951 88.9951 3Z" fill="#FBE9D8"/>
  </g>
  <path fill-rule="evenodd" clip-rule="evenodd" d="M134.581 18.1213L132.46 16L130.338 18.1213L132.46 20.2426L134.581 18.1213ZM135.288 18.8284C135.679 18.4379 135.679 17.8047 135.288 17.4142L133.167 15.2929C132.776 14.9024 132.143 14.9024 131.753 15.2929L129.631 17.4142C129.568 17.4777 129.515 17.5476 129.472 17.6218H108.995V18.6218H129.472C129.515 18.6957 129.568 18.7652 129.631 18.8284L131.753 20.9497C132.143 21.3403 132.776 21.3403 133.167 20.9497L135.288 18.8284Z" fill="url(#paint3_linear_475_1141)"/>
  <path fill-rule="evenodd" clip-rule="evenodd" d="M209.409 18.1213L211.53 16L213.652 18.1213L211.53 20.2426L209.409 18.1213ZM208.702 18.8284C208.312 18.4379 208.312 17.8047 208.702 17.4142L210.823 15.2929C211.214 14.9024 211.847 14.9024 212.238 15.2929L214.359 17.4142C214.422 17.4777 214.476 17.5476 214.518 17.6218H234.995V18.6218H214.518C214.475 18.6957 214.422 18.7652 214.359 18.8284L212.238 20.9497C211.847 21.3403 211.214 21.3403 210.823 20.9497L208.702 18.8284Z" fill="url(#paint4_linear_475_1141)"/>
  <path d="M143.069 14.456V17.56H141.485V19.08H143.069V22.6C142.429 22.792 141.757 23 141.053 23.192L141.549 24.888C143.437 24.312 145.101 23.672 146.557 22.984V21.272C145.981 21.528 145.389 21.768 144.765 22.008V19.08H146.253V17.56H144.765V14.456H146.589V12.904H141.261V14.456H143.069ZM148.509 18.712V19.832C148.461 22.424 147.181 24.296 144.685 25.48L145.933 26.584C148.685 25.16 150.077 22.904 150.125 19.832V18.712H151.565V24.76C151.565 25.24 151.693 25.64 151.981 25.976C152.221 26.28 152.589 26.44 153.085 26.44H154.205C154.781 26.424 155.181 26.28 155.405 26.008C155.597 25.736 155.773 24.776 155.917 23.144L154.365 22.632C154.333 23.896 154.253 24.6 154.157 24.728C154.077 24.856 153.981 24.92 153.869 24.92H153.645C153.389 24.92 153.277 24.728 153.277 24.376V18.712H155.357V17.08H146.701V18.712H148.509ZM147.261 12.664V14.248H154.829V12.664H147.261ZM165.201 11.896V14.264H161.585V15.88H165.201V18.36H160.817V19.992H164.273C163.185 22.552 162.289 24.12 161.617 24.728C161.537 24.776 161.425 24.824 161.265 24.872L161.633 26.328C164.417 26.056 166.993 25.688 169.377 25.208C169.569 25.688 169.777 26.2 169.985 26.744L171.569 26.04C170.865 24.216 170.049 22.52 169.121 20.92L167.505 21.464C167.921 22.168 168.321 22.92 168.721 23.752C167.073 24.088 165.409 24.36 163.745 24.552C164.417 23.56 165.201 22.04 166.065 19.992H171.249V18.36H166.897V15.88H170.833V14.264H166.897V11.896H165.201ZM158.385 11.992L157.185 13.144C158.321 14.008 159.201 14.808 159.809 15.56L160.993 14.36C160.273 13.576 159.409 12.792 158.385 11.992ZM157.985 15.736L156.801 16.888C157.841 17.768 158.641 18.584 159.201 19.32L160.401 18.136C159.729 17.336 158.929 16.536 157.985 15.736ZM159.425 20.264C158.737 22.152 157.921 24.008 156.977 25.8L158.657 26.536C159.489 24.776 160.257 22.888 160.945 20.888L159.425 20.264ZM174.837 14.872V22.328C174.069 22.52 173.285 22.68 172.485 22.808L172.901 24.504C174.997 24.008 176.965 23.4 178.821 22.696V21.016C178.053 21.32 177.285 21.608 176.485 21.864V14.872H178.773V13.24H172.693V14.872H174.837ZM180.837 15.736H184.117C183.989 17.784 183.461 19.56 182.517 21.064C181.589 19.88 180.837 18.584 180.261 17.192C180.469 16.744 180.661 16.248 180.837 15.736ZM185.669 15.736H186.885V14.12H181.301C181.461 13.48 181.589 12.824 181.717 12.12L180.085 11.832C179.637 14.712 178.773 17.016 177.493 18.728L178.549 20.04C178.837 19.688 179.109 19.304 179.365 18.904C179.941 20.136 180.645 21.304 181.493 22.392C180.405 23.576 178.997 24.52 177.237 25.256L178.149 26.712C179.909 25.88 181.381 24.84 182.533 23.624C183.573 24.744 184.789 25.768 186.197 26.712L187.301 25.432C185.893 24.504 184.661 23.48 183.589 22.328C184.853 20.504 185.541 18.296 185.669 15.736ZM201.625 20.424H195.625C196.777 19.912 197.801 19.32 198.697 18.664C199.529 19.304 200.505 19.88 201.625 20.424ZM195.321 20.552V26.552H196.953V25.96H200.185V26.552H201.817V20.504C201.977 20.6 202.169 20.68 202.361 20.76L203.081 19.272C201.865 18.824 200.777 18.296 199.833 17.688C200.793 16.76 201.513 15.704 201.993 14.52V13.24H197.881C198.025 12.92 198.169 12.6 198.329 12.264L196.665 11.912C195.993 13.464 195.193 14.696 194.281 15.624V12.856H188.585V25.272H190.089V24.68H192.873V25.272H194.281V19.976L194.857 20.744C195.001 20.68 195.161 20.616 195.321 20.552ZM194.281 16.216L195.097 17.176C195.449 16.824 195.801 16.456 196.137 16.04C196.505 16.568 196.953 17.08 197.465 17.592C196.569 18.216 195.497 18.776 194.281 19.256V16.216ZM198.537 16.712C197.913 16.152 197.385 15.544 196.969 14.872C196.969 14.856 196.985 14.84 197.001 14.808H200.073C199.673 15.48 199.161 16.12 198.537 16.712ZM196.953 24.408V21.976H200.185V24.408H196.953ZM192.873 23.24H192.121V19.432H192.873V23.24ZM192.873 17.992H192.121V14.376H192.873V17.992ZM190.809 14.376V17.992H190.089V14.376H190.809ZM190.089 19.432H190.809V23.24H190.089V19.432Z" fill="#BC351C" fill-opacity="0.85"/>
  <g filter="url(#filter2_i_475_1141)">
    <rect x="40.8334" y="49" width="46" height="46" rx="23" fill="url(#paint5_linear_475_1141)"/>
    <path d="M60.2515 67.3639C60.2515 68.0876 60.394 68.8043 60.671 69.473C60.948 70.1416 61.3539 70.7492 61.8657 71.261C62.3775 71.7728 62.985 72.1787 63.6537 72.4557C64.3224 72.7327 64.2762 72 65 72C65.7238 72 65.3313 71.777 66 71.5C66.6687 71.223 67.2762 70.8171 67.788 70.3053C68.2998 69.7935 68.7057 69.186 68.9827 68.5173C69.2597 67.8486 69.4022 67.1319 69.4022 66.4082C69.4022 64.9465 69.5336 64.0336 68.5 63C67.4664 61.9664 67.2245 61.8525 65.7628 61.8525C64.3011 61.8525 62.8993 62.4332 61.8657 63.4668C60.8321 64.5004 60.2515 65.9022 60.2515 67.3639Z" fill="#BC351C" fill-opacity="0.16"/>
    <path d="M67.0969 83.296H54.6075C54.0177 83.296 53.5388 82.8171 53.5388 82.2273V81.6318C53.5388 76.723 57.5323 72.7281 62.4425 72.7281H65.0816C66.2527 72.7281 67.391 72.9512 68.464 73.3932C68.8989 73.5723 69.3977 73.3648 69.5768 72.9285C69.7559 72.4922 69.5484 71.9948 69.1121 71.8157C68.655 71.6281 68.1853 71.4728 67.7065 71.351C69.1775 70.1842 70.124 68.3835 70.124 66.364C70.124 62.8552 67.2688 60 63.7599 60C60.251 60 57.3987 62.8552 57.3987 66.364C57.3987 68.3835 58.3452 70.1856 59.8176 71.351C55.2328 72.522 51.8334 76.6861 51.8334 81.6304V82.2259C51.8334 83.755 53.0783 85 54.6075 85H67.0969C67.5673 85 67.9496 84.6177 67.9496 84.1473C67.9496 83.6769 67.5673 83.296 67.0969 83.296ZM59.1041 66.364C59.1041 63.796 61.1933 61.7054 63.7628 61.7054C66.3323 61.7054 68.4214 63.7946 68.4214 66.364C68.4214 68.9335 66.3308 71.0227 63.7628 71.0227C61.1947 71.0227 59.1041 68.9335 59.1041 66.364Z" fill="#BC351C" fill-opacity="0.8"/>
    <path d="M75.4963 79.4956H72.8217V76.821C72.8217 76.3506 72.4394 75.9683 71.9689 75.9683C71.4985 75.9683 71.1162 76.3506 71.1162 76.821V79.4956H68.4416C67.9712 79.4956 67.5889 79.8779 67.5889 80.3483C67.5889 80.8188 67.9712 81.201 68.4416 81.201H71.1162V83.8757C71.1162 84.3461 71.4985 84.7284 71.9689 84.7284C72.4394 84.7284 72.8217 84.3461 72.8217 83.8757V81.201H75.4963C75.9667 81.201 76.349 80.8188 76.349 80.3483C76.349 79.8779 75.9682 79.4956 75.4963 79.4956Z" fill="#BC351C" fill-opacity="0.8"/>
  </g>
  <path d="M38.6031 107.432C38.3151 107.756 37.9791 108.044 37.5711 108.308C37.1631 108.548 36.7551 108.716 36.3711 108.824V109.808C37.1751 109.568 37.8471 109.184 38.3871 108.632V116H39.3711V107.432H38.6031ZM42.2435 114.572C42.0275 114.572 41.8595 114.644 41.7275 114.788C41.5835 114.932 41.5115 115.1 41.5115 115.316C41.5115 115.52 41.5835 115.688 41.7275 115.832C41.8595 115.976 42.0275 116.048 42.2435 116.048C42.4355 116.048 42.6155 115.976 42.7595 115.832C42.9035 115.688 42.9755 115.52 42.9755 115.316C42.9755 115.1 42.9035 114.932 42.7595 114.788C42.6155 114.644 42.4355 114.572 42.2435 114.572ZM45.3116 106.292L44.7476 106.832C45.5036 107.456 46.0916 108.056 46.5236 108.608L47.0876 108.056C46.6076 107.468 46.0196 106.88 45.3116 106.292ZM44.4836 109.196V109.988H46.2116C45.8036 110.66 45.3236 111.344 44.7476 112.016V112.676H46.4756C46.3316 113.456 46.1516 114.164 45.9116 114.788C45.4076 114.944 44.8796 115.556 44.3396 116.612L44.9756 117.176C45.5036 116.12 45.8996 115.592 46.1876 115.592C46.2956 115.592 46.3916 115.628 46.4876 115.712C46.9076 116.144 47.3636 116.456 47.8676 116.66C48.2996 116.84 48.9356 116.948 49.7756 116.972C50.4836 116.996 51.2996 117.008 52.2116 117.008H55.1996L55.3916 116.18C54.0476 116.216 52.9436 116.24 52.1036 116.24C51.2516 116.24 50.4956 116.228 49.8236 116.228C49.1276 116.216 48.5756 116.132 48.1916 115.976C47.7836 115.796 47.3996 115.52 47.0156 115.16C46.9076 115.064 46.7996 114.98 46.6916 114.908C46.9316 114.272 47.1236 113.48 47.2796 112.52V111.944H45.7556C46.2836 111.272 46.7516 110.588 47.1596 109.88V109.196H44.4836ZM47.9756 107.024V110.348H49.0316L49.3316 111.08H47.5796V111.812H48.6716C48.5756 112.472 48.4556 113.012 48.2876 113.432C48.0956 113.876 47.8076 114.284 47.4356 114.644L47.9276 115.28C48.3836 114.836 48.7316 114.332 48.9716 113.78C49.0316 113.612 49.0916 113.432 49.1516 113.228H50.6276C50.6156 113.876 50.5796 114.296 50.5196 114.476C50.4476 114.656 50.2796 114.752 50.0396 114.764H49.3436L49.5596 115.472H50.2436C50.6756 115.46 50.9756 115.304 51.1556 115.016C51.3236 114.728 51.4076 113.9 51.4076 112.544H49.3076C49.3556 112.328 49.3916 112.076 49.4276 111.812H51.7796V111.08H50.1476L49.8476 110.348H51.3596V110.288L51.7076 110.72C52.1036 110.18 52.4396 109.532 52.7156 108.776H53.8796C53.8556 109.76 53.7356 110.66 53.5436 111.464C53.2316 110.984 52.9076 110.576 52.5716 110.216L52.1276 110.72C52.5356 111.212 52.9196 111.752 53.2796 112.34C52.8956 113.384 52.3316 114.224 51.5756 114.848L52.0196 115.544C52.7396 114.92 53.3276 114.14 53.7596 113.18C54.0956 113.804 54.4196 114.5 54.7316 115.244L55.2956 114.68C54.9116 113.804 54.5036 113.024 54.0956 112.328C54.4196 111.308 54.5996 110.12 54.6476 108.776H55.2476V107.972H52.9556C53.0996 107.444 53.2196 106.88 53.3156 106.268L52.5236 106.124C52.3076 107.732 51.9236 109.028 51.3596 110.036V107.024H49.9316C50.0276 106.772 50.1116 106.496 50.1836 106.208L49.3196 106.088C49.2716 106.4 49.2116 106.712 49.1276 107.024H47.9756ZM50.6276 109.748H48.7076V108.98H50.6276V109.748ZM48.7076 108.38V107.624H50.6276V108.38H48.7076ZM63.1916 106.196V106.976H60.2876V107.684H63.1916V108.488H60.7676V109.184H63.1916V110H59.9516V110.72H67.2956V110H64.0196V109.184H66.5636V108.488H64.0196V107.684H66.9956V106.976H64.0196V106.196H63.1916ZM61.6916 113.744H65.5676V114.62H61.6916V113.744ZM65.5676 113.072H61.6916V112.184H65.5676V113.072ZM61.6916 115.292H65.5676V115.976C65.5676 116.252 65.4116 116.396 65.1236 116.396L64.1636 116.36L64.3676 117.128H65.3756C66.0476 117.128 66.3956 116.804 66.3956 116.156V111.476H60.8636V117.2H61.6916V115.292ZM57.7796 106.328L57.1676 106.916C58.0316 107.564 58.7156 108.176 59.2196 108.752L59.8076 108.152C59.2556 107.54 58.5836 106.928 57.7796 106.328ZM56.3276 109.868V110.696H58.0436V115.46C58.0436 115.664 57.9476 115.844 57.7676 116.012L58.1036 116.78C58.8476 116.24 59.5676 115.616 60.2396 114.92L60.0116 114.008C59.6036 114.428 59.2316 114.8 58.8716 115.136V109.868H56.3276ZM70.3796 106.064C70.2476 106.892 70.1036 107.696 69.9356 108.488H68.4836V109.316H69.7556C69.4676 110.54 69.1436 111.68 68.7716 112.736C69.4436 113.228 70.0676 113.696 70.6196 114.14C70.0556 115.076 69.3236 115.868 68.4116 116.528L68.9996 117.248C69.9236 116.54 70.6916 115.688 71.2916 114.692C71.8916 115.196 72.4076 115.652 72.8156 116.084L73.4036 115.4C72.9596 114.968 72.3956 114.476 71.6996 113.936C72.3716 112.532 72.7676 110.876 72.8756 108.98V108.488H70.7996C70.9436 107.768 71.0876 106.976 71.2316 106.136L70.3796 106.064ZM71.0036 113.408C70.6076 113.12 70.1756 112.808 69.7196 112.484C70.0316 111.644 70.3316 110.588 70.6196 109.316H72.0236C71.9156 110.852 71.5796 112.22 71.0036 113.408ZM73.2836 111.236V112.076H75.9956V115.652C75.9956 116.06 75.8516 116.264 75.5756 116.264C74.9996 116.264 74.4596 116.252 73.9676 116.252L74.1956 117.068H75.9236C76.5476 117.068 76.8716 116.684 76.8716 115.916V112.076H79.3196V111.236H76.8716V109.988C77.5916 109.268 78.2516 108.488 78.8276 107.66V106.82H73.6316V107.66H77.8436C77.2556 108.476 76.6436 109.16 75.9956 109.724V111.236H73.2836ZM80.7116 107.852V108.692H83.8916C83.6516 110.204 83.3396 111.476 82.9556 112.508C82.3796 113.924 81.5276 115.22 80.3996 116.384L80.9396 117.08C82.1876 115.832 83.1236 114.428 83.7476 112.844C83.9156 112.388 84.0836 111.872 84.2276 111.296H84.3116C84.7076 112.604 85.3796 113.732 86.3276 114.668C85.3436 115.364 84.1316 115.94 82.6796 116.384L83.1356 117.2C84.6236 116.684 85.9076 116.024 86.9636 115.232C87.9836 116.06 89.2796 116.708 90.8516 117.164L91.2836 116.372C89.8436 115.988 88.6196 115.424 87.6236 114.668C88.6676 113.708 89.4356 112.568 89.9156 111.248V110.492H84.4196C84.5396 109.94 84.6476 109.34 84.7556 108.692H91.1036V107.852H84.8756C84.9476 107.336 85.0076 106.784 85.0676 106.208H84.2036C84.1436 106.772 84.0836 107.324 84.0116 107.852H80.7116ZM85.1156 111.296H89.0036C88.5836 112.376 87.9116 113.324 86.9876 114.14C86.1476 113.36 85.5236 112.412 85.1156 111.296Z" fill="#BC351C" fill-opacity="0.8"/>
  <path d="M113.62 68L116.866 71.246C117.257 71.6365 117.257 72.2697 116.866 72.6602L113.62 75.9062" stroke="#D8815B" stroke-opacity="0.2" stroke-linecap="round"/>
  <path d="M117.526 68L120.772 71.246C121.163 71.6365 121.163 72.2697 120.772 72.6602L117.526 75.9062" stroke="#D8815B" stroke-opacity="0.4" stroke-linecap="round"/>
  <g filter="url(#filter3_i_475_1141)">
    <rect x="148.5" y="49" width="46" height="46" rx="23" fill="#FBE9D8"/>
    <path d="M178.456 67.0609C176.615 66.9722 175.273 68.4489 172.88 68.4487C170.474 68.4485 169.145 66.9668 167.199 67.0609C165.541 67.1413 164.122 68.1344 163.346 70.0339C162.57 71.9331 161.916 75.3227 162.13 77.6227C162.277 79.2036 162.726 79.96 163.202 80.3126C163.419 80.4729 163.811 79.9451 163.974 79.8196C164.727 79.2382 165.249 78.3825 166.649 77.3189C167.978 76.3085 169.313 76.2445 171.152 76.2445C172.991 76.2445 172.416 76.3431 174.256 76.3431C176.095 76.3431 177.869 77.7327 178.939 79.0137C180.009 80.2946 181.163 80.6872 181.81 80.5825C182.458 80.4778 183.311 79.9231 183.524 77.6227C183.738 75.3227 183.084 71.9331 182.309 70.0339C181.533 68.1344 180.114 67.1413 178.456 67.0609Z" fill="#BC351C" fill-opacity="0.16"/>
    <path d="M174.244 76.9122C175.019 76.9122 175.614 77.2564 176.209 77.7612C176.964 78.4023 177.704 79.2826 178.634 80.2294C179.763 81.379 181.246 81.841 182.399 81.3556C183.173 81.0294 183.889 80.2717 184.224 78.8292C184.895 75.936 184.282 70.5558 183.066 67.3193C182.117 64.7941 180.264 63 177.403 63C176.329 63 175.233 63.4711 174.141 63.9744C173.303 64.3604 172.471 64.7773 171.628 64.7773C170.739 64.7773 169.858 64.3585 168.973 63.9681C167.843 63.4692 166.709 63 165.597 63C162.737 63 160.884 64.7941 159.935 67.3193C158.719 70.5558 158.106 75.936 158.777 78.8292C159.112 80.2717 159.828 81.0294 160.602 81.3556C161.755 81.841 163.238 81.379 164.367 80.2294C165.297 79.2826 166.037 78.4023 166.792 77.7612C167.388 77.2564 167.982 76.9122 168.756 76.9122H174.244ZM174.244 75.0429H168.756C167.517 75.0429 166.536 75.5273 165.583 76.3358C164.79 77.0083 164.009 77.9261 163.033 78.9194C162.725 79.2335 162.378 79.4784 162.025 79.6041C161.785 79.6901 161.543 79.7235 161.328 79.6328C160.973 79.4835 160.751 79.0673 160.598 78.4068C159.99 75.7841 160.583 70.9108 161.685 67.9766C162.35 66.205 163.591 64.8696 165.597 64.8696C166.466 64.8696 167.336 65.2888 168.219 65.6785C169.349 66.1769 170.493 66.6468 171.628 66.6468C172.725 66.6468 173.832 66.1748 174.923 65.6724C175.759 65.2869 176.581 64.8696 177.403 64.8696C179.41 64.8696 180.65 66.2052 181.316 67.9769C182.418 70.9108 183.011 75.7843 182.403 78.407C182.249 79.0673 182.027 79.4837 181.673 79.6331C181.458 79.7237 181.216 79.6903 180.976 79.6043C180.623 79.4786 180.276 79.2337 179.967 78.9197C178.992 77.9266 178.21 77.0085 177.418 76.336C176.465 75.5275 175.484 75.0431 174.245 75.0431L174.244 75.0429Z" fill="#BC351C" fill-opacity="0.8"/>
    <path d="M169.87 69.9015H168.132V68.1626C168.132 67.6885 167.815 67.3723 167.341 67.3723C166.867 67.3723 166.551 67.6885 166.551 68.1626V69.9015H164.812C164.338 69.9015 164.022 70.2174 164.022 70.6918C164.022 71.1661 164.338 71.482 164.812 71.482H166.551V73.2207C166.551 73.6951 166.867 74.011 167.341 74.011C167.816 74.011 168.132 73.6951 168.132 73.2207V71.64H169.87C170.345 71.64 170.661 71.3238 170.661 70.8497C170.661 70.3756 170.345 69.9015 169.87 69.9015H169.87ZM176.403 72.5994C176.403 72.3648 176.496 72.1398 176.662 71.9738C176.828 71.8079 177.053 71.7147 177.288 71.7145C177.523 71.7147 177.748 71.8079 177.913 71.9738C178.079 72.1398 178.173 72.3648 178.173 72.5994C178.173 72.8341 178.079 73.0591 177.913 73.225C177.748 73.3909 177.523 73.4842 177.288 73.4843C177.053 73.4842 176.828 73.3909 176.662 73.225C176.496 73.0591 176.403 72.8341 176.403 72.5994ZM179.141 69.8616C179.375 69.8616 179.601 69.9548 179.766 70.1207C179.932 70.2866 180.026 70.5116 180.026 70.7462C180.026 70.9809 179.932 71.2059 179.766 71.3718C179.601 71.5377 179.376 71.631 179.141 71.6311C178.909 71.6273 178.687 71.5325 178.524 71.3669C178.362 71.2014 178.27 70.9785 178.27 70.7463C178.27 70.5141 178.362 70.2912 178.524 70.1257C178.687 69.9602 178.909 69.8653 179.141 69.8616ZM175.435 69.8616C175.67 69.8617 175.894 69.9549 176.06 70.1208C176.226 70.2867 176.319 70.5116 176.32 70.7462C176.319 70.9809 176.226 71.2059 176.06 71.3718C175.894 71.5377 175.669 71.631 175.435 71.6311C175.2 71.631 174.975 71.5377 174.809 71.3718C174.643 71.2059 174.55 70.9809 174.55 70.7462C174.55 70.5116 174.643 70.2866 174.809 70.1207C174.975 69.9548 175.2 69.8616 175.435 69.8616H175.435ZM176.403 68.8932C176.403 68.6586 176.496 68.4336 176.662 68.2677C176.828 68.1017 177.053 68.0085 177.288 68.0084C177.523 68.0085 177.748 68.1017 177.913 68.2677C178.079 68.4336 178.173 68.6586 178.173 68.8932C178.173 69.1279 178.079 69.3529 177.913 69.5188C177.748 69.6847 177.523 69.778 177.288 69.7781C177.053 69.778 176.828 69.6847 176.662 69.5188C176.496 69.3529 176.403 69.1279 176.403 68.8932Z" fill="#BC351C" fill-opacity="0.8"/>
  </g>
  <path d="M134.041 107.264C133.177 107.264 132.469 107.552 131.941 108.128C131.413 108.692 131.137 109.46 131.137 110.42H132.121C132.133 109.664 132.313 109.088 132.649 108.704C132.961 108.296 133.417 108.104 134.005 108.104C134.557 108.104 135.001 108.248 135.313 108.536C135.625 108.824 135.781 109.22 135.781 109.748C135.781 110.3 135.553 110.816 135.121 111.284C134.893 111.524 134.449 111.872 133.777 112.352C132.865 112.976 132.253 113.492 131.917 113.876C131.341 114.512 131.065 115.22 131.065 116H136.777V115.124H132.277C132.433 114.548 133.057 113.888 134.149 113.156C135.037 112.556 135.625 112.088 135.925 111.776C136.477 111.176 136.765 110.504 136.765 109.76C136.765 109.016 136.501 108.404 135.997 107.948C135.481 107.492 134.833 107.264 134.041 107.264ZM139.1 114.572C138.884 114.572 138.716 114.644 138.584 114.788C138.44 114.932 138.368 115.1 138.368 115.316C138.368 115.52 138.44 115.688 138.584 115.832C138.716 115.976 138.884 116.048 139.1 116.048C139.292 116.048 139.472 115.976 139.616 115.832C139.76 115.688 139.832 115.52 139.832 115.316C139.832 115.1 139.76 114.932 139.616 114.788C139.472 114.644 139.292 114.572 139.1 114.572ZM143.236 106.064C143.104 106.892 142.96 107.696 142.792 108.488H141.34V109.316H142.612C142.324 110.54 142 111.68 141.628 112.736C142.3 113.228 142.924 113.696 143.476 114.14C142.912 115.076 142.18 115.868 141.268 116.528L141.856 117.248C142.78 116.54 143.548 115.688 144.148 114.692C144.748 115.196 145.264 115.652 145.672 116.084L146.26 115.4C145.816 114.968 145.252 114.476 144.556 113.936C145.228 112.532 145.624 110.876 145.732 108.98V108.488H143.656C143.8 107.768 143.944 106.976 144.088 106.136L143.236 106.064ZM143.86 113.408C143.464 113.12 143.032 112.808 142.576 112.484C142.888 111.644 143.188 110.588 143.476 109.316H144.88C144.772 110.852 144.436 112.22 143.86 113.408ZM146.14 111.236V112.076H148.852V115.652C148.852 116.06 148.708 116.264 148.432 116.264C147.856 116.264 147.316 116.252 146.824 116.252L147.052 117.068H148.78C149.404 117.068 149.728 116.684 149.728 115.916V112.076H152.176V111.236H149.728V109.988C150.448 109.268 151.108 108.488 151.684 107.66V106.82H146.488V107.66H150.7C150.112 108.476 149.5 109.16 148.852 109.724V111.236H146.14ZM153.568 107.852V108.692H156.748C156.508 110.204 156.196 111.476 155.812 112.508C155.236 113.924 154.384 115.22 153.256 116.384L153.796 117.08C155.044 115.832 155.98 114.428 156.604 112.844C156.772 112.388 156.94 111.872 157.084 111.296H157.168C157.564 112.604 158.236 113.732 159.184 114.668C158.2 115.364 156.988 115.94 155.536 116.384L155.992 117.2C157.48 116.684 158.764 116.024 159.82 115.232C160.84 116.06 162.136 116.708 163.708 117.164L164.14 116.372C162.7 115.988 161.476 115.424 160.48 114.668C161.524 113.708 162.292 112.568 162.772 111.248V110.492H157.276C157.396 109.94 157.504 109.34 157.612 108.692H163.96V107.852H157.732C157.804 107.336 157.864 106.784 157.924 106.208H157.06C157 106.772 156.94 107.324 156.868 107.852H153.568ZM157.972 111.296H161.86C161.44 112.376 160.768 113.324 159.844 114.14C159.004 113.36 158.38 112.412 157.972 111.296ZM165.424 109.796V110.588H168.736C167.884 111.344 166.696 111.944 165.184 112.388L165.58 113.156C167.452 112.484 168.856 111.632 169.792 110.588H171.964C172.732 111.62 174.016 112.448 175.816 113.096L176.188 112.304C174.7 111.884 173.596 111.308 172.876 110.588H175.864V109.796H170.392C170.584 109.472 170.752 109.136 170.884 108.788C171.808 108.74 172.708 108.68 173.572 108.632C173.872 108.92 174.148 109.196 174.388 109.484L175.108 108.98C174.484 108.296 173.572 107.492 172.384 106.568L171.724 106.988C172.12 107.312 172.492 107.624 172.84 107.936C171.4 108.032 169.888 108.116 168.28 108.164C168.964 107.72 169.66 107.144 170.356 106.424L169.516 106.136C168.328 107.312 167.344 107.996 166.564 108.188L166.696 108.944C167.836 108.908 168.94 108.872 170.008 108.824C169.876 109.16 169.696 109.484 169.468 109.796H165.424ZM170.716 111.008C169.984 111.896 168.832 112.604 167.272 113.132L167.644 113.804C169.336 113.216 170.584 112.424 171.388 111.416L170.716 111.008ZM173.812 112.868C172.828 114.62 170.524 115.892 166.9 116.66L167.392 117.332C171.076 116.552 173.476 115.172 174.58 113.204L173.812 112.868ZM172.24 112.004C171.016 113.48 169.3 114.404 167.08 114.764L167.572 115.424C169.732 115.04 171.508 114.056 172.912 112.46L172.24 112.004ZM186.58 110.612H179.992V108.656H187.324V107.828H179.992V106.352H179.116V111.404H185.692C185.692 113.684 185.524 115.052 185.2 115.532C184.876 116.012 184.3 116.252 183.472 116.252C182.824 116.252 182.164 116.228 181.516 116.204L181.732 117.032C182.404 117.056 183.028 117.068 183.616 117.068C184.756 117.032 185.536 116.696 185.944 116.072C186.328 115.472 186.544 113.66 186.58 110.612ZM177.28 113.348V114.176H184.132V113.348H177.28ZM194.32 111.884V115.304C193.936 115.376 193.54 115.436 193.144 115.484L193.36 116.3C194.56 116.096 195.688 115.844 196.732 115.544V114.74C196.228 114.884 195.7 115.016 195.172 115.136V111.884H196.3V111.08H193.192V111.884H194.32ZM198.868 117.02C199.42 117.02 199.888 116.156 200.284 114.428L199.6 113.876C199.36 115.304 199.108 116.036 198.868 116.084C198.508 116.036 198.196 115.34 197.932 113.972C197.74 112.844 197.608 111.26 197.548 109.196H199.924V108.356H197.536C197.512 107.672 197.512 106.94 197.512 106.16H196.672C196.672 106.928 196.672 107.66 196.696 108.356H192.916V109.196H196.72C196.768 110.768 196.852 112.088 196.984 113.144C197.152 114.392 197.416 115.364 197.776 116.084C198.088 116.708 198.46 117.02 198.868 117.02ZM198.544 106.148L197.932 106.52C198.436 107.096 198.844 107.612 199.144 108.08L199.744 107.66C199.456 107.228 199.06 106.724 198.544 106.148ZM190.624 106.316L190.024 106.904C190.84 107.552 191.488 108.176 191.968 108.764L192.556 108.164C192.028 107.54 191.392 106.928 190.624 106.316ZM189.184 109.868V110.696H190.864V115.508C190.864 115.688 190.768 115.856 190.6 116L190.936 116.768C191.68 116.216 192.376 115.58 193.036 114.86L192.808 113.948C192.424 114.368 192.064 114.752 191.704 115.1V109.868H189.184ZM202.828 107.9V110.6H201.484V111.38H202.828V114.404C202.312 114.572 201.784 114.728 201.232 114.884L201.472 115.76C202.912 115.328 204.16 114.848 205.24 114.344V113.468C204.76 113.684 204.244 113.9 203.704 114.104V111.38H204.964V110.6H203.704V107.9H205.216V107.096H201.316V107.9H202.828ZM206.956 111.128V111.968C206.92 114.08 205.936 115.616 204.016 116.576L204.664 117.14C206.704 116.048 207.748 114.32 207.784 111.968V111.128H209.212V115.904C209.212 116.216 209.296 116.492 209.476 116.708C209.644 116.912 209.896 117.02 210.232 117.02H211.024C211.408 117.02 211.684 116.912 211.852 116.708C212.008 116.492 212.128 115.796 212.212 114.632L211.408 114.356C211.372 115.388 211.288 115.964 211.168 116.084C211.096 116.18 210.988 116.228 210.844 116.228H210.508C210.22 116.228 210.088 116.048 210.088 115.712V111.128H211.804V110.276H205.384V111.128H206.956ZM205.804 106.904V107.732H211.42V106.904H205.804Z" fill="#BC351C" fill-opacity="0.8"/>
  <path d="M221.286 68L224.532 71.246C224.923 71.6365 224.923 72.2697 224.532 72.6602L221.286 75.9062" stroke="#D8815B" stroke-opacity="0.2" stroke-linecap="round"/>
  <path d="M225.192 68L228.438 71.246C228.829 71.6365 228.829 72.2697 228.438 72.6602L225.192 75.9062" stroke="#D8815B" stroke-opacity="0.4" stroke-linecap="round"/>
  <g filter="url(#filter4_i_475_1141)">
    <rect x="256.166" y="49" width="46" height="46" rx="23" fill="#FBE9D8"/>
    <path d="M279.054 83.4302C273.819 83.4302 269.64 80.6055 269.64 74.6333C269.64 72.5598 270.554 70.6322 272.097 68.9024C272.626 68.31 273.205 67.7642 273.829 67.2712C274.077 67.0766 274.332 66.8909 274.594 66.7156C275.425 66.1333 275.346 65.1076 274.533 64.67L274.535 64.6611L274.53 64.6584L274.52 64.6532L274.492 64.639L274.453 64.6191V64.6201L274.432 64.6097L274.416 64.6034L274.413 64.6013L274.412 64.6023L274.327 64.5672C273.609 64.3442 273.158 63.8048 273.158 63.2471C273.158 62.5058 273.951 61.8279 275.001 61.8279C275.278 61.8272 275.552 61.8977 275.794 62.0325L275.884 62.0881C276.55 62.4328 277.409 62.2156 277.887 61.6159L277.949 61.5252C278.064 61.3458 278.203 61.1826 278.362 61.0404C278.687 60.7398 279.043 60.5682 279.424 60.5682C279.803 60.5682 280.159 60.7398 280.485 61.0404C280.692 61.2303 280.836 61.4203 280.897 61.5252L280.947 61.6002C281.411 62.2156 282.279 62.4218 282.948 62.096L283.053 62.0331C283.295 61.8991 283.568 61.8287 283.845 61.8284C284.895 61.8284 285.688 62.5068 285.688 63.2482C285.688 63.8043 285.237 64.3447 284.519 64.5672L284.415 64.6091C284.288 64.6759 284.155 64.7307 284.018 64.7728C282.985 65.1118 282.81 66.2298 283.647 66.8547C283.728 66.9098 283.807 66.9654 283.886 67.0215C284.732 67.64 285.511 68.3451 286.21 69.1254C287.764 70.8589 288.681 72.7235 288.681 74.6333C288.681 80.914 284.694 83.4302 279.054 83.4302H279.054ZM287.279 68.043C286.686 67.3834 286.042 66.7722 285.352 66.2151C285.254 66.1354 285.179 66.0792 285.092 66.0121C286.31 65.5687 287.163 64.5063 287.163 63.2482C287.163 61.5551 285.645 60.2592 283.845 60.2592C283.455 60.2583 283.068 60.3331 282.706 60.4795C282.576 60.532 282.45 60.5955 282.331 60.67C282.267 60.6978 282.133 60.6658 282.096 60.6175L282.095 60.6191C281.914 60.3364 281.697 60.0789 281.449 59.8531C280.876 59.3263 280.198 59 279.423 59C278.648 59 277.97 59.3253 277.397 59.8536C277.154 60.0748 276.941 60.3267 276.763 60.6028L276.762 60.6018C276.71 60.6668 276.575 60.7009 276.528 60.6768C276.404 60.5999 276.274 60.5341 276.139 60.4801C275.777 60.3338 275.391 60.2588 275.001 60.2592C273.2 60.2592 271.684 61.5551 271.684 63.2482C271.684 64.3237 272.31 65.255 273.251 65.7802C273.15 65.8573 273.049 65.9344 272.95 66.0131C272.258 66.5601 271.615 67.1657 271.027 67.8232C269.248 69.8185 268.166 72.1007 268.166 74.6343C268.166 81.6595 273.105 85 279.054 85C281.547 85 283.984 84.4727 285.957 83.2288C288.633 81.5388 290.155 78.7009 290.155 74.6348C290.155 72.2518 289.067 70.0404 287.279 68.043Z" fill="#BC351C" fill-opacity="0.8"/>
    <path d="M271.641 76.6335C271.641 74.56 272.554 72.6324 274.097 70.9026C274.627 70.3102 275.206 69.7645 275.829 69.2715C276.077 69.0768 276.333 68.8911 276.595 68.7159C277.425 68.1335 284.81 68.23 285.648 68.8549C285.728 68.91 285.808 68.9656 285.886 69.0217C286.732 69.6402 287.511 70.3453 288.21 71.1256C289.765 72.8591 289.5 74.0902 289.5 76C289 81.5 285.648 83 280.5 84.5C275.265 84.5 271.641 82.6057 271.641 76.6335Z" fill="#BC351C" fill-opacity="0.16"/>
    <path d="M282.126 74.1911C282.465 74.1911 282.74 73.893 282.74 73.5242C282.74 73.1569 282.465 72.8589 282.126 72.8589H279.617L281.946 70.3343C282.062 70.2049 282.126 70.0373 282.126 69.8637C282.126 69.69 282.062 69.5224 281.946 69.393C281.892 69.3318 281.825 69.2827 281.75 69.2492C281.675 69.2156 281.594 69.1982 281.512 69.1982C281.429 69.1982 281.348 69.2156 281.273 69.2492C281.199 69.2827 281.132 69.3318 281.077 69.393L279.055 71.5845L277.033 69.393C276.978 69.3318 276.911 69.2827 276.836 69.2492C276.761 69.2156 276.68 69.1982 276.598 69.1982C276.516 69.1982 276.435 69.2156 276.36 69.2492C276.285 69.2827 276.218 69.3318 276.163 69.393C276.048 69.5226 275.984 69.6901 275.984 69.8637C275.984 70.0372 276.048 70.2047 276.163 70.3343L278.493 72.8589H275.983C275.645 72.8589 275.369 73.1575 275.369 73.5242C275.369 73.893 275.645 74.1905 275.983 74.1905H278.44V74.8568H275.983C275.645 74.8568 275.369 75.1543 275.369 75.5221C275.369 75.8894 275.645 76.1874 275.983 76.1874H278.44V78.105C278.44 78.3857 278.715 78.6139 279.054 78.6139C279.394 78.6139 279.669 78.3857 279.669 78.105V76.1879H282.126C282.465 76.1879 282.74 75.8904 282.74 75.5226C282.74 75.1548 282.465 74.8568 282.126 74.8568H279.669V74.1916H282.126V74.1911Z" fill="#BC351C" fill-opacity="0.8"/>
  </g>
  <path d="M240.657 107.264C239.841 107.264 239.181 107.492 238.677 107.96C238.149 108.428 237.837 109.076 237.765 109.904H238.737C238.797 109.328 238.989 108.884 239.325 108.572C239.649 108.26 240.093 108.116 240.669 108.116C241.221 108.116 241.665 108.248 241.977 108.536C242.265 108.8 242.421 109.172 242.421 109.652C242.421 110.132 242.265 110.504 241.965 110.768C241.665 111.02 241.233 111.152 240.657 111.152H239.997V111.92H240.693C241.293 111.92 241.749 112.052 242.085 112.34C242.421 112.628 242.589 113.024 242.589 113.54C242.589 114.044 242.409 114.464 242.073 114.8C241.701 115.148 241.209 115.328 240.597 115.328C240.057 115.328 239.613 115.172 239.253 114.884C238.833 114.536 238.605 114.02 238.581 113.348H237.585C237.657 114.308 237.993 115.04 238.605 115.544C239.121 115.952 239.781 116.168 240.597 116.168C241.485 116.168 242.205 115.916 242.757 115.412C243.297 114.92 243.573 114.284 243.573 113.504C243.573 113 243.429 112.58 243.141 112.244C242.877 111.908 242.493 111.668 241.989 111.512C242.925 111.2 243.393 110.552 243.393 109.592C243.393 108.872 243.141 108.308 242.649 107.888C242.145 107.468 241.473 107.264 240.657 107.264ZM245.752 114.572C245.536 114.572 245.368 114.644 245.236 114.788C245.092 114.932 245.02 115.1 245.02 115.316C245.02 115.52 245.092 115.688 245.236 115.832C245.368 115.976 245.536 116.048 245.752 116.048C245.944 116.048 246.124 115.976 246.268 115.832C246.412 115.688 246.484 115.52 246.484 115.316C246.484 115.1 246.412 114.932 246.268 114.788C246.124 114.644 245.944 114.572 245.752 114.572ZM253.464 111.776C252.792 112.004 252.06 112.22 251.28 112.424V110.264H254.232C254.328 111.176 254.46 111.968 254.628 112.652C254.748 113.12 254.88 113.564 255.024 113.972C254.148 114.8 253.128 115.436 251.952 115.868L252.42 116.612C253.512 116.18 254.496 115.58 255.36 114.812C255.552 115.244 255.78 115.628 256.02 115.952C256.572 116.672 257.088 117.032 257.58 117.032C258.132 117.032 258.552 116.18 258.84 114.476L258.084 114.08C257.892 115.424 257.688 116.096 257.448 116.108C257.22 116.108 256.908 115.808 256.524 115.232C256.332 114.956 256.164 114.608 255.996 114.2C256.752 113.396 257.4 112.436 257.952 111.308L257.208 110.912C256.776 111.8 256.26 112.592 255.684 113.288C255.6 113.024 255.516 112.748 255.444 112.436C255.3 111.848 255.192 111.128 255.108 110.264H258.744V109.436H255.036C254.964 108.5 254.928 107.432 254.916 106.22H254.052C254.052 107.396 254.088 108.464 254.16 109.436H251.28V107.636C251.904 107.468 252.504 107.288 253.056 107.096L252.768 106.28C251.448 106.796 249.936 107.144 248.232 107.336L248.412 108.164C249.096 108.068 249.756 107.96 250.392 107.828V109.436H247.92V110.264H250.392V112.628C249.612 112.796 248.784 112.94 247.908 113.084L248.028 113.96C248.844 113.828 249.624 113.672 250.392 113.504V115.784C250.392 116.108 250.224 116.276 249.888 116.276C249.492 116.276 249.084 116.252 248.664 116.216L248.844 117.044H250.176C250.908 117.044 251.28 116.696 251.28 116V113.3C252.048 113.096 252.768 112.88 253.464 112.652V111.776ZM256.236 106.352L255.66 106.904C256.572 107.54 257.28 108.14 257.808 108.692L258.432 108.068C257.832 107.492 257.1 106.928 256.236 106.352ZM264.972 106.7V107.516H267.42C267.372 107.972 267.3 108.404 267.204 108.836H265.488V114.596H266.34V109.628H269.448V114.5H270.288V108.836H268.044C268.14 108.404 268.212 107.972 268.272 107.516H270.66V106.7H264.972ZM268.788 114.536L268.2 115.1C269.064 115.856 269.748 116.576 270.24 117.248L270.852 116.636C270.288 115.94 269.604 115.232 268.788 114.536ZM267.468 110.42V112.484C267.444 113.528 267.252 114.368 266.892 115.016C266.508 115.64 265.824 116.144 264.852 116.516L265.308 117.248C266.34 116.84 267.084 116.276 267.54 115.568C268.008 114.8 268.26 113.768 268.284 112.484V110.42H267.468ZM262.188 106.304C261.444 107.636 260.628 108.8 259.728 109.784L260.22 110.48C261.12 109.472 261.912 108.356 262.596 107.132C263.172 107.828 263.856 108.764 264.636 109.94L265.212 109.328C264.444 108.26 263.652 107.252 262.836 106.304H262.188ZM260.412 111.548V112.352H263.784C263.328 113.24 262.86 114.02 262.368 114.68C261.996 114.356 261.612 114.032 261.204 113.708L260.628 114.26C261.888 115.28 262.872 116.24 263.592 117.14L264.216 116.528C263.832 116.084 263.4 115.64 262.932 115.196C263.604 114.332 264.192 113.36 264.708 112.268V111.548H260.412ZM262.44 108.908L261.816 109.292C262.32 109.988 262.728 110.624 263.028 111.2L263.652 110.756C263.364 110.228 262.968 109.616 262.44 108.908ZM275.052 107.264C274.188 107.264 273.48 107.552 272.952 108.128C272.424 108.692 272.148 109.46 272.148 110.42H273.132C273.144 109.664 273.324 109.088 273.66 108.704C273.972 108.296 274.428 108.104 275.016 108.104C275.568 108.104 276.012 108.248 276.324 108.536C276.636 108.824 276.792 109.22 276.792 109.748C276.792 110.3 276.564 110.816 276.132 111.284C275.904 111.524 275.46 111.872 274.788 112.352C273.876 112.976 273.264 113.492 272.928 113.876C272.352 114.512 272.076 115.22 272.076 116H277.788V115.124H273.288C273.444 114.548 274.068 113.888 275.16 113.156C276.048 112.556 276.636 112.088 276.936 111.776C277.488 111.176 277.776 110.504 277.776 109.76C277.776 109.016 277.512 108.404 277.008 107.948C276.492 107.492 275.844 107.264 275.052 107.264ZM282.128 107.264C281.096 107.264 280.328 107.708 279.812 108.62C279.356 109.388 279.128 110.42 279.128 111.716C279.128 113.012 279.356 114.044 279.812 114.812C280.328 115.712 281.096 116.168 282.128 116.168C283.148 116.168 283.916 115.712 284.444 114.812C284.9 114.044 285.128 113.012 285.128 111.716C285.128 110.42 284.9 109.388 284.444 108.62C283.916 107.708 283.148 107.264 282.128 107.264ZM282.128 108.104C282.896 108.104 283.448 108.512 283.784 109.34C284.024 109.916 284.156 110.708 284.156 111.716C284.156 112.712 284.024 113.504 283.784 114.092C283.448 114.908 282.896 115.328 282.128 115.328C281.36 115.328 280.808 114.908 280.472 114.092C280.232 113.504 280.112 112.712 280.112 111.716C280.112 110.708 280.232 109.916 280.472 109.34C280.808 108.512 281.36 108.104 282.128 108.104ZM294.591 111.308C293.943 111.308 293.451 111.536 293.115 112.016C292.803 112.424 292.659 112.976 292.659 113.66C292.659 114.332 292.803 114.872 293.115 115.304C293.451 115.76 293.943 116 294.591 116C295.227 116 295.719 115.76 296.067 115.304C296.367 114.884 296.523 114.332 296.523 113.66C296.523 112.976 296.367 112.424 296.067 112.016C295.719 111.536 295.227 111.308 294.591 111.308ZM293.559 107.264L288.747 116.168H289.527L294.327 107.264H293.559ZM288.495 107.432C287.847 107.432 287.355 107.66 287.019 108.14C286.707 108.548 286.563 109.1 286.563 109.784C286.563 110.456 286.707 110.996 287.019 111.428C287.355 111.884 287.847 112.124 288.495 112.124C289.131 112.124 289.623 111.884 289.971 111.428C290.271 111.008 290.427 110.456 290.427 109.784C290.427 109.1 290.271 108.548 289.971 108.14C289.623 107.66 289.131 107.432 288.495 107.432ZM294.591 111.956C294.951 111.956 295.215 112.124 295.395 112.472C295.539 112.76 295.623 113.156 295.623 113.66C295.623 114.152 295.539 114.536 295.395 114.824C295.215 115.172 294.951 115.352 294.591 115.352C294.219 115.352 293.955 115.172 293.787 114.836C293.631 114.548 293.559 114.152 293.559 113.66C293.559 113.144 293.631 112.748 293.787 112.46C293.955 112.124 294.219 111.956 294.591 111.956ZM288.495 108.08C288.855 108.08 289.119 108.248 289.287 108.596C289.443 108.884 289.527 109.28 289.527 109.784C289.527 110.276 289.443 110.66 289.299 110.948C289.119 111.296 288.855 111.476 288.495 111.476C288.123 111.476 287.859 111.296 287.691 110.96C287.535 110.672 287.463 110.276 287.463 109.784C287.463 109.268 287.535 108.872 287.691 108.584C287.859 108.248 288.123 108.08 288.495 108.08ZM301.2 106.712C300.456 108.44 299.364 109.82 297.9 110.84L298.584 111.428C300 110.42 301.128 108.956 301.992 107.036L301.2 106.712ZM303.24 106.58V107.42H304.956C305.688 109.112 306.804 110.468 308.304 111.476L308.856 110.708C307.272 109.676 306.156 108.296 305.52 106.58H303.24ZM302.124 111.8C301.872 112.928 301.5 113.84 300.996 114.536C300.42 115.256 299.58 115.916 298.452 116.516L299.004 117.236C300.24 116.552 301.176 115.784 301.8 114.92C302.316 114.152 302.712 113.108 303 111.8H305.952C305.892 113.672 305.76 114.884 305.544 115.46C305.34 116.012 304.92 116.288 304.272 116.288C303.636 116.288 302.964 116.276 302.244 116.252L302.484 117.104H304.716C305.316 117.068 305.748 116.876 306.012 116.528C306.288 116.168 306.48 115.52 306.6 114.608C306.72 113.684 306.792 112.472 306.828 110.972H299.7V111.8H302.124ZM318.288 106.16L317.736 106.688C318.348 107.156 318.828 107.6 319.188 108.032H316.944C316.92 107.456 316.908 106.844 316.908 106.172H316.02C316.02 106.82 316.032 107.432 316.056 108.032H311.1V112.028C311.064 113.984 310.668 115.508 309.9 116.612L310.56 117.2C311.448 115.904 311.928 114.176 311.976 112.028V111.668H314.052C314.028 112.988 313.992 113.852 313.92 114.26C313.848 114.596 313.68 114.776 313.416 114.788C313.092 114.788 312.696 114.776 312.228 114.752L312.492 115.532C312.876 115.556 313.224 115.58 313.512 115.58C314.112 115.556 314.484 115.292 314.64 114.776C314.796 114.188 314.892 112.88 314.916 110.852H311.976V108.86H316.092C316.188 110.36 316.356 111.62 316.62 112.628C316.752 113.144 316.908 113.624 317.076 114.068C316.248 115.112 315.228 115.904 314.028 116.444L314.508 117.164C315.636 116.66 316.62 115.928 317.46 114.944C317.64 115.316 317.844 115.652 318.06 115.94C318.636 116.66 319.176 117.02 319.68 117.02C320.22 117.02 320.628 116.216 320.916 114.62L320.136 114.188C319.956 115.424 319.752 116.048 319.536 116.06C319.296 116.06 318.972 115.772 318.576 115.196C318.384 114.92 318.204 114.584 318.036 114.2C318.804 113.12 319.428 111.776 319.908 110.192L319.128 109.856C318.756 111.14 318.276 112.268 317.676 113.228C317.592 112.964 317.508 112.688 317.436 112.388C317.22 111.524 317.064 110.348 316.98 108.86H320.676V108.032H319.212L319.764 107.48C319.356 107.036 318.864 106.592 318.288 106.16Z" fill="#BC351C" fill-opacity="0.8"/>
  <defs>
    <filter id="filter0_bii_475_1141" x="-40" y="-31" width="423" height="209" filterUnits="userSpaceOnUse" color-interpolation-filters="sRGB">
      <feFlood flood-opacity="0" result="BackgroundImageFix"/>
      <feGaussianBlur in="BackgroundImageFix" stdDeviation="20"/>
      <feComposite in2="SourceAlpha" operator="in" result="effect1_backgroundBlur_475_1141"/>
      <feBlend mode="normal" in="SourceGraphic" in2="effect1_backgroundBlur_475_1141" result="shape"/>
      <feColorMatrix in="SourceAlpha" type="matrix" values="0 0 0 0 0 0 0 0 0 0 0 0 0 0 0 0 0 0 127 0" result="hardAlpha"/>
      <feOffset dx="-2" dy="-3"/>
      <feGaussianBlur stdDeviation="1.5"/>
      <feComposite in2="hardAlpha" operator="arithmetic" k2="-1" k3="1"/>
      <feColorMatrix type="matrix" values="0 0 0 0 0.925 0 0 0 0 0.717307 0 0 0 0 0.412396 0 0 0 0.9 0"/>
      <feBlend mode="normal" in2="shape" result="effect2_innerShadow_475_1141"/>
      <feColorMatrix in="SourceAlpha" type="matrix" values="0 0 0 0 0 0 0 0 0 0 0 0 0 0 0 0 0 0 127 0" result="hardAlpha"/>
      <feOffset dx="1" dy="1"/>
      <feGaussianBlur stdDeviation="3.5"/>
      <feComposite in2="hardAlpha" operator="arithmetic" k2="-1" k3="1"/>
      <feColorMatrix type="matrix" values="0 0 0 0 0.979167 0 0 0 0 0.948008 0 0 0 0 0.901649 0 0 0 0.6 0"/>
      <feBlend mode="normal" in2="effect2_innerShadow_475_1141" result="effect3_innerShadow_475_1141"/>
    </filter>
    <filter id="filter1_diii_475_1141" x="85.9951" y="0" width="174" height="42" filterUnits="userSpaceOnUse" color-interpolation-filters="sRGB">
      <feFlood flood-opacity="0" result="BackgroundImageFix"/>
      <feColorMatrix in="SourceAlpha" type="matrix" values="0 0 0 0 0 0 0 0 0 0 0 0 0 0 0 0 0 0 127 0" result="hardAlpha"/>
      <feOffset dx="1" dy="1"/>
      <feGaussianBlur stdDeviation="2"/>
      <feComposite in2="hardAlpha" operator="out"/>
      <feColorMatrix type="matrix" values="0 0 0 0 0.7875 0 0 0 0 0.457648 0 0 0 0 0.160781 0 0 0 0.16 0"/>
      <feBlend mode="normal" in2="BackgroundImageFix" result="effect1_dropShadow_475_1141"/>
      <feBlend mode="normal" in="SourceGraphic" in2="effect1_dropShadow_475_1141" result="shape"/>
      <feColorMatrix in="SourceAlpha" type="matrix" values="0 0 0 0 0 0 0 0 0 0 0 0 0 0 0 0 0 0 127 0" result="hardAlpha"/>
      <feOffset dx="-1" dy="-2"/>
      <feComposite in2="hardAlpha" operator="arithmetic" k2="-1" k3="1"/>
      <feColorMatrix type="matrix" values="0 0 0 0 0.920833 0 0 0 0 0.779498 0 0 0 0 0.556337 0 0 0 0.7 0"/>
      <feBlend mode="normal" in2="shape" result="effect2_innerShadow_475_1141"/>
      <feColorMatrix in="SourceAlpha" type="matrix" values="0 0 0 0 0 0 0 0 0 0 0 0 0 0 0 0 0 0 127 0" result="hardAlpha"/>
      <feOffset dy="5"/>
      <feGaussianBlur stdDeviation="4"/>
      <feComposite in2="hardAlpha" operator="arithmetic" k2="-1" k3="1"/>
      <feColorMatrix type="matrix" values="0 0 0 0 1 0 0 0 0 0.93 0 0 0 0 0.9 0 0 0 0.3 0"/>
      <feBlend mode="normal" in2="effect2_innerShadow_475_1141" result="effect3_innerShadow_475_1141"/>
      <feColorMatrix in="SourceAlpha" type="matrix" values="0 0 0 0 0 0 0 0 0 0 0 0 0 0 0 0 0 0 127 0" result="hardAlpha"/>
      <feOffset dy="3"/>
      <feGaussianBlur stdDeviation="1.5"/>
      <feComposite in2="hardAlpha" operator="arithmetic" k2="-1" k3="1"/>
      <feColorMatrix type="matrix" values="0 0 0 0 1 0 0 0 0 1 0 0 0 0 1 0 0 0 0.5 0"/>
      <feBlend mode="normal" in2="effect3_innerShadow_475_1141" result="effect4_innerShadow_475_1141"/>
    </filter>
    <filter id="filter2_i_475_1141" x="40.8334" y="49" width="46" height="46" filterUnits="userSpaceOnUse" color-interpolation-filters="sRGB">
      <feFlood flood-opacity="0" result="BackgroundImageFix"/>
      <feBlend mode="normal" in="SourceGraphic" in2="BackgroundImageFix" result="shape"/>
      <feColorMatrix in="SourceAlpha" type="matrix" values="0 0 0 0 0 0 0 0 0 0 0 0 0 0 0 0 0 0 127 0" result="hardAlpha"/>
      <feOffset/>
      <feGaussianBlur stdDeviation="3"/>
      <feComposite in2="hardAlpha" operator="arithmetic" k2="-1" k3="1"/>
      <feColorMatrix type="matrix" values="0 0 0 0 0.737255 0 0 0 0 0.207843 0 0 0 0 0.109804 0 0 0 0.06 0"/>
      <feBlend mode="normal" in2="shape" result="effect1_innerShadow_475_1141"/>
    </filter>
    <filter id="filter3_i_475_1141" x="148.5" y="49" width="46" height="46" filterUnits="userSpaceOnUse" color-interpolation-filters="sRGB">
      <feFlood flood-opacity="0" result="BackgroundImageFix"/>
      <feBlend mode="normal" in="SourceGraphic" in2="BackgroundImageFix" result="shape"/>
      <feColorMatrix in="SourceAlpha" type="matrix" values="0 0 0 0 0 0 0 0 0 0 0 0 0 0 0 0 0 0 127 0" result="hardAlpha"/>
      <feOffset/>
      <feGaussianBlur stdDeviation="3"/>
      <feComposite in2="hardAlpha" operator="arithmetic" k2="-1" k3="1"/>
      <feColorMatrix type="matrix" values="0 0 0 0 0.737255 0 0 0 0 0.207843 0 0 0 0 0.109804 0 0 0 0.06 0"/>
      <feBlend mode="normal" in2="shape" result="effect1_innerShadow_475_1141"/>
    </filter>
    <filter id="filter4_i_475_1141" x="256.166" y="49" width="46" height="46" filterUnits="userSpaceOnUse" color-interpolation-filters="sRGB">
      <feFlood flood-opacity="0" result="BackgroundImageFix"/>
      <feBlend mode="normal" in="SourceGraphic" in2="BackgroundImageFix" result="shape"/>
      <feColorMatrix in="SourceAlpha" type="matrix" values="0 0 0 0 0 0 0 0 0 0 0 0 0 0 0 0 0 0 127 0" result="hardAlpha"/>
      <feOffset/>
      <feGaussianBlur stdDeviation="3"/>
      <feComposite in2="hardAlpha" operator="arithmetic" k2="-1" k3="1"/>
      <feColorMatrix type="matrix" values="0 0 0 0 0.737255 0 0 0 0 0.207843 0 0 0 0 0.109804 0 0 0 0.06 0"/>
      <feBlend mode="normal" in2="shape" result="effect1_innerShadow_475_1141"/>
    </filter>
    <radialGradient id="paint0_radial_475_1141" cx="0" cy="0" r="1" gradientUnits="userSpaceOnUse" gradientTransform="translate(86.4951 17) rotate(145.008) scale(12.2066 37.1846)">
      <stop stop-color="#EFCDA5"/>
      <stop offset="0.605154" stop-color="#E1A162"/>
    </radialGradient>
    <radialGradient id="paint1_radial_475_1141" cx="0" cy="0" r="1" gradientUnits="userSpaceOnUse" gradientTransform="translate(256.495 13) rotate(-162.897) scale(6.80073 26.9324)">
      <stop offset="0.271011" stop-color="#DDA06B"/>
      <stop offset="1" stop-color="#EFCDA5"/>
    </radialGradient>
    <linearGradient id="paint2_linear_475_1141" x1="4" y1="57.5005" x2="339" y2="57.5005" gradientUnits="userSpaceOnUse">
      <stop offset="0.0657387" stop-color="#F3C48F"/>
      <stop offset="0.169486" stop-color="#F3C48F" stop-opacity="0.2"/>
      <stop offset="0.277631" stop-color="#F3C48F" stop-opacity="0.8"/>
      <stop offset="0.726061" stop-color="#F3C48F" stop-opacity="0.4"/>
      <stop offset="0.931207" stop-color="#F3C48F"/>
    </linearGradient>
    <linearGradient id="paint3_linear_475_1141" x1="135.581" y1="11.8756" x2="111.488" y2="11.8756" gradientUnits="userSpaceOnUse">
      <stop stop-color="#C55038" stop-opacity="0.6"/>
      <stop offset="1" stop-color="#C55038" stop-opacity="0"/>
    </linearGradient>
    <linearGradient id="paint4_linear_475_1141" x1="208.409" y1="11.8756" x2="232.503" y2="11.8756" gradientUnits="userSpaceOnUse">
      <stop stop-color="#C55038" stop-opacity="0.6"/>
      <stop offset="1" stop-color="#C55038" stop-opacity="0"/>
    </linearGradient>
    <linearGradient id="paint5_linear_475_1141" x1="81.6664" y1="87" x2="51.6664" y2="52.5" gradientUnits="userSpaceOnUse">
      <stop stop-color="#FCE8D6"/>
      <stop offset="1" stop-color="#FCE8D6" stop-opacity="0.5"/>
    </linearGradient>
  </defs>
</svg>
