<svg width="172" height="124" viewBox="0 0 172 124" fill="none"
    xmlns="http://www.w3.org/2000/svg">
    <g clip-path="url(#clip0_2_1278)">
        <g filter="url(#filter0_d_2_1278)">
            <g filter="url(#filter1_di_2_1278)">
                <path d="M124.021 73.9752C124.751 72.3762 126.639 71.6719 128.238 72.4022L145.031 80.0711C146.63 80.8013 147.334 82.6896 146.604 84.2886L134.968 109.767C134.384 111.046 132.873 111.61 131.594 111.025L113.644 102.828C112.364 102.243 111.801 100.733 112.385 99.4536L124.021 73.9752Z" fill="#D85D4E"/>
            </g>
            <g filter="url(#filter2_di_2_1278)">
                <path d="M124.285 73.3962C124.869 72.117 126.38 71.5535 127.659 72.1377L145.61 80.3355C146.889 80.9197 147.452 82.4303 146.868 83.7095L144.78 88.2819C144.297 89.3395 143.159 89.9356 142.015 89.7305L131.346 87.8177L122.913 81.0072C122.009 80.2767 121.714 79.0262 122.197 77.9685L124.285 73.3962Z" fill="#D85D4E"/>
                <path d="M124.575 73.5284C125.086 72.4091 126.408 71.9161 127.527 72.4273L145.478 80.6251C146.597 81.1362 147.09 82.458 146.579 83.5773L144.491 88.1497C144.068 89.0751 143.072 89.5967 142.071 89.4172L131.482 87.5188L123.113 80.7596C122.322 80.1204 122.064 79.0262 122.487 78.1008L124.575 73.5284Z" stroke="url(#paint0_linear_2_1278)" stroke-width="0.636581"/>
            </g>
            <rect x="130.541" y="81.1519" width="7.63897" height="7.63897" rx="3.81949" transform="rotate(24.5454 130.541 81.1519)" fill="#FAE3AA"/>
            <g filter="url(#filter3_d_2_1278)">
                <path d="M131.733 83.4457L132.088 85.8377L131.219 85.4406L131.077 85.7517L132.111 86.2239L131.832 86.8336L130.799 86.3614L130.656 86.6725L131.69 87.1447L131.244 88.1215L131.761 88.3575L132.207 87.3808L133.247 87.8556L133.389 87.5445L132.349 87.0697L132.628 86.46L133.668 86.9348L133.81 86.6237L132.934 86.224L134.975 84.9266L134.394 84.661L132.6 85.838L132.314 83.7113L131.733 83.4457Z" fill="#D85D4E"/>
            </g>
        </g>
        <g filter="url(#filter4_di_2_1278)">
            <path d="M72.479 84.8989C67.5353 78.0069 61.5414 68.8513 62.3646 59.9012C62.7018 56.3822 64.8579 53.0829 68.1979 51.695C70.745 50.633 73.4824 50.8612 76.0373 51.7593C79.3393 52.9208 81.8003 56.7353 85.4003 56.8187C87.0412 56.8553 88.6477 55.1774 88.6653 53.5519C88.6774 52.4783 88.242 51.3901 87.732 50.4564C86.6554 48.4836 84.8919 46.9493 83.1292 45.5927C79.768 43.0389 76.0102 41.0484 72.0055 39.7006C70.9095 39.3257 73.2717 34.9748 74.8475 35.5143C78.3484 36.6949 81.6643 38.3642 84.6951 40.472C87.532 42.4653 90.671 45.0268 91.654 48.4905C92.4583 51.3439 91.5763 54.2627 89.8921 56.6146C88.5318 58.515 86.8381 59.5801 84.8598 59.808C83.8352 59.9244 82.5468 58.9566 81.3786 58.6255C78.2123 57.726 75.6567 55.7569 72.5065 54.8196C70.804 54.3123 66.9747 54.8021 65.7777 56.4094C64.9972 57.4575 65.8377 61.1476 66.1928 62.6143C67.8207 69.3909 71.654 75.5553 75.6801 81.1698C76.4832 82.2873 73.444 86.2373 72.4847 84.9004L72.479 84.8989Z" fill="#F41B60"/>
        </g>
        <path d="M68.2461 52.0241C70.7021 50.9249 73.4982 50.8334 76.0286 51.7694C79.3307 52.9309 82.5947 55.5229 86.206 55.6093C87.4766 55.6489 88.2399 55.3662 88.5257 54.4803C88.2915 56.8238 87.0615 58.9275 84.8498 59.8117C83.7439 59.9227 82.626 59.8154 81.5605 59.4957C78.3913 58.5954 75.6556 56.6653 72.4942 55.725C70.7917 55.2177 66.966 54.8122 65.7691 56.4194C65.6672 56.5678 65.5939 56.7338 65.5531 56.909C65.5813 55.4247 65.9884 53.0463 68.2461 52.0241Z" fill="#AF0068"/>
        <g filter="url(#filter5_di_2_1278)">
            <path d="M13.7955 35.8214C14.6382 34.9373 18.6398 37.4443 18.6074 37.4747C16.6004 39.5958 15.9992 43.5012 18.5319 45.5333C18.5982 45.512 19.0247 45.6383 19.1181 45.6062C19.5047 45.4632 19.8167 45.4294 20.2208 45.3001C20.9417 45.0511 22.0006 44.8747 22.6616 44.5104C24.0616 43.7275 24.8357 42.4551 26.4179 42.0549C28.7819 41.4612 31.4492 42.2 33.5654 43.2994C36.2125 44.6674 36.9593 47.012 36.7796 49.8754C36.6868 51.4086 36.2868 52.9015 36.2068 54.4321C36.1518 55.1966 36.1816 55.9651 36.2955 56.7237C36.3874 57.2615 36.5529 57.7846 36.7875 58.2782C36.8443 58.3952 36.9104 58.5075 36.9853 58.6139C37.359 58.5306 38.0633 58.8637 38.2073 58.812C38.8164 58.5963 39.5314 58.5954 40.111 58.3085C41.3232 57.7069 41.9863 56.3175 43.3197 55.9981C45.6975 55.4321 48.1674 55.9917 50.3556 56.981C53.0611 58.1872 53.6055 59.9422 53.1082 62.7927C52.7845 64.6315 52.2132 66.4178 51.4096 68.1035C50.7596 69.4783 49.9108 70.8149 49.5949 72.3214C49.3035 73.7141 49.6132 76.2093 51.1919 76.8398C52.7211 77.4511 56.1343 76.4798 57.5986 75.9999C58.4534 75.7146 59.1519 76.1935 59.933 76.5111C60.1326 76.5917 62.4816 77.1729 61.9518 77.3528C58.7237 78.4248 55.6477 79.1436 52.2801 78.2834C49.6494 77.6116 46.1921 76.3513 45.0369 73.6657C43.7044 70.5565 46.2826 67.5358 47.3209 64.746C47.9377 63.1061 48.3321 61.3911 48.4935 59.6463C48.5759 58.7058 48.1435 57.7989 48.0849 57.7802C47.4485 57.5624 46.7547 57.5829 46.1341 57.838C43.3419 59.0238 41.3665 60.7895 38.1791 60.161C36.2943 59.7913 34.3483 59.4353 32.9814 58.0825C32.3409 57.4537 31.8804 56.6668 31.6477 55.8032C30.6379 52.0436 33.1225 48.0383 31.4712 44.3895C31.3664 44.2078 31.2396 44.0395 31.0937 43.8883C31.0524 43.8953 30.732 43.7914 30.7122 43.7861C30.0522 44.0905 29.1341 44.2385 28.473 44.5697C27.6188 44.9995 27.291 45.6576 26.4574 46.135C25.5508 46.6868 24.5586 47.0865 23.5205 47.3182C17.4794 48.4215 7.9325 42.0135 13.7955 35.8214Z" fill="#48B5FF"/>
        </g>
        <path d="M57.3925 75.4687C58.2466 75.1862 59.677 75.8613 60.4581 76.1788C60.6576 76.2594 62.4624 77.131 61.9505 77.3006C58.9363 78.2976 53.7699 78.6909 51.3662 76.8557C52.9519 77.3017 55.9894 75.9349 57.3925 75.4687Z" fill="#216BD6"/>
        <path d="M20.0399 45.1522C20.7538 44.8767 21.4426 44.5411 22.0987 44.1489C23.4987 43.366 24.8336 42.4424 26.4158 42.0422C26.6173 41.9909 26.8243 41.9532 27.0364 41.9077C28.5165 42.1599 30.1559 42.6203 31.0823 43.831C30.457 43.9041 29.5557 44.3514 28.9424 44.6622C27.1432 45.5667 23.6616 48.8507 18.5333 45.5186C19.0449 45.4376 19.5487 45.3151 20.0399 45.1522Z" fill="#216BD6"/>
        <path d="M36.9777 58.5876C37.3513 58.5043 37.7114 58.4263 37.8555 58.3747C38.4618 58.1482 39.054 57.8861 39.6287 57.5895C40.8409 56.9879 41.9786 56.2912 43.312 55.9717C43.532 55.9194 43.7559 55.8862 43.9778 55.8494C45.5431 55.9079 47.1102 56.4571 48.0641 57.7353C47.5021 57.865 46.9537 58.0463 46.4258 58.2769C43.6336 59.4627 41.4579 61.1055 38.2641 60.4783C36.3765 60.1079 34.3146 59.393 32.9584 58.034C34.5987 59.1352 36.9471 58.5433 36.9777 58.5876Z" fill="#216BD6"/>
        <g filter="url(#filter6_di_2_1278)">
            <path d="M17.5872 83.4319C23.8161 80.2374 31.7249 80.2572 38.4866 81.314C49.4944 83.045 59.5623 88.5394 66.9527 96.8489L66.9659 96.8675C65.7546 97.364 64.5497 97.8142 63.3639 98.2153C56.3066 91.7296 47.5139 87.4134 38.0533 85.7908C31.7407 84.7309 24.6342 85.5037 17.5991 88.0671C16.1382 88.6021 16.6361 84.1667 17.5872 83.4319Z" fill="#F41B60"/>
        </g>
        <g filter="url(#filter7_bd_2_1278)">
            <path d="M47.4955 37.2575L44.9944 40.714C44.563 41.308 44.5431 42.1054 44.9441 42.7229C45.3451 43.3403 46.0851 43.6516 46.8083 43.507L50.967 42.6813C51.1855 42.6399 51.4091 42.7255 51.5438 42.9021L54.099 46.399C54.537 46.9938 55.2969 47.2609 56.0116 47.0715C56.7263 46.882 57.2488 46.2749 57.3267 45.5434L57.7808 41.3279C57.8032 41.0986 57.9597 40.9046 58.1799 40.8332L62.3025 39.5317C63.0082 39.3091 63.5023 38.678 63.5464 37.9428C63.5906 37.2076 63.1756 36.5195 62.5018 36.2104L58.5517 34.427C58.347 34.3297 58.2169 34.1237 58.2178 33.8985L58.2666 29.6585C58.2761 28.9226 57.8294 28.2549 57.1423 27.9782C56.4551 27.7015 55.669 27.8727 55.1637 28.4091L52.2028 31.5468C52.0468 31.7026 51.8153 31.757 51.6049 31.6874L47.5713 30.3509C46.8712 30.1183 46.1007 30.3352 45.6295 30.8974C45.1583 31.4596 45.0826 32.2525 45.4387 32.8956L47.5197 36.6474C47.6284 36.8394 47.6191 37.0755 47.4955 37.2575Z" fill="#FFE33E" fill-opacity="0.6" shape-rendering="crispEdges"/>
        </g>
        <g filter="url(#filter8_bd_2_1278)">
            <path d="M154.521 67.7606L154.703 70.6546C154.733 71.1533 155.068 71.5835 155.546 71.7383C156.025 71.8931 156.549 71.7406 156.866 71.3544L158.696 69.1377C158.791 69.021 158.947 68.9709 159.093 69.0096L161.959 69.7535C162.446 69.8792 162.96 69.695 163.253 69.2897C163.546 68.8844 163.558 68.3411 163.283 67.9215L161.697 65.4965C161.613 65.3685 161.613 65.2027 161.698 65.0756L163.296 62.6163C163.567 62.1985 163.553 61.6576 163.26 61.2525C162.967 60.8474 162.456 60.6605 161.97 60.7813L159.128 61.5234C158.977 61.5619 158.818 61.5087 158.722 61.3876L156.905 59.1234C156.591 58.7314 156.068 58.5708 155.587 58.7191C155.107 58.8674 154.769 59.2941 154.736 59.7933L154.537 62.7177C154.528 62.8677 154.431 62.9982 154.29 63.0515L151.593 64.0734C151.125 64.2501 150.814 64.6947 150.81 65.1935C150.806 65.6924 151.11 66.1437 151.576 66.3307L154.28 67.4191C154.421 67.4759 154.515 67.6096 154.521 67.7606Z" fill="#FFE33E" fill-opacity="0.3" shape-rendering="crispEdges"/>
        </g>
        <g filter="url(#filter9_df_2_1278)">
            <ellipse rx="2.82274" ry="3.12725" transform="matrix(-0.6502 -0.759763 -0.760142 0.649757 100.525 46.2903)" fill="#FFE33E" fill-opacity="0.6" shape-rendering="crispEdges"/>
        </g>
        <g filter="url(#filter10_df_2_1278)">
            <ellipse rx="3.48664" ry="3.86576" transform="matrix(-0.594366 -0.804195 -0.804556 0.593876 129.85 53.465)" fill="#48B5FF" fill-opacity="0.6" shape-rendering="crispEdges"/>
        </g>
        <g filter="url(#filter11_bd_2_1278)">
            <path d="M121.866 32.0002L123.413 36.3097C123.569 36.7437 123.986 37.0311 124.449 37.0233C125.735 37.004 128.35 36.7273 130.387 34.9599C130.768 34.6348 130.975 34.1509 130.946 33.6511C130.803 32.0273 130.213 30.4725 129.24 29.1574C129.043 28.9093 128.683 28.8623 128.429 29.0515C126.579 30.1639 124.519 30.8901 122.375 31.1861C122.189 31.2072 122.022 31.3119 121.923 31.4704C121.824 31.629 121.803 31.824 121.866 32.0002Z" fill="#F41B60" fill-opacity="0.5" shape-rendering="crispEdges"/>
        </g>
        <g filter="url(#filter12_bd_2_1278)">
            <path d="M22.6261 70.1567L24.6995 66.3299C24.8793 66.0106 24.8262 65.611 24.569 65.3475C23.2324 64.051 19.7355 62.4072 17.6035 62.1577C17.2061 62.1078 16.8087 62.2449 16.5289 62.5285C15.5242 63.6914 14.8044 65.0704 14.4255 66.5577C14.3895 66.8042 14.553 67.0365 14.7984 67.0878C16.9037 67.697 21.1316 69.6871 21.8656 70.3048C21.9803 70.4038 22.1343 70.4447 22.283 70.4158C22.4316 70.3868 22.5583 70.2912 22.6261 70.1567Z" fill="#FFE33E" fill-opacity="0.5" shape-rendering="crispEdges"/>
        </g>
        <g filter="url(#filter13_i_2_1278)">
            <path fill-rule="evenodd" clip-rule="evenodd" d="M65.5075 88.8646C65.5075 88.8646 65.0885 104.19 66.5435 106.358C67.9986 108.527 71.3433 111.065 75.4573 112.727C79.5713 114.388 89.2142 116.504 91.7639 116.53C94.3137 116.555 103.977 114.485 107.394 113.357C110.81 112.23 115.985 109.305 116.592 107.553C117.199 105.801 117.911 90.0533 117.911 90.0533L65.5075 88.8646Z" fill="#FFC914"/>
            <path fill-rule="evenodd" clip-rule="evenodd" d="M65.5075 88.8646C65.5075 88.8646 65.0885 104.19 66.5435 106.358C67.9986 108.527 71.3433 111.065 75.4573 112.727C79.5713 114.388 89.2142 116.504 91.7639 116.53C94.3137 116.555 103.977 114.485 107.394 113.357C110.81 112.23 115.985 109.305 116.592 107.553C117.199 105.801 117.911 90.0533 117.911 90.0533L65.5075 88.8646Z" fill="url(#paint1_linear_2_1278)"/>
        </g>
        <mask id="mask0_2_1278" style="mask-type:alpha" maskUnits="userSpaceOnUse" x="65" y="88" width="53" height="29">
            <path fill-rule="evenodd" clip-rule="evenodd" d="M65.5075 88.8646C65.5075 88.8646 65.0885 104.19 66.5435 106.358C67.9986 108.527 71.3433 111.065 75.4573 112.727C79.5713 114.388 89.2142 116.504 91.7639 116.53C94.3137 116.555 103.977 114.485 107.394 113.357C110.81 112.23 115.985 109.305 116.592 107.553C117.199 105.801 117.911 90.0533 117.911 90.0533L65.5075 88.8646Z" fill="white"/>
            <path fill-rule="evenodd" clip-rule="evenodd" d="M65.5075 88.8646C65.5075 88.8646 65.0885 104.19 66.5435 106.358C67.9986 108.527 71.3433 111.065 75.4573 112.727C79.5713 114.388 89.2142 116.504 91.7639 116.53C94.3137 116.555 103.977 114.485 107.394 113.357C110.81 112.23 115.985 109.305 116.592 107.553C117.199 105.801 117.911 90.0533 117.911 90.0533L65.5075 88.8646Z" stroke="white"/>
        </mask>
        <g mask="url(#mask0_2_1278)">
            <g filter="url(#filter14_f_2_1278)">
                <rect x="65.6165" y="88.8646" width="26.1455" height="29.6024" fill="#F5A901"/>
                <rect x="65.6165" y="88.8646" width="26.1455" height="29.6024" fill="url(#paint2_linear_2_1278)"/>
            </g>
            <g opacity="0.700405" filter="url(#filter15_f_2_1278)">
                <rect x="84.8239" y="96.4473" width="15.7963" height="25.3446" fill="url(#paint3_linear_2_1278)"/>
                <rect x="84.8239" y="96.4473" width="15.7963" height="25.3446" fill="url(#paint4_linear_2_1278)"/>
            </g>
            <path fill-rule="evenodd" clip-rule="evenodd" d="M91.6098 99.0486C97.1759 99.0486 118.739 91.5405 120.216 89.4608C121.693 87.3811 122.374 82.7677 120.643 80.1072C118.911 77.4466 95.6505 70.5278 91.6098 70.5781C87.569 70.6283 65.2342 77.5675 63.427 79.0838C62.9736 79.4642 62.2298 80.0787 62.0039 81.0075C61.3293 83.781 61.6689 88.1687 63.0228 89.209C64.83 90.5977 86.0436 99.0486 91.6098 99.0486Z" fill="url(#paint5_linear_2_1278)"/>
        </g>
        <g filter="url(#filter16_i_2_1278)">
            <path fill-rule="evenodd" clip-rule="evenodd" d="M91.6098 98.2441C97.1759 98.2441 118.739 90.736 120.216 88.6563C121.693 86.5765 122.374 81.9632 120.643 79.3026C118.911 76.642 95.6505 69.7232 91.6098 69.7735C87.569 69.8238 65.2342 76.7629 63.427 78.2792C62.9736 78.6596 62.2298 79.2741 62.0039 80.2029C61.3293 82.9764 61.6689 87.3642 63.0228 88.4045C64.83 89.7932 86.0436 98.2441 91.6098 98.2441Z" fill="#FFDA22"/>
        </g>
        <mask id="mask1_2_1278" style="mask-type:alpha" maskUnits="userSpaceOnUse" x="61" y="69" width="61" height="30">
            <path fill-rule="evenodd" clip-rule="evenodd" d="M91.6098 98.2441C97.1759 98.2441 118.739 90.736 120.216 88.6563C121.693 86.5765 122.374 81.9632 120.643 79.3026C118.911 76.642 95.6505 69.7232 91.6098 69.7735C87.569 69.8238 65.2342 76.7629 63.427 78.2792C62.9736 78.6596 62.2298 79.2741 62.0039 80.2029C61.3293 82.9764 61.6689 87.3642 63.0228 88.4045C64.83 89.7932 86.0436 98.2441 91.6098 98.2441Z" fill="white"/>
        </mask>
        <g mask="url(#mask1_2_1278)">
            <g opacity="0.436012" filter="url(#filter17_f_2_1278)">
                <rect x="88.2487" y="85.8585" width="6.11553" height="6.28587" rx="2.82295" fill="url(#paint6_linear_2_1278)"/>
            </g>
            <g opacity="0.640951" filter="url(#filter18_f_2_1278)">
                <path fill-rule="evenodd" clip-rule="evenodd" d="M91.7962 69.7732C91.7962 69.7732 65.2193 76.3448 66.5816 78.8004C67.9438 81.256 86.9543 87.6185 90.3411 87.6185C93.7279 87.6185 118.208 79.8457 118.895 78.8004C119.581 77.7551 91.7962 69.7732 91.7962 69.7732Z" fill="url(#paint7_linear_2_1278)"/>
            </g>
            <g filter="url(#filter19_f_2_1278)">
                <path fill-rule="evenodd" clip-rule="evenodd" d="M79.8732 85.6766C79.8732 85.6766 82.4644 85.8982 83.8503 84.7528C85.2362 83.6073 89.5526 80.8492 91.3064 80.4147C93.0603 79.9803 97.6984 77.211 100.145 76.9544C102.592 76.6979 106.095 76.8986 108.885 76.6421C111.675 76.3855 113.23 74.3586 113.23 74.3586L94.8827 74.6744C94.8827 74.6744 83.3063 78.7144 81.7307 80.4147C80.1551 82.115 76.8994 83.7716 77.4575 84.7241C78.0156 85.6766 79.8732 85.6766 79.8732 85.6766Z" fill="#FF6A00"/>
            </g>
            <g opacity="0.71596" filter="url(#filter20_f_2_1278)">
                <path fill-rule="evenodd" clip-rule="evenodd" d="M90.373 98.8628V88.7244C90.373 88.7244 78.8187 85.418 73.0276 83.2601C67.2365 81.1022 61.6674 78.028 61.6674 78.028L61.6674 88.7244C61.6674 88.7244 67.7885 92.3836 73.0276 94.1076C78.2667 95.8316 90.373 98.8628 90.373 98.8628Z" fill="url(#paint8_linear_2_1278)"/>
            </g>
        </g>
        <mask id="mask2_2_1278" style="mask-type:alpha" maskUnits="userSpaceOnUse" x="61" y="69" width="61" height="30">
            <path fill-rule="evenodd" clip-rule="evenodd" d="M91.6098 98.244C97.1759 98.244 119.281 91.2413 120.643 88.4045C122.004 85.5676 122.575 82.3351 120.643 79.3026C118.71 76.2701 95.6505 69.7232 91.6098 69.7735C87.569 69.8238 65.2342 76.7629 63.427 78.2792C62.9736 78.6596 62.2298 79.2741 62.0039 80.2029C61.3293 82.9764 61.6689 87.3641 63.0228 88.4045C64.83 89.7932 86.0436 98.244 91.6098 98.244Z" fill="white"/>
        </mask>
        <g mask="url(#mask2_2_1278)">
            <g opacity="0.112258" filter="url(#filter21_f_2_1278)">
                <path fill-rule="evenodd" clip-rule="evenodd" d="M90.9721 88.4454C91.3788 89.9441 100.202 87.9034 108.336 85.7125C115.412 83.8064 120.983 80.0307 120.652 79.5113C119.94 78.3948 90.2116 85.643 90.9721 88.4454Z" fill="white"/>
            </g>
        </g>
        <g filter="url(#filter22_f_2_1278)">
            <path fill-rule="evenodd" clip-rule="evenodd" d="M73.3719 80.6158C73.3719 80.6158 71.7854 81.3817 71.1022 82.784C70.4189 84.1862 70.7739 89.7264 71.1022 93.664C71.4305 97.6017 72.5127 110.222 72.8276 111.158C73.1425 112.095 77.5152 113.152 79.2816 114.232C79.7213 114.5 80.1894 114.801 80.5909 114.915C81.8024 115.257 82.6966 114.892 82.6966 114.807C82.6966 114.796 81.5128 114.382 81.485 114.075C81.2971 112.007 79.6594 86.7362 79.84 85.7738C80.0355 84.7323 81.548 84.1982 81.548 84.1982L73.3719 80.6158Z" fill="#D01500" fill-opacity="0.225197"/>
        </g>
        <path fill-rule="evenodd" clip-rule="evenodd" d="M72.9361 80.6158C72.9361 80.6158 71.3496 81.3817 70.6664 82.784C69.9831 84.1862 70.3381 89.7264 70.6664 93.664C70.9947 97.6017 72.0769 110.222 72.3918 111.158C72.7068 112.095 76.9228 112.673 78.6892 113.753C79.1289 114.021 79.8539 114.53 80.2553 114.644C81.4668 114.986 82.2981 114.761 82.2981 114.761C82.2981 114.761 81.077 114.382 81.0492 114.075C80.8613 112.007 79.2236 86.7362 79.4042 85.7738C79.5997 84.7323 81.1122 84.1982 81.1122 84.1982L72.9361 80.6158Z" fill="#FD8600"/>
        <path fill-rule="evenodd" clip-rule="evenodd" d="M71.8467 80.4147C71.8467 80.4147 70.2603 81.1805 69.577 82.5828C68.8938 83.985 69.2487 89.5252 69.577 93.4629C69.8846 97.1517 71.6078 109.367 71.8244 110.896C71.8388 110.998 71.8912 111.089 71.9738 111.15C72.3491 111.427 73.5474 112.265 75.4573 113.149C77.7963 114.233 80.2554 114.644 80.2554 114.644C80.2554 114.644 78.1193 86.6142 78.3149 85.5727C78.5104 84.5311 80.0228 83.997 80.0228 83.997L71.8467 80.4147Z" fill="url(#paint9_linear_2_1278)"/>
        <path fill-rule="evenodd" clip-rule="evenodd" d="M90.1431 80.8685C90.1431 80.8685 102.636 84.7915 103.237 85.7125C103.839 86.6335 100.982 114.962 100.982 114.962C100.982 114.962 104.696 114.271 106.611 113.498C108.527 112.726 110.882 111.484 110.882 111.484C110.882 111.484 114.574 84.5548 112.696 82.2263C110.818 79.8979 98.0401 77.3038 98.0401 77.3038L90.1431 80.8685Z" fill="#D35610" fill-opacity="0.387183"/>
        <path fill-rule="evenodd" clip-rule="evenodd" d="M88.7842 80.4147C88.7842 80.4147 102.825 84.2967 103.595 85.5613C104.366 86.8259 101.745 114.761 101.745 114.761C101.745 114.761 105.459 114.07 107.374 113.297C109.289 112.524 111.644 111.283 111.644 111.283C111.644 111.283 115.336 84.3536 113.458 82.0252C111.581 79.6968 97.0839 76.3855 97.0839 76.3855L88.7842 80.4147Z" fill="url(#paint10_linear_2_1278)"/>
        <path fill-rule="evenodd" clip-rule="evenodd" d="M89.3009 79.9802C89.3009 79.9802 99.2173 82.7105 101.665 83.5721C103.12 84.0843 104.207 84.0791 104.695 84.9795C105.182 85.8799 104.837 86.6958 104.695 89.7249C104.47 94.5112 102.492 114.644 102.492 114.644C102.492 114.644 106.371 113.815 108.286 113.042C110.202 112.269 112.544 110.987 112.544 110.987C112.544 110.987 116.208 83.9513 114.33 81.6229C112.452 79.2944 98.8192 76.3934 98.8192 76.3934L89.3009 79.9802Z" fill="#FC7600"/>
        <mask id="mask3_2_1278" style="mask-type:alpha" maskUnits="userSpaceOnUse" x="89" y="76" width="26" height="39">
            <path fill-rule="evenodd" clip-rule="evenodd" d="M89.3009 79.9802C89.3009 79.9802 99.2173 82.7105 101.665 83.5721C103.12 84.0843 104.207 84.0791 104.695 84.9795C105.182 85.8799 104.837 86.6958 104.695 89.7249C104.47 94.5112 102.492 114.644 102.492 114.644C102.492 114.644 106.371 113.815 108.286 113.042C110.202 112.269 112.544 110.987 112.544 110.987C112.544 110.987 116.208 83.9513 114.33 81.6229C112.452 79.2944 98.8192 76.3934 98.8192 76.3934L89.3009 79.9802Z" fill="white"/>
        </mask>
        <g mask="url(#mask3_2_1278)">
            <g filter="url(#filter23_f_2_1278)">
                <path fill-rule="evenodd" clip-rule="evenodd" d="M89.3009 80.1077L98.7847 82.9532L105.074 78.2972L97.1875 76.3934L89.3009 80.1077Z" fill="url(#paint11_linear_2_1278)"/>
            </g>
            <g filter="url(#filter24_f_2_1278)">
                <path fill-rule="evenodd" clip-rule="evenodd" d="M101.707 83.4687C101.707 83.4687 103.874 84.3914 104.207 85.1887C104.54 85.986 104.207 89.5252 104.207 89.5252L114.963 85.6766C114.963 85.6766 114.985 82.6329 114.596 81.9121C114.207 81.1913 112.369 79.9802 112.369 79.9802L101.707 83.4687Z" fill="url(#paint12_linear_2_1278)" style="mix-blend-mode:soft-light"/>
            </g>
        </g>
        <g opacity="0.511323" filter="url(#filter25_f_2_1278)">
            <path fill-rule="evenodd" clip-rule="evenodd" d="M70.276 80.9683C70.276 80.9683 67.5444 82.7044 68.0891 83.8862C68.6338 85.0679 71.95 88.0517 75.2617 88.5688C78.5734 89.0858 80.5881 87.2463 84.1287 84.724C87.6692 82.2017 88.6635 81.778 89.4033 80.1435C90.143 78.5089 79.245 78.2792 76.0202 78.8675C72.7953 79.4559 70.276 80.9683 70.276 80.9683Z" fill="url(#paint13_linear_2_1278)"/>
        </g>
        <path fill-rule="evenodd" clip-rule="evenodd" d="M87.4652 72.9642C87.4652 72.9642 77.7055 76.5866 76.4074 75.8394C75.1092 75.0922 77.3939 71.0741 77.3939 71.0741C77.3939 71.0741 74.6072 75.7158 75.8304 78.2803C77.0537 80.8447 80.0166 83.1509 82.0077 83.1509C83.9988 83.1509 90.4549 77.5727 90.8626 76.7313C91.2703 75.8899 91.3414 73.2964 91.3414 73.2964C91.3414 73.2964 89.7448 73.6101 88.7842 72.9642C87.8236 72.3183 83.2697 68.3403 83.2697 68.3403C83.2697 68.3403 87.4652 72.9642 87.4652 72.9642Z" fill="url(#paint14_linear_2_1278)"/>
        <path fill-rule="evenodd" clip-rule="evenodd" d="M78.5103 84.5311C78.5103 84.5311 69.7728 81.7445 68.1306 79.9065C66.4884 78.0685 64.5782 67.4275 67.4705 64.597C70.3627 61.7666 73.6629 62.633 75.8392 63.3072C78.0156 63.9813 82.2116 66.1221 84.0323 67.1799C84.4297 67.4109 83.4714 67.8763 83.4427 68.0223C83.3837 68.3221 81.1225 67.4857 81.1225 67.4857C81.1225 67.4857 76.8614 69.5705 76.3769 71.541C75.8923 73.5115 75.355 80.7665 78.5103 82.1653C81.6656 83.5641 78.5103 84.5311 78.5103 84.5311Z" fill="url(#paint15_linear_2_1278)"/>
        <path fill-rule="evenodd" clip-rule="evenodd" d="M78.5103 84.5311C78.5103 84.5311 69.7728 81.7445 68.1306 79.9065C66.4884 78.0685 64.5782 67.4275 67.4705 64.597C70.3627 61.7666 73.6629 62.633 75.8392 63.3072C78.0156 63.9813 82.2116 66.1221 84.0323 67.1799C84.4297 67.4109 83.4714 67.8763 83.4427 68.0223C83.3837 68.3221 81.1225 67.4857 81.1225 67.4857C81.1225 67.4857 76.8614 69.5705 76.3769 71.541C75.8923 73.5115 75.355 80.7665 78.5103 82.1653C81.6656 83.5641 78.5103 84.5311 78.5103 84.5311Z" fill="url(#paint16_linear_2_1278)"/>
        <path fill-rule="evenodd" clip-rule="evenodd" d="M91.0664 73.9112C91.0664 73.9112 87.886 73.4301 86.3403 72.1459C84.7946 70.8618 83.7126 68.8186 82.2608 68.8186C80.809 68.8186 78.3212 69.1155 77.2784 72.4806C76.2356 75.8457 77.4759 80.7338 79.8943 81.6485C82.3128 82.5632 90.2278 76.0968 90.8626 75.5772C91.4974 75.0575 91.7609 74.8316 91.7609 74.8316L91.1635 79.2312C91.1635 79.2312 86.3919 82.6035 85.0766 83.1432C83.7613 83.6829 81.9304 85.7395 77.9275 84.1045C73.9245 82.4694 73.98 75.3735 74.2969 73.9271C74.6138 72.4806 75.7967 67.5967 79.411 66.7901C83.0253 65.9835 84.5363 67.4989 85.0766 68.0531C85.4566 68.4429 85.7303 68.8597 86.631 69.5853C87.0109 69.8913 88.6441 70.611 89.1677 71.1591C89.6515 71.6655 90.7895 72.0787 91.0664 72.4806C91.4633 73.0564 91.0664 73.9112 91.0664 73.9112Z" fill="url(#paint17_linear_2_1278)"/>
        <path fill-rule="evenodd" clip-rule="evenodd" d="M96.8607 70.6356C96.8607 70.6356 100.705 71.6471 103.122 70.6356C105.538 69.6241 105.262 64.7252 105.262 64.0383C105.262 63.3514 108.265 60.3147 109.853 60.3147C111.442 60.3147 114.528 60.6268 114.528 62.6082C114.528 64.5895 115.026 71.7429 113.03 73.2838C111.033 74.8246 109.655 76.2189 106.595 75.7456C103.535 75.2723 97.7616 74.3586 97.7616 74.3586L96.8607 70.6356Z" fill="url(#paint18_linear_2_1278)"/>
        <mask id="mask4_2_1278" style="mask-type:alpha" maskUnits="userSpaceOnUse" x="96" y="60" width="19" height="16">
            <path fill-rule="evenodd" clip-rule="evenodd" d="M96.8607 70.6356C96.8607 70.6356 100.705 71.6471 103.122 70.6356C105.538 69.6241 105.262 64.7252 105.262 64.0383C105.262 63.3514 108.265 60.3147 109.853 60.3147C111.442 60.3147 114.528 60.6268 114.528 62.6082C114.528 64.5895 115.026 71.7429 113.03 73.2838C111.033 74.8246 109.655 76.2189 106.595 75.7456C103.535 75.2723 97.7616 74.3586 97.7616 74.3586L96.8607 70.6356Z" fill="white"/>
        </mask>
        <g mask="url(#mask4_2_1278)">
            <path fill-rule="evenodd" clip-rule="evenodd" d="M104.657 68.0771C105.885 69.0309 107.925 69.0038 110.578 68.3404C113.23 67.6769 115.819 65.0175 114.583 63.4206C113.347 61.8237 112.642 60.6596 109.779 61.2416C106.915 61.8237 104.145 63.9672 104.12 64.9539C104.095 65.9407 103.428 67.1232 104.657 68.0771Z" fill="url(#paint19_linear_2_1278)"/>
            <path fill-rule="evenodd" clip-rule="evenodd" d="M104.657 68.0771C105.885 69.0309 107.925 69.0038 110.578 68.3404C113.23 67.6769 115.819 65.0175 114.583 63.4206C113.347 61.8237 112.642 60.6596 109.779 61.2416C106.915 61.8237 104.145 63.9672 104.12 64.9539C104.095 65.9407 103.428 67.1232 104.657 68.0771Z" fill="url(#paint20_linear_2_1278)"/>
        </g>
        <path fill-rule="evenodd" clip-rule="evenodd" d="M92.2998 67.8375C92.2998 67.8375 95.6191 56.5302 99.5387 56.5302C103.458 56.5302 104.648 58.3979 106.346 58.8219C108.044 59.246 112.914 58.8037 114.405 59.8828C115.896 60.9619 115.974 65.9805 115.849 68.6071C115.725 71.2336 115.057 74.1875 113.046 75.5253C111.034 76.8631 105.496 76.7538 103.204 76.1917C100.912 75.6297 97.9591 75.6297 97.9591 75.6297L97.1875 74.1481C97.1875 74.1481 97.7806 73.4866 101.141 73.6031C104.5 73.7196 107.482 74.7387 109.097 74.3843C110.712 74.03 112.711 72.8649 113.046 70.9267C113.381 68.9885 114.366 64.3008 112.814 62.5346C111.262 60.7684 108.614 61.7491 107.48 62.5346C106.346 63.32 101.778 67.6769 100.846 68.6071C99.9129 69.5372 98.5213 71.2277 98.5213 71.2277L92.2998 67.8375Z" fill="url(#paint21_linear_2_1278)"/>
        <path fill-rule="evenodd" clip-rule="evenodd" d="M92.2998 67.8375C92.2998 67.8375 95.6191 56.5302 99.5387 56.5302C103.458 56.5302 104.648 58.3979 106.346 58.8219C108.044 59.246 112.914 58.8037 114.405 59.8828C115.896 60.9619 115.974 65.9805 115.849 68.6071C115.725 71.2336 115.057 74.1875 113.046 75.5253C111.034 76.8631 105.496 76.7538 103.204 76.1917C100.912 75.6297 97.9591 75.6297 97.9591 75.6297L97.1875 74.1481C97.1875 74.1481 97.7806 73.4866 101.141 73.6031C104.5 73.7196 107.482 74.7387 109.097 74.3843C110.712 74.03 112.711 72.8649 113.046 70.9267C113.381 68.9885 114.366 64.3008 112.814 62.5346C111.262 60.7684 108.614 61.7491 107.48 62.5346C106.346 63.32 101.778 67.6769 100.846 68.6071C99.9129 69.5372 98.5213 71.2277 98.5213 71.2277L92.2998 67.8375Z" fill="url(#paint22_linear_2_1278)"/>
        <mask id="mask5_2_1278" style="mask-type:alpha" maskUnits="userSpaceOnUse" x="92" y="56" width="24" height="21">
            <path fill-rule="evenodd" clip-rule="evenodd" d="M92.2998 67.8375C92.2998 67.8375 95.6191 56.5302 99.5387 56.5302C103.458 56.5302 104.648 58.3979 106.346 58.8219C108.044 59.246 112.914 58.8037 114.405 59.8828C115.896 60.9619 115.974 65.9805 115.849 68.6071C115.725 71.2336 115.057 74.1875 113.046 75.5253C111.034 76.8631 105.496 76.7538 103.204 76.1917C100.912 75.6297 97.9591 75.6297 97.9591 75.6297L97.1875 74.1481C97.1875 74.1481 97.7806 73.4866 101.141 73.6031C104.5 73.7196 107.482 74.7387 109.097 74.3843C110.712 74.03 112.711 72.8649 113.046 70.9267C113.381 68.9885 114.366 64.3008 112.814 62.5346C111.262 60.7684 108.614 61.7491 107.48 62.5346C106.346 63.32 101.778 67.6769 100.846 68.6071C99.9129 69.5372 98.5213 71.2277 98.5213 71.2277L92.2998 67.8375Z" fill="white"/>
            <path fill-rule="evenodd" clip-rule="evenodd" d="M92.2998 67.8375C92.2998 67.8375 95.6191 56.5302 99.5387 56.5302C103.458 56.5302 104.648 58.3979 106.346 58.8219C108.044 59.246 112.914 58.8037 114.405 59.8828C115.896 60.9619 115.974 65.9805 115.849 68.6071C115.725 71.2336 115.057 74.1875 113.046 75.5253C111.034 76.8631 105.496 76.7538 103.204 76.1917C100.912 75.6297 97.9591 75.6297 97.9591 75.6297L97.1875 74.1481C97.1875 74.1481 97.7806 73.4866 101.141 73.6031C104.5 73.7196 107.482 74.7387 109.097 74.3843C110.712 74.03 112.711 72.8649 113.046 70.9267C113.381 68.9885 114.366 64.3008 112.814 62.5346C111.262 60.7684 108.614 61.7491 107.48 62.5346C106.346 63.32 101.778 67.6769 100.846 68.6071C99.9129 69.5372 98.5213 71.2277 98.5213 71.2277L92.2998 67.8375Z" stroke="white"/>
        </mask>
        <g mask="url(#mask5_2_1278)">
            <path fill-rule="evenodd" clip-rule="evenodd" d="M97.7616 69.9744C97.7616 69.9744 103.249 63.469 105.733 61.697C108.218 59.9249 109.081 59.8328 111.568 59.486C114.055 59.1393 114.484 59.9511 114.95 60.4884C115.415 61.0256 116.519 66.1361 116.519 67.2545C116.519 68.373 115.362 73.277 114.037 74.775C112.712 76.273 111.588 76.3616 110.179 76.4742C108.771 76.5867 106.729 76.7879 104.9 76.4742C103.07 76.1605 98.7724 75.6413 98.7724 75.6413C98.7724 75.6413 96.4194 74.3826 97.856 73.7196C99.2925 73.0566 100.971 73.7196 102.936 73.7196C104.902 73.7196 106.464 74.141 108.826 73.7196C111.188 73.2982 112.671 72.8746 113.046 70.9267C113.42 68.9788 113.994 64.5627 113.046 62.7739C112.097 60.9851 108.486 61.8235 105.885 63.9939C103.284 66.1643 98.5212 71.2278 98.5212 71.2278L97.7616 69.9744Z" fill="url(#paint23_linear_2_1278)"/>
        </g>
        <g filter="url(#filter26_dd_2_1278)">
            <path fill-rule="evenodd" clip-rule="evenodd" d="M86.9447 69.7869C86.9447 69.7869 87.9275 70.5227 88.3435 70.7534C90.1643 71.7635 91.0664 72.2342 91.0664 72.6156C91.0664 73.059 91.0664 78.2105 91.0664 78.5489C91.0664 78.8872 91.0191 79.2446 90.9078 79.3578C90.7964 79.4711 90.5418 79.6733 90.5418 79.6733C90.5418 79.6733 99.1758 77.0927 99.1758 76.367C99.1758 75.6412 98.8581 70.4991 97.9374 69.7203C97.0167 68.9416 94.4213 68.0732 92.6268 67.7215C90.8323 67.3699 86.9447 69.7869 86.9447 69.7869Z" fill="url(#paint24_linear_2_1278)"/>
        </g>
        <g filter="url(#filter27_f_2_1278)">
            <path fill-rule="evenodd" clip-rule="evenodd" d="M91.0176 75.6412L87.4652 77.9983L89.8301 80.4147L91.3414 79.299L91.0176 75.6412Z" fill="url(#paint25_linear_2_1278)"/>
        </g>
        <g filter="url(#filter28_f_2_1278)">
            <path fill-rule="evenodd" clip-rule="evenodd" d="M90.9722 76.3855L89.9553 80.0356L90.9722 79.7622V76.3855Z" fill="#FD3800"/>
        </g>
    </g>
    <defs>
        <filter id="filter0_d_2_1278" x="103.688" y="64.7141" width="51.8767" height="56.2812" filterUnits="userSpaceOnUse" color-interpolation-filters="sRGB">
            <feFlood flood-opacity="0" result="BackgroundImageFix"/>
            <feColorMatrix in="SourceAlpha" type="matrix" values="0 0 0 0 0 0 0 0 0 0 0 0 0 0 0 0 0 0 127 0" result="hardAlpha"/>
            <feOffset dy="1.27316"/>
            <feGaussianBlur stdDeviation="3.81949"/>
            <feComposite in2="hardAlpha" operator="out"/>
            <feColorMatrix type="matrix" values="0 0 0 0 0 0 0 0 0 0 0 0 0 0 0 0 0 0 0.08 0"/>
            <feBlend mode="normal" in2="BackgroundImageFix" result="effect1_dropShadow_2_1278"/>
            <feBlend mode="normal" in="SourceGraphic" in2="effect1_dropShadow_2_1278" result="shape"/>
        </filter>
        <filter id="filter1_di_2_1278" x="104.515" y="65.748" width="50.0157" height="54.4203" filterUnits="userSpaceOnUse" color-interpolation-filters="sRGB">
            <feFlood flood-opacity="0" result="BackgroundImageFix"/>
            <feColorMatrix in="SourceAlpha" type="matrix" values="0 0 0 0 0 0 0 0 0 0 0 0 0 0 0 0 0 0 127 0" result="hardAlpha"/>
            <feOffset dy="1.27316"/>
            <feGaussianBlur stdDeviation="3.81949"/>
            <feComposite in2="hardAlpha" operator="out"/>
            <feColorMatrix type="matrix" values="0 0 0 0 0 0 0 0 0 0 0 0 0 0 0 0 0 0 0.12 0"/>
            <feBlend mode="normal" in2="BackgroundImageFix" result="effect1_dropShadow_2_1278"/>
            <feBlend mode="normal" in="SourceGraphic" in2="effect1_dropShadow_2_1278" result="shape"/>
            <feColorMatrix in="SourceAlpha" type="matrix" values="0 0 0 0 0 0 0 0 0 0 0 0 0 0 0 0 0 0 127 0" result="hardAlpha"/>
            <feOffset/>
            <feGaussianBlur stdDeviation="1.27316"/>
            <feComposite in2="hardAlpha" operator="arithmetic" k2="-1" k3="1"/>
            <feColorMatrix type="matrix" values="0 0 0 0 0.964706 0 0 0 0 0.858824 0 0 0 0 0.690196 0 0 0 0.5 0"/>
            <feBlend mode="normal" in2="shape" result="effect2_innerShadow_2_1278"/>
        </filter>
        <filter id="filter2_di_2_1278" x="114.328" y="65.5412" width="40.4103" height="33.1416" filterUnits="userSpaceOnUse" color-interpolation-filters="sRGB">
            <feFlood flood-opacity="0" result="BackgroundImageFix"/>
            <feColorMatrix in="SourceAlpha" type="matrix" values="0 0 0 0 0 0 0 0 0 0 0 0 0 0 0 0 0 0 127 0" result="hardAlpha"/>
            <feOffset dy="1.27316"/>
            <feGaussianBlur stdDeviation="3.81949"/>
            <feComposite in2="hardAlpha" operator="out"/>
            <feColorMatrix type="matrix" values="0 0 0 0 0 0 0 0 0 0 0 0 0 0 0 0 0 0 0.12 0"/>
            <feBlend mode="normal" in2="BackgroundImageFix" result="effect1_dropShadow_2_1278"/>
            <feBlend mode="normal" in="SourceGraphic" in2="effect1_dropShadow_2_1278" result="shape"/>
            <feColorMatrix in="SourceAlpha" type="matrix" values="0 0 0 0 0 0 0 0 0 0 0 0 0 0 0 0 0 0 127 0" result="hardAlpha"/>
            <feOffset/>
            <feGaussianBlur stdDeviation="1.27316"/>
            <feComposite in2="hardAlpha" operator="arithmetic" k2="-1" k3="1"/>
            <feColorMatrix type="matrix" values="0 0 0 0 0.964706 0 0 0 0 0.858824 0 0 0 0 0.690196 0 0 0 0.5 0"/>
            <feBlend mode="normal" in2="shape" result="effect2_innerShadow_2_1278"/>
        </filter>
        <filter id="filter3_d_2_1278" x="129.702" y="83.1274" width="5.59189" height="6.18503" filterUnits="userSpaceOnUse" color-interpolation-filters="sRGB">
            <feFlood flood-opacity="0" result="BackgroundImageFix"/>
            <feColorMatrix in="SourceAlpha" type="matrix" values="0 0 0 0 0 0 0 0 0 0 0 0 0 0 0 0 0 0 127 0" result="hardAlpha"/>
            <feOffset dx="-0.31829" dy="0.31829"/>
            <feGaussianBlur stdDeviation="0.31829"/>
            <feComposite in2="hardAlpha" operator="out"/>
            <feColorMatrix type="matrix" values="0 0 0 0 1 0 0 0 0 0.635294 0 0 0 0 0 0 0 0 0.2 0"/>
            <feBlend mode="normal" in2="BackgroundImageFix" result="effect1_dropShadow_2_1278"/>
            <feBlend mode="normal" in="SourceGraphic" in2="effect1_dropShadow_2_1278" result="shape"/>
        </filter>
        <filter id="filter4_di_2_1278" x="42.2882" y="15.4681" width="69.6667" height="89.7052" filterUnits="userSpaceOnUse" color-interpolation-filters="sRGB">
            <feFlood flood-opacity="0" result="BackgroundImageFix"/>
            <feColorMatrix in="SourceAlpha" type="matrix" values="0 0 0 0 0 0 0 0 0 0 0 0 0 0 0 0 0 0 127 0" result="hardAlpha"/>
            <feOffset/>
            <feGaussianBlur stdDeviation="10"/>
            <feComposite in2="hardAlpha" operator="out"/>
            <feColorMatrix type="matrix" values="0 0 0 0 0.8875 0 0 0 0 0.0517709 0 0 0 0 0.317509 0 0 0 0.5 0"/>
            <feBlend mode="normal" in2="BackgroundImageFix" result="effect1_dropShadow_2_1278"/>
            <feBlend mode="normal" in="SourceGraphic" in2="effect1_dropShadow_2_1278" result="shape"/>
            <feColorMatrix in="SourceAlpha" type="matrix" values="0 0 0 0 0 0 0 0 0 0 0 0 0 0 0 0 0 0 127 0" result="hardAlpha"/>
            <feOffset/>
            <feGaussianBlur stdDeviation="2.5"/>
            <feComposite in2="hardAlpha" operator="arithmetic" k2="-1" k3="1"/>
            <feColorMatrix type="matrix" values="0 0 0 0 1 0 0 0 0 1 0 0 0 0 1 0 0 0 0.5 0"/>
            <feBlend mode="normal" in2="shape" result="effect2_innerShadow_2_1278"/>
        </filter>
        <filter id="filter5_di_2_1278" x="-8.03796" y="15.6327" width="90.0674" height="83.032" filterUnits="userSpaceOnUse" color-interpolation-filters="sRGB">
            <feFlood flood-opacity="0" result="BackgroundImageFix"/>
            <feColorMatrix in="SourceAlpha" type="matrix" values="0 0 0 0 0 0 0 0 0 0 0 0 0 0 0 0 0 0 127 0" result="hardAlpha"/>
            <feOffset/>
            <feGaussianBlur stdDeviation="10"/>
            <feComposite in2="hardAlpha" operator="out"/>
            <feColorMatrix type="matrix" values="0 0 0 0 0.171771 0 0 0 0 0.550925 0 0 0 0 0.808333 0 0 0 0.5 0"/>
            <feBlend mode="normal" in2="BackgroundImageFix" result="effect1_dropShadow_2_1278"/>
            <feBlend mode="normal" in="SourceGraphic" in2="effect1_dropShadow_2_1278" result="shape"/>
            <feColorMatrix in="SourceAlpha" type="matrix" values="0 0 0 0 0 0 0 0 0 0 0 0 0 0 0 0 0 0 127 0" result="hardAlpha"/>
            <feOffset/>
            <feGaussianBlur stdDeviation="2.5"/>
            <feComposite in2="hardAlpha" operator="arithmetic" k2="-1" k3="1"/>
            <feColorMatrix type="matrix" values="0 0 0 0 1 0 0 0 0 1 0 0 0 0 1 0 0 0 0.5 0"/>
            <feBlend mode="normal" in2="shape" result="effect2_innerShadow_2_1278"/>
        </filter>
        <filter id="filter6_di_2_1278" x="-3.32031" y="60.6771" width="90.2861" height="57.5382" filterUnits="userSpaceOnUse" color-interpolation-filters="sRGB">
            <feFlood flood-opacity="0" result="BackgroundImageFix"/>
            <feColorMatrix in="SourceAlpha" type="matrix" values="0 0 0 0 0 0 0 0 0 0 0 0 0 0 0 0 0 0 127 0" result="hardAlpha"/>
            <feOffset/>
            <feGaussianBlur stdDeviation="10"/>
            <feComposite in2="hardAlpha" operator="out"/>
            <feColorMatrix type="matrix" values="0 0 0 0 0.8875 0 0 0 0 0.0517709 0 0 0 0 0.317509 0 0 0 0.5 0"/>
            <feBlend mode="normal" in2="BackgroundImageFix" result="effect1_dropShadow_2_1278"/>
            <feBlend mode="normal" in="SourceGraphic" in2="effect1_dropShadow_2_1278" result="shape"/>
            <feColorMatrix in="SourceAlpha" type="matrix" values="0 0 0 0 0 0 0 0 0 0 0 0 0 0 0 0 0 0 127 0" result="hardAlpha"/>
            <feOffset/>
            <feGaussianBlur stdDeviation="2.5"/>
            <feComposite in2="hardAlpha" operator="arithmetic" k2="-1" k3="1"/>
            <feColorMatrix type="matrix" values="0 0 0 0 1 0 0 0 0 1 0 0 0 0 1 0 0 0 0.5 0"/>
            <feBlend mode="normal" in2="shape" result="effect2_innerShadow_2_1278"/>
        </filter>
        <filter id="filter7_bd_2_1278" x="24.6565" y="7.84741" width="58.8932" height="59.2842" filterUnits="userSpaceOnUse" color-interpolation-filters="sRGB">
            <feFlood flood-opacity="0" result="BackgroundImageFix"/>
            <feGaussianBlur in="BackgroundImage" stdDeviation="4"/>
            <feComposite in2="SourceAlpha" operator="in" result="effect1_backgroundBlur_2_1278"/>
            <feColorMatrix in="SourceAlpha" type="matrix" values="0 0 0 0 0 0 0 0 0 0 0 0 0 0 0 0 0 0 127 0" result="hardAlpha"/>
            <feOffset/>
            <feGaussianBlur stdDeviation="10"/>
            <feComposite in2="hardAlpha" operator="out"/>
            <feColorMatrix type="matrix" values="0 0 0 0 1 0 0 0 0 0.635294 0 0 0 0 0 0 0 0 0.5 0"/>
            <feBlend mode="normal" in2="effect1_backgroundBlur_2_1278" result="effect2_dropShadow_2_1278"/>
            <feBlend mode="normal" in="SourceGraphic" in2="effect2_dropShadow_2_1278" result="shape"/>
        </filter>
        <filter id="filter8_bd_2_1278" x="130.81" y="38.6646" width="52.6802" height="53.1334" filterUnits="userSpaceOnUse" color-interpolation-filters="sRGB">
            <feFlood flood-opacity="0" result="BackgroundImageFix"/>
            <feGaussianBlur in="BackgroundImage" stdDeviation="4"/>
            <feComposite in2="SourceAlpha" operator="in" result="effect1_backgroundBlur_2_1278"/>
            <feColorMatrix in="SourceAlpha" type="matrix" values="0 0 0 0 0 0 0 0 0 0 0 0 0 0 0 0 0 0 127 0" result="hardAlpha"/>
            <feOffset/>
            <feGaussianBlur stdDeviation="10"/>
            <feComposite in2="hardAlpha" operator="out"/>
            <feColorMatrix type="matrix" values="0 0 0 0 1 0 0 0 0 0.635294 0 0 0 0 0 0 0 0 0.5 0"/>
            <feBlend mode="normal" in2="effect1_backgroundBlur_2_1278" result="effect2_dropShadow_2_1278"/>
            <feBlend mode="normal" in="SourceGraphic" in2="effect2_dropShadow_2_1278" result="shape"/>
        </filter>
        <filter id="filter9_df_2_1278" x="77.5214" y="23.3359" width="46.0067" height="45.9087" filterUnits="userSpaceOnUse" color-interpolation-filters="sRGB">
            <feFlood flood-opacity="0" result="BackgroundImageFix"/>
            <feColorMatrix in="SourceAlpha" type="matrix" values="0 0 0 0 0 0 0 0 0 0 0 0 0 0 0 0 0 0 127 0" result="hardAlpha"/>
            <feOffset/>
            <feGaussianBlur stdDeviation="10"/>
            <feComposite in2="hardAlpha" operator="out"/>
            <feColorMatrix type="matrix" values="0 0 0 0 1 0 0 0 0 0.635294 0 0 0 0 0 0 0 0 0.5 0"/>
            <feBlend mode="normal" in2="BackgroundImageFix" result="effect1_dropShadow_2_1278"/>
            <feBlend mode="normal" in="SourceGraphic" in2="effect1_dropShadow_2_1278" result="shape"/>
            <feGaussianBlur stdDeviation="3" result="effect2_foregroundBlur_2_1278"/>
        </filter>
        <filter id="filter10_df_2_1278" x="106.112" y="29.8409" width="47.4755" height="47.248" filterUnits="userSpaceOnUse" color-interpolation-filters="sRGB">
            <feFlood flood-opacity="0" result="BackgroundImageFix"/>
            <feColorMatrix in="SourceAlpha" type="matrix" values="0 0 0 0 0 0 0 0 0 0 0 0 0 0 0 0 0 0 127 0" result="hardAlpha"/>
            <feOffset/>
            <feGaussianBlur stdDeviation="10"/>
            <feComposite in2="hardAlpha" operator="out"/>
            <feColorMatrix type="matrix" values="0 0 0 0 0.171771 0 0 0 0 0.550925 0 0 0 0 0.808333 0 0 0 0.5 0"/>
            <feBlend mode="normal" in2="BackgroundImageFix" result="effect1_dropShadow_2_1278"/>
            <feBlend mode="normal" in="SourceGraphic" in2="effect1_dropShadow_2_1278" result="shape"/>
            <feGaussianBlur stdDeviation="3" result="effect2_foregroundBlur_2_1278"/>
        </filter>
        <filter id="filter11_bd_2_1278" x="101.83" y="8.93555" width="49.1188" height="48.0879" filterUnits="userSpaceOnUse" color-interpolation-filters="sRGB">
            <feFlood flood-opacity="0" result="BackgroundImageFix"/>
            <feGaussianBlur in="BackgroundImage" stdDeviation="4"/>
            <feComposite in2="SourceAlpha" operator="in" result="effect1_backgroundBlur_2_1278"/>
            <feColorMatrix in="SourceAlpha" type="matrix" values="0 0 0 0 0 0 0 0 0 0 0 0 0 0 0 0 0 0 127 0" result="hardAlpha"/>
            <feOffset/>
            <feGaussianBlur stdDeviation="10"/>
            <feComposite in2="hardAlpha" operator="out"/>
            <feColorMatrix type="matrix" values="0 0 0 0 0.8875 0 0 0 0 0.0517709 0 0 0 0 0.317509 0 0 0 0.5 0"/>
            <feBlend mode="normal" in2="effect1_backgroundBlur_2_1278" result="effect2_dropShadow_2_1278"/>
            <feBlend mode="normal" in="SourceGraphic" in2="effect2_dropShadow_2_1278" result="shape"/>
        </filter>
        <filter id="filter12_bd_2_1278" x="-5.57947" y="42.1476" width="50.3848" height="48.2772" filterUnits="userSpaceOnUse" color-interpolation-filters="sRGB">
            <feFlood flood-opacity="0" result="BackgroundImageFix"/>
            <feGaussianBlur in="BackgroundImage" stdDeviation="4"/>
            <feComposite in2="SourceAlpha" operator="in" result="effect1_backgroundBlur_2_1278"/>
            <feColorMatrix in="SourceAlpha" type="matrix" values="0 0 0 0 0 0 0 0 0 0 0 0 0 0 0 0 0 0 127 0" result="hardAlpha"/>
            <feOffset/>
            <feGaussianBlur stdDeviation="10"/>
            <feComposite in2="hardAlpha" operator="out"/>
            <feColorMatrix type="matrix" values="0 0 0 0 0.8875 0 0 0 0 0.0517709 0 0 0 0 0.317509 0 0 0 0.5 0"/>
            <feBlend mode="normal" in2="effect1_backgroundBlur_2_1278" result="effect2_dropShadow_2_1278"/>
            <feBlend mode="normal" in="SourceGraphic" in2="effect2_dropShadow_2_1278" result="shape"/>
        </filter>
        <filter id="filter13_i_2_1278" x="65.4515" y="88.8646" width="52.4598" height="27.6653" filterUnits="userSpaceOnUse" color-interpolation-filters="sRGB">
            <feFlood flood-opacity="0" result="BackgroundImageFix"/>
            <feBlend mode="normal" in="SourceGraphic" in2="BackgroundImageFix" result="shape"/>
            <feColorMatrix in="SourceAlpha" type="matrix" values="0 0 0 0 0 0 0 0 0 0 0 0 0 0 0 0 0 0 127 0" result="hardAlpha"/>
            <feOffset/>
            <feGaussianBlur stdDeviation="1"/>
            <feComposite in2="hardAlpha" operator="arithmetic" k2="-1" k3="1"/>
            <feColorMatrix type="matrix" values="0 0 0 0 1 0 0 0 0 0.892151 0 0 0 0 0.318845 0 0 0 1 0"/>
            <feBlend mode="normal" in2="shape" result="effect1_innerShadow_2_1278"/>
        </filter>
        <filter id="filter14_f_2_1278" x="64.2495" y="87.4977" width="28.8794" height="32.3363" filterUnits="userSpaceOnUse" color-interpolation-filters="sRGB">
            <feFlood flood-opacity="0" result="BackgroundImageFix"/>
            <feBlend mode="normal" in="SourceGraphic" in2="BackgroundImageFix" result="shape"/>
            <feGaussianBlur stdDeviation="0.68347" result="effect1_foregroundBlur_2_1278"/>
        </filter>
        <filter id="filter15_f_2_1278" x="81.8166" y="93.44" width="21.8108" height="31.3591" filterUnits="userSpaceOnUse" color-interpolation-filters="sRGB">
            <feFlood flood-opacity="0" result="BackgroundImageFix"/>
            <feBlend mode="normal" in="SourceGraphic" in2="BackgroundImageFix" result="shape"/>
            <feGaussianBlur stdDeviation="1.50363" result="effect1_foregroundBlur_2_1278"/>
        </filter>
        <filter id="filter16_i_2_1278" x="61.6674" y="69.7732" width="60" height="28.4708" filterUnits="userSpaceOnUse" color-interpolation-filters="sRGB">
            <feFlood flood-opacity="0" result="BackgroundImageFix"/>
            <feBlend mode="normal" in="SourceGraphic" in2="BackgroundImageFix" result="shape"/>
            <feColorMatrix in="SourceAlpha" type="matrix" values="0 0 0 0 0 0 0 0 0 0 0 0 0 0 0 0 0 0 127 0" result="hardAlpha"/>
            <feOffset/>
            <feGaussianBlur stdDeviation="1"/>
            <feComposite in2="hardAlpha" operator="arithmetic" k2="-1" k3="1"/>
            <feColorMatrix type="matrix" values="0 0 0 0 1 0 0 0 0 0.913725 0 0 0 0 0.572549 0 0 0 1 0"/>
            <feBlend mode="normal" in2="shape" result="effect1_innerShadow_2_1278"/>
        </filter>
        <filter id="filter17_f_2_1278" x="86.8817" y="84.4916" width="8.84936" height="9.01977" filterUnits="userSpaceOnUse" color-interpolation-filters="sRGB">
            <feFlood flood-opacity="0" result="BackgroundImageFix"/>
            <feBlend mode="normal" in="SourceGraphic" in2="BackgroundImageFix" result="shape"/>
            <feGaussianBlur stdDeviation="0.68347" result="effect1_foregroundBlur_2_1278"/>
        </filter>
        <filter id="filter18_f_2_1278" x="60.653" y="63.8953" width="64.1319" height="29.601" filterUnits="userSpaceOnUse" color-interpolation-filters="sRGB">
            <feFlood flood-opacity="0" result="BackgroundImageFix"/>
            <feBlend mode="normal" in="SourceGraphic" in2="BackgroundImageFix" result="shape"/>
            <feGaussianBlur stdDeviation="2.93892" result="effect1_foregroundBlur_2_1278"/>
        </filter>
        <filter id="filter19_f_2_1278" x="76.027" y="72.9917" width="38.5702" height="14.0691" filterUnits="userSpaceOnUse" color-interpolation-filters="sRGB">
            <feFlood flood-opacity="0" result="BackgroundImageFix"/>
            <feBlend mode="normal" in="SourceGraphic" in2="BackgroundImageFix" result="shape"/>
            <feGaussianBlur stdDeviation="0.68347" result="effect1_foregroundBlur_2_1278"/>
        </filter>
        <filter id="filter20_f_2_1278" x="59.6169" y="75.9775" width="32.8065" height="24.9357" filterUnits="userSpaceOnUse" color-interpolation-filters="sRGB">
            <feFlood flood-opacity="0" result="BackgroundImageFix"/>
            <feBlend mode="normal" in="SourceGraphic" in2="BackgroundImageFix" result="shape"/>
            <feGaussianBlur stdDeviation="1.02521" result="effect1_foregroundBlur_2_1278"/>
        </filter>
        <filter id="filter21_f_2_1278" x="89.5908" y="78.0284" width="32.442" height="12.2982" filterUnits="userSpaceOnUse" color-interpolation-filters="sRGB">
            <feFlood flood-opacity="0" result="BackgroundImageFix"/>
            <feBlend mode="normal" in="SourceGraphic" in2="BackgroundImageFix" result="shape"/>
            <feGaussianBlur stdDeviation="0.68347" result="effect1_foregroundBlur_2_1278"/>
        </filter>
        <filter id="filter22_f_2_1278" x="68.2513" y="78.1554" width="16.9057" height="39.364" filterUnits="userSpaceOnUse" color-interpolation-filters="sRGB">
            <feFlood flood-opacity="0" result="BackgroundImageFix"/>
            <feBlend mode="normal" in="SourceGraphic" in2="BackgroundImageFix" result="shape"/>
            <feGaussianBlur stdDeviation="1.23025" result="effect1_foregroundBlur_2_1278"/>
        </filter>
        <filter id="filter23_f_2_1278" x="86.9771" y="74.0696" width="20.4208" height="11.2073" filterUnits="userSpaceOnUse" color-interpolation-filters="sRGB">
            <feFlood flood-opacity="0" result="BackgroundImageFix"/>
            <feBlend mode="normal" in="SourceGraphic" in2="BackgroundImageFix" result="shape"/>
            <feGaussianBlur stdDeviation="1.1619" result="effect1_foregroundBlur_2_1278"/>
        </filter>
        <filter id="filter24_f_2_1278" x="99.6566" y="77.9298" width="17.3569" height="13.6457" filterUnits="userSpaceOnUse" color-interpolation-filters="sRGB">
            <feFlood flood-opacity="0" result="BackgroundImageFix"/>
            <feBlend mode="normal" in="SourceGraphic" in2="BackgroundImageFix" result="shape"/>
            <feGaussianBlur stdDeviation="1.02521" result="effect1_foregroundBlur_2_1278"/>
        </filter>
        <filter id="filter25_f_2_1278" x="66.5136" y="77.0696" width="24.4293" height="13.0903" filterUnits="userSpaceOnUse" color-interpolation-filters="sRGB">
            <feFlood flood-opacity="0" result="BackgroundImageFix"/>
            <feBlend mode="normal" in="SourceGraphic" in2="BackgroundImageFix" result="shape"/>
            <feGaussianBlur stdDeviation="0.751817" result="effect1_foregroundBlur_2_1278"/>
        </filter>
        <filter id="filter26_dd_2_1278" x="84.9447" y="65.6865" width="16.2311" height="15.9868" filterUnits="userSpaceOnUse" color-interpolation-filters="sRGB">
            <feFlood flood-opacity="0" result="BackgroundImageFix"/>
            <feColorMatrix in="SourceAlpha" type="matrix" values="0 0 0 0 0 0 0 0 0 0 0 0 0 0 0 0 0 0 127 0" result="hardAlpha"/>
            <feOffset/>
            <feGaussianBlur stdDeviation="1"/>
            <feColorMatrix type="matrix" values="0 0 0 0 1 0 0 0 0 0.4 0 0 0 0 0 0 0 0 0.199219 0"/>
            <feBlend mode="normal" in2="BackgroundImageFix" result="effect1_dropShadow_2_1278"/>
            <feColorMatrix in="SourceAlpha" type="matrix" values="0 0 0 0 0 0 0 0 0 0 0 0 0 0 0 0 0 0 127 0" result="hardAlpha"/>
            <feOffset/>
            <feGaussianBlur stdDeviation="1"/>
            <feColorMatrix type="matrix" values="0 0 0 0 1 0 0 0 0 0 0 0 0 0 0 0 0 0 0.432474 0"/>
            <feBlend mode="normal" in2="effect1_dropShadow_2_1278" result="effect2_dropShadow_2_1278"/>
            <feBlend mode="normal" in="SourceGraphic" in2="effect2_dropShadow_2_1278" result="shape"/>
        </filter>
        <filter id="filter27_f_2_1278" x="86.0983" y="74.2743" width="6.6101" height="7.50732" filterUnits="userSpaceOnUse" color-interpolation-filters="sRGB">
            <feFlood flood-opacity="0" result="BackgroundImageFix"/>
            <feBlend mode="normal" in="SourceGraphic" in2="BackgroundImageFix" result="shape"/>
            <feGaussianBlur stdDeviation="0.68347" result="effect1_foregroundBlur_2_1278"/>
        </filter>
        <filter id="filter28_f_2_1278" x="88.8618" y="75.2919" width="3.20395" height="5.83713" filterUnits="userSpaceOnUse" color-interpolation-filters="sRGB">
            <feFlood flood-opacity="0" result="BackgroundImageFix"/>
            <feBlend mode="normal" in="SourceGraphic" in2="BackgroundImageFix" result="shape"/>
            <feGaussianBlur stdDeviation="0.546776" result="effect1_foregroundBlur_2_1278"/>
        </filter>
        <linearGradient id="paint0_linear_2_1278" x1="131.635" y1="87.9499" x2="133.751" y2="83.3175" gradientUnits="userSpaceOnUse">
            <stop offset="0.015625" stop-color="#FAE5B2"/>
            <stop offset="0.211671" stop-color="#F8D56E"/>
            <stop offset="1" stop-color="#FAE4AE" stop-opacity="0"/>
        </linearGradient>
        <linearGradient id="paint1_linear_2_1278" x1="120.855" y1="95.1036" x2="114.051" y2="95.1036" gradientUnits="userSpaceOnUse">
            <stop stop-color="#FFF8D7"/>
            <stop offset="0.754341" stop-color="#FECE18"/>
            <stop offset="1" stop-color="#FFC400"/>
        </linearGradient>
        <linearGradient id="paint2_linear_2_1278" x1="61.4173" y1="105.348" x2="69.1112" y2="105.348" gradientUnits="userSpaceOnUse">
            <stop stop-color="#FFF9AD"/>
            <stop offset="1" stop-color="white" stop-opacity="0.01"/>
        </linearGradient>
        <linearGradient id="paint3_linear_2_1278" x1="80.4731" y1="94.105" x2="80.4731" y2="129.263" gradientUnits="userSpaceOnUse">
            <stop stop-color="#FCDB39" stop-opacity="0.335337"/>
            <stop offset="0.346068" stop-color="#FCDB39" stop-opacity="0.599596"/>
            <stop offset="1" stop-color="#FCDB39" stop-opacity="0.01"/>
        </linearGradient>
        <linearGradient id="paint4_linear_2_1278" x1="84.8239" y1="119.376" x2="100.62" y2="119.376" gradientUnits="userSpaceOnUse">
            <stop stop-color="#FFA805"/>
            <stop offset="0.429211" stop-color="#FDE369" stop-opacity="0.24664"/>
            <stop offset="1" stop-color="#E9B301"/>
        </linearGradient>
        <linearGradient id="paint5_linear_2_1278" x1="69.9782" y1="102.106" x2="118.795" y2="99.4235" gradientUnits="userSpaceOnUse">
            <stop stop-color="#FA8900" stop-opacity="0.178759"/>
            <stop offset="0.440888" stop-color="#FA5600" stop-opacity="0.163462"/>
            <stop offset="1" stop-color="#FA8200" stop-opacity="0.285948"/>
        </linearGradient>
        <linearGradient id="paint6_linear_2_1278" x1="88.3391" y1="86.0444" x2="88.3391" y2="92.1444" gradientUnits="userSpaceOnUse">
            <stop stop-color="#FFE35E"/>
            <stop offset="1" stop-color="#FCE35D" stop-opacity="0.10902"/>
        </linearGradient>
        <linearGradient id="paint7_linear_2_1278" x1="66.5151" y1="69.7732" x2="66.5151" y2="87.6185" gradientUnits="userSpaceOnUse">
            <stop stop-color="#FFF4BB"/>
            <stop offset="1" stop-color="#FF833C" stop-opacity="0.507075"/>
        </linearGradient>
        <linearGradient id="paint8_linear_2_1278" x1="51.3326" y1="89.2281" x2="71.8094" y2="109.397" gradientUnits="userSpaceOnUse">
            <stop stop-color="#FFE100"/>
            <stop offset="0.724828" stop-color="#FFC500"/>
            <stop offset="0.831942" stop-color="#FFC000"/>
            <stop offset="1" stop-color="#FFBE00" stop-opacity="0.627814"/>
        </linearGradient>
        <linearGradient id="paint9_linear_2_1278" x1="67.6041" y1="83.9346" x2="81.1807" y2="111.457" gradientUnits="userSpaceOnUse">
            <stop stop-color="#FD3C00"/>
            <stop offset="0.225491" stop-color="#FD7000"/>
            <stop offset="0.749144" stop-color="#FD5900"/>
            <stop offset="1" stop-color="#FC3C00"/>
        </linearGradient>
        <linearGradient id="paint10_linear_2_1278" x1="78.7468" y1="103.625" x2="117.811" y2="124.994" gradientUnits="userSpaceOnUse">
            <stop stop-color="#FD3700"/>
            <stop offset="0.116288" stop-color="#FC6900"/>
            <stop offset="0.199229" stop-color="#FC6200"/>
            <stop offset="1" stop-color="#FC7600"/>
        </linearGradient>
        <linearGradient id="paint11_linear_2_1278" x1="90.4458" y1="79.1864" x2="92.4532" y2="84.6567" gradientUnits="userSpaceOnUse">
            <stop stop-color="#FE0000" stop-opacity="0.627677"/>
            <stop offset="1" stop-color="#FC0000" stop-opacity="0.01"/>
        </linearGradient>
        <linearGradient id="paint12_linear_2_1278" x1="103.798" y1="83.3044" x2="104.671" y2="87.6494" gradientUnits="userSpaceOnUse">
            <stop stop-color="#FC7600"/>
            <stop offset="0.385908" stop-color="#FF9449"/>
            <stop offset="1" stop-color="#FC7600"/>
        </linearGradient>
        <linearGradient id="paint13_linear_2_1278" x1="76.6702" y1="75.0384" x2="72.1973" y2="88.6035" gradientUnits="userSpaceOnUse">
            <stop stop-color="#FF6D00"/>
            <stop offset="1" stop-color="#FD3B00" stop-opacity="0.284883"/>
        </linearGradient>
        <linearGradient id="paint14_linear_2_1278" x1="92.9046" y1="75.7849" x2="84.495" y2="67.6725" gradientUnits="userSpaceOnUse">
            <stop stop-color="#FD8838"/>
            <stop offset="1" stop-color="#FB501A"/>
        </linearGradient>
        <linearGradient id="paint15_linear_2_1278" x1="70.5118" y1="49.0766" x2="53.8383" y2="71.7519" gradientUnits="userSpaceOnUse">
            <stop stop-color="#FF9F00"/>
            <stop offset="0.233829" stop-color="#FF6700"/>
            <stop offset="0.451291" stop-color="#FF921C"/>
            <stop offset="1" stop-color="#FF4C00"/>
        </linearGradient>
        <linearGradient id="paint16_linear_2_1278" x1="71.1931" y1="61.1206" x2="67.8979" y2="66.0407" gradientUnits="userSpaceOnUse">
            <stop stop-color="#FFBF40"/>
            <stop offset="1" stop-color="#DDA843" stop-opacity="0.01"/>
        </linearGradient>
        <linearGradient id="paint17_linear_2_1278" x1="78.8017" y1="91.2725" x2="95.7179" y2="82.159" gradientUnits="userSpaceOnUse">
            <stop stop-color="#FF5A06"/>
            <stop offset="0.393953" stop-color="#FFA600"/>
            <stop offset="1" stop-color="#FF8600"/>
            <stop offset="1" stop-color="#FF8600"/>
        </linearGradient>
        <linearGradient id="paint18_linear_2_1278" x1="96.8607" y1="60.3147" x2="96.8607" y2="75.8394" gradientUnits="userSpaceOnUse">
            <stop stop-color="#FC581F"/>
            <stop offset="1" stop-color="#FE9142"/>
        </linearGradient>
        <linearGradient id="paint19_linear_2_1278" x1="103.917" y1="61.0894" x2="103.917" y2="68.8185" gradientUnits="userSpaceOnUse">
            <stop stop-color="#FF5B00"/>
            <stop offset="1" stop-color="#FD7833" stop-opacity="0.01"/>
        </linearGradient>
        <linearGradient id="paint20_linear_2_1278" x1="103.917" y1="61.0894" x2="103.917" y2="68.8185" gradientUnits="userSpaceOnUse">
            <stop stop-color="#F34B0D"/>
            <stop offset="1" stop-color="#FD7732"/>
        </linearGradient>
        <linearGradient id="paint21_linear_2_1278" x1="88.763" y1="58.0336" x2="91.3352" y2="78.2131" gradientUnits="userSpaceOnUse">
            <stop stop-color="#FF9F00"/>
            <stop offset="0.301485" stop-color="#FF7500"/>
            <stop offset="1" stop-color="#FF6600"/>
        </linearGradient>
        <linearGradient id="paint22_linear_2_1278" x1="72.2622" y1="52.7844" x2="91.9806" y2="71.4652" gradientUnits="userSpaceOnUse">
            <stop stop-color="#FFE07F" stop-opacity="0.5"/>
            <stop offset="0.468186" stop-color="#FFC32F" stop-opacity="0.811762"/>
            <stop offset="1" stop-color="#FFBD47" stop-opacity="0.01"/>
        </linearGradient>
        <linearGradient id="paint23_linear_2_1278" x1="101.294" y1="57.6152" x2="98.0599" y2="74.994" gradientUnits="userSpaceOnUse">
            <stop stop-color="#FF7E00"/>
            <stop offset="0.0980368" stop-color="#FF8D00"/>
            <stop offset="0.698201" stop-color="#FF8600"/>
            <stop offset="1" stop-color="#FF8200"/>
        </linearGradient>
        <linearGradient id="paint24_linear_2_1278" x1="84.9425" y1="70.1188" x2="89.7657" y2="80.5989" gradientUnits="userSpaceOnUse">
            <stop stop-color="#FF9F00"/>
            <stop offset="0.345741" stop-color="#FF9400"/>
            <stop offset="1" stop-color="#FF4F00"/>
        </linearGradient>
        <linearGradient id="paint25_linear_2_1278" x1="90.7307" y1="73.3448" x2="85.461" y2="76.0339" gradientUnits="userSpaceOnUse">
            <stop stop-color="#FD2A00"/>
            <stop offset="1" stop-color="#FD3F00" stop-opacity="0.01"/>
        </linearGradient>
        <clipPath id="clip0_2_1278">
            <rect width="171.013" height="122.956" fill="white" transform="translate(0.101074 0.401855)"/>
        </clipPath>
    </defs>
</svg>
