<svg width="24" height="22" viewBox="0 0 24 22" fill="none"
    xmlns="http://www.w3.org/2000/svg">
    <path d="M7.25096 5.94595C7.74274 5.94595 8.1414 6.34526 8.1414 6.83784V8.32432H9.62548C10.1173 8.32432 10.5159 8.72364 10.5159 9.21622C10.5159 9.70879 10.1173 10.1081 9.62548 10.1081H8.1414V11.5946C8.1414 12.0872 7.74274 12.4865 7.25096 12.4865C6.75918 12.4865 6.36052 12.0872 6.36052 11.5946V10.1081H4.87644C4.38466 10.1081 3.986 9.70879 3.986 9.21621C3.986 8.72364 4.38466 8.32432 4.87644 8.32432H6.36052V6.83784C6.36052 6.34526 6.75918 5.94595 7.25096 5.94595Z" fill="black" fill-opacity="0.6"/>
    <path d="M17.9363 11.2973C17.9363 10.6405 17.4047 10.1081 16.749 10.1081C16.0933 10.1081 15.5618 10.6405 15.5618 11.2973V11.5946C15.5618 12.2514 16.0933 12.7838 16.749 12.7838C17.4047 12.7838 17.9363 12.2514 17.9363 11.5946V11.2973Z" fill="black" fill-opacity="0.6"/>
    <path d="M16.749 5.64865C17.4047 5.64865 17.9363 6.18107 17.9363 6.83784V7.13513C17.9363 7.79191 17.4047 8.32432 16.749 8.32432C16.0933 8.32432 15.5618 7.79191 15.5618 7.13513V6.83784C15.5618 6.18107 16.0933 5.64865 16.749 5.64865Z" fill="black" fill-opacity="0.6"/>
    <path d="M20.3108 9.21622C20.3108 9.87299 19.7793 10.4054 19.1236 10.4054H18.8267C18.171 10.4054 17.6395 9.87299 17.6395 9.21622C17.6395 8.55944 18.171 8.02703 18.8267 8.02703H19.1236C19.7793 8.02703 20.3108 8.55944 20.3108 9.21622Z" fill="black" fill-opacity="0.6"/>
    <path d="M14.6713 10.4054C15.327 10.4054 15.8586 9.87299 15.8586 9.21622C15.8586 8.55944 15.327 8.02703 14.6713 8.02703H14.3745C13.7188 8.02703 13.1873 8.55944 13.1873 9.21621C13.1873 9.87299 13.7188 10.4054 14.3745 10.4054H14.6713Z" fill="black" fill-opacity="0.6"/>
    <path fill-rule="evenodd" clip-rule="evenodd" d="M12.8904 0.891892C12.8904 0.399314 12.4918 0 12 0C11.5082 0 11.1096 0.399314 11.1096 0.891892V2.66007C9.40096 2.68346 7.69306 2.77416 5.98982 2.93219L5.59613 2.96872C2.75656 3.23218 0.570002 5.59402 0.521677 8.44998L0.50732 9.29841C0.451158 12.6175 0.718269 15.9342 1.30486 19.2014C1.59569 20.8213 3.003 22 4.64617 22H4.90861C6.3753 22 7.70422 21.1342 8.29887 19.7913L9.55807 16.9476C10.4973 14.8265 13.5027 14.8265 14.4419 16.9476L15.7011 19.7913C16.2958 21.1342 17.6247 22 19.0914 22H19.3538C20.997 22 22.4043 20.8213 22.6951 19.2014C23.2817 15.9342 23.5488 12.6175 23.4927 9.29841L23.4783 8.44997C23.43 5.59402 21.2434 3.23218 18.4039 2.96872L18.0102 2.93219C16.3069 2.77416 14.599 2.68346 12.8904 2.66007V0.891892ZM6.15408 4.70837C10.043 4.34755 13.957 4.34755 17.8459 4.70837L18.2396 4.7449C20.1747 4.92444 21.6648 6.53396 21.6977 8.4802L21.712 9.32864C21.7662 12.5318 21.5085 15.7327 20.9424 18.8857C20.8041 19.6558 20.135 20.2162 19.3538 20.2162H19.0914C18.329 20.2162 17.6382 19.7662 17.3291 19.0681L16.0699 16.2244C14.5045 12.6892 9.49555 12.6892 7.93012 16.2244L6.67092 19.0681C6.36181 19.7662 5.67102 20.2162 4.90861 20.2162H4.64617C3.86497 20.2162 3.1959 19.6558 3.05763 18.8857C2.49153 15.7327 2.23375 12.5318 2.28795 9.32864L2.30231 8.48021C2.33524 6.53396 3.82531 4.92444 5.76039 4.7449L6.15408 4.70837Z" fill="black" fill-opacity="0.6"/>
</svg>
