<svg width="24" height="22" viewBox="0 0 24 22" fill="none" xmlns="http://www.w3.org/2000/svg">
<path fill-rule="evenodd" clip-rule="evenodd" d="M12 0C12.5048 0 12.914 0.404784 12.914 0.90411V2.99791C14.6585 3.0216 16.4023 3.11311 18.1413 3.27245L18.5454 3.30947C21.3055 3.56236 23.4308 5.82945 23.4778 8.57083L23.4925 9.43089C23.5498 12.7759 23.2773 16.1185 22.6786 19.4111C22.4062 20.9096 21.0879 22 19.5487 22H19.2793C17.8942 22 16.6393 21.1926 16.0777 19.9403L14.7851 17.0576C13.7139 14.6685 10.2861 14.6685 9.21486 17.0576L7.9223 19.9403C7.36074 21.1926 6.10579 22 4.72073 22H4.45134C2.9121 22 1.59381 20.9096 1.32138 19.4111C0.722747 16.1185 0.450156 12.7759 0.507471 9.4309L0.522207 8.57084C0.569179 5.82946 2.69451 3.56236 5.45457 3.30947L5.85869 3.27245C7.59771 3.11311 9.34148 3.0216 11.086 2.99791V0.90411C11.086 0.404784 11.4952 0 12 0ZM18.0936 6.93151C18.0936 6.26574 17.5479 5.72603 16.8749 5.72603C16.2018 5.72603 15.6561 6.26574 15.6561 6.93151V7.23288C15.6561 7.89864 16.2018 8.43836 16.8749 8.43836C17.5479 8.43836 18.0936 7.89864 18.0936 7.23288V6.93151ZM7.12514 6.0274C7.62995 6.0274 8.03918 6.43218 8.03918 6.93151V8.43836H9.56257C10.0674 8.43836 10.4766 8.84314 10.4766 9.34247C10.4766 9.84179 10.0674 10.2466 9.56257 10.2466H8.03918V11.7534C8.03918 12.2527 7.62995 12.6575 7.12514 12.6575C6.62033 12.6575 6.21111 12.2527 6.21111 11.7534V10.2466H4.68771C4.1829 10.2466 3.77368 9.84179 3.77368 9.34246C3.77368 8.84314 4.1829 8.43836 4.68771 8.43836H6.21111V6.93151C6.21111 6.43218 6.62033 6.0274 7.12514 6.0274ZM16.8749 10.2466C17.5479 10.2466 18.0936 10.7863 18.0936 11.4521V11.7534C18.0936 12.4192 17.5479 12.9589 16.8749 12.9589C16.2018 12.9589 15.6561 12.4192 15.6561 11.7534V11.4521C15.6561 10.7863 16.2018 10.2466 16.8749 10.2466ZM19.3123 10.5479C19.9854 10.5479 20.531 10.0082 20.531 9.34247C20.531 8.6767 19.9854 8.13699 19.3123 8.13699H19.0076C18.3345 8.13699 17.7889 8.6767 17.7889 9.34247C17.7889 10.0082 18.3345 10.5479 19.0076 10.5479H19.3123ZM15.9608 9.34247C15.9608 10.0082 15.4152 10.5479 14.7421 10.5479H14.4374C13.7643 10.5479 13.2187 10.0082 13.2187 9.34246C13.2187 8.6767 13.7643 8.13698 14.4374 8.13698H14.7421C15.4152 8.13699 15.9608 8.6767 15.9608 9.34247Z" fill="url(#paint0_linear_2_2972)"/>
<defs>
<linearGradient id="paint0_linear_2_2972" x1="21.4706" y1="21.1239" x2="5.92272" y2="-0.943911" gradientUnits="userSpaceOnUse">
<stop stop-color="#F74757"/>
<stop offset="1" stop-color="#F74757" stop-opacity="0.7"/>
</linearGradient>
</defs>
</svg>
