<svg width="57" height="56" viewBox="0 0 57 56" fill="none" xmlns="http://www.w3.org/2000/svg">
<g clip-path="url(#clip0_499_704)">
<rect width="56" height="56" transform="translate(0.5)" fill="#38D0B0"/>
<g filter="url(#filter0_d_499_704)">
<path d="M29.8193 13.642C27.6738 13.1835 26.7002 9.92864 25.3899 9.16953C24.0795 8.41043 22.7131 9.90121 23.5401 11.5447C24.3671 13.1882 26.5528 15.2429 28.4492 15.4462C30.3457 15.6495 31.9648 14.1006 29.8193 13.642Z" fill="#F74757"/>
<path d="M29.8193 13.642C27.6738 13.1835 26.7002 9.92864 25.3899 9.16953C24.0795 8.41043 22.7131 9.90121 23.5401 11.5447C24.3671 13.1882 26.5528 15.2429 28.4492 15.4462C30.3457 15.6495 31.9648 14.1006 29.8193 13.642Z" fill="url(#paint0_radial_499_704)" fill-opacity="0.5"/>
</g>
<g filter="url(#filter1_d_499_704)">
<path d="M26.8489 13.2004C29.0398 13.3166 30.8276 10.4277 32.2905 10.0362C33.7534 9.64463 34.6843 11.4399 33.4577 12.8112C32.2311 14.1826 29.5856 15.5969 27.7017 15.2992C25.8178 15.0014 24.6581 13.0842 26.8489 13.2004Z" fill="#F74757"/>
<path d="M26.8489 13.2004C29.0398 13.3166 30.8276 10.4277 32.2905 10.0362C33.7534 9.64463 34.6843 11.4399 33.4577 12.8112C32.2311 14.1826 29.5856 15.5969 27.7017 15.2992C25.8178 15.0014 24.6581 13.0842 26.8489 13.2004Z" fill="url(#paint1_radial_499_704)" fill-opacity="0.5"/>
</g>
<g filter="url(#filter2_d_499_704)">
<path d="M26.1721 14.2436C27.9079 12.9019 27.3774 9.54623 28.2304 8.29491C29.0833 7.04358 30.9602 7.79642 30.9257 9.63595C30.8912 11.4755 29.8097 14.2736 28.1879 15.2774C26.5661 16.2811 24.4362 15.5852 26.1721 14.2436Z" fill="#F74757"/>
<path d="M26.1721 14.2436C27.9079 12.9019 27.3774 9.54623 28.2304 8.29491C29.0833 7.04358 30.9602 7.79642 30.9257 9.63595C30.8912 11.4755 29.8097 14.2736 28.1879 15.2774C26.5661 16.2811 24.4362 15.5852 26.1721 14.2436Z" fill="url(#paint2_radial_499_704)" fill-opacity="0.5"/>
</g>
<g filter="url(#filter3_iiii_499_704)">
<path d="M12.0211 26.9847C13.0183 18.902 19.7751 12.5781 27.9191 12.5781C35.6738 12.5781 42.2339 18.3309 43.7467 25.9366C45.9274 36.9003 47.9938 45.5362 46.3916 58.0234H10.1612C9.47839 45.6485 10.7777 37.0645 12.0211 26.9847Z" fill="#F74757"/>
<path d="M12.0211 26.9847C13.0183 18.902 19.7751 12.5781 27.9191 12.5781C35.6738 12.5781 42.2339 18.3309 43.7467 25.9366C45.9274 36.9003 47.9938 45.5362 46.3916 58.0234H10.1612C9.47839 45.6485 10.7777 37.0645 12.0211 26.9847Z" fill="url(#paint3_radial_499_704)" fill-opacity="0.9"/>
</g>
<g filter="url(#filter4_d_499_704)">
<path d="M13.4677 43.1679C14.694 46.4411 20.8799 46.6484 22.3838 48.5352C23.8877 50.4219 20.7108 52.7884 17.9267 51.8711C15.1426 50.9538 12.8134 48.5351 10.9463 45.7505C9.07909 42.9659 12.2413 39.8946 13.4677 43.1679Z" fill="url(#paint4_linear_499_704)" shape-rendering="crispEdges"/>
<path d="M13.4677 43.1679C14.694 46.4411 20.8799 46.6484 22.3838 48.5352C23.8877 50.4219 20.7108 52.7884 17.9267 51.8711C15.1426 50.9538 12.8134 48.5351 10.9463 45.7505C9.07909 42.9659 12.2413 39.8946 13.4677 43.1679Z" fill="url(#paint5_linear_499_704)" fill-opacity="0.4" shape-rendering="crispEdges"/>
<path d="M13.4677 43.1679C14.694 46.4411 20.8799 46.6484 22.3838 48.5352C23.8877 50.4219 20.7108 52.7884 17.9267 51.8711C15.1426 50.9538 12.8134 48.5351 10.9463 45.7505C9.07909 42.9659 12.2413 39.8946 13.4677 43.1679Z" fill="url(#paint6_radial_499_704)" fill-opacity="0.2" shape-rendering="crispEdges"/>
<path d="M13.4677 43.1679C14.694 46.4411 20.8799 46.6484 22.3838 48.5352C23.8877 50.4219 20.7108 52.7884 17.9267 51.8711C15.1426 50.9538 12.8134 48.5351 10.9463 45.7505C9.07909 42.9659 12.2413 39.8946 13.4677 43.1679Z" fill="url(#paint7_radial_499_704)" fill-opacity="0.6" shape-rendering="crispEdges"/>
</g>
<g filter="url(#filter5_d_499_704)">
<path d="M43.5375 43.1679C42.3111 46.4411 36.1253 46.6484 34.6214 48.5352C33.1175 50.4219 36.2943 52.7884 39.0784 51.8711C41.8625 50.9538 44.1917 48.5351 46.0589 45.7505C47.926 42.9659 44.7638 39.8946 43.5375 43.1679Z" fill="url(#paint8_linear_499_704)" shape-rendering="crispEdges"/>
<path d="M43.5375 43.1679C42.3111 46.4411 36.1253 46.6484 34.6214 48.5352C33.1175 50.4219 36.2943 52.7884 39.0784 51.8711C41.8625 50.9538 44.1917 48.5351 46.0589 45.7505C47.926 42.9659 44.7638 39.8946 43.5375 43.1679Z" fill="url(#paint9_linear_499_704)" fill-opacity="0.4" shape-rendering="crispEdges"/>
<path d="M43.5375 43.1679C42.3111 46.4411 36.1253 46.6484 34.6214 48.5352C33.1175 50.4219 36.2943 52.7884 39.0784 51.8711C41.8625 50.9538 44.1917 48.5351 46.0589 45.7505C47.926 42.9659 44.7638 39.8946 43.5375 43.1679Z" fill="url(#paint10_radial_499_704)" fill-opacity="0.2" shape-rendering="crispEdges"/>
<path d="M43.5375 43.1679C42.3111 46.4411 36.1253 46.6484 34.6214 48.5352C33.1175 50.4219 36.2943 52.7884 39.0784 51.8711C41.8625 50.9538 44.1917 48.5351 46.0589 45.7505C47.926 42.9659 44.7638 39.8946 43.5375 43.1679Z" fill="url(#paint11_radial_499_704)" fill-opacity="0.6" shape-rendering="crispEdges"/>
</g>
<g filter="url(#filter6_diii_499_704)">
<path d="M29.6609 41.6757C29.0682 42.2237 28.1107 42.2044 27.5235 41.6504C26.7459 40.9167 25.9713 40.4301 25.3272 40.0787C24.8017 39.7919 24.9395 39.3209 25.5361 39.3707C26.373 39.4405 27.4233 39.5462 28.4894 39.691C28.5483 39.699 28.6079 39.6991 28.6667 39.6913C29.7284 39.5501 30.83 39.4389 31.6724 39.3657C32.2308 39.3172 32.3894 39.76 31.9057 40.0431C31.2877 40.4046 30.5007 40.8993 29.6609 41.6757Z" fill="#530A00"/>
</g>
<ellipse opacity="0.5" cx="28.6641" cy="41.043" rx="1.03906" ry="0.792969" fill="#7B161F"/>
<g filter="url(#filter7_ii_499_704)">
<path fill-rule="evenodd" clip-rule="evenodd" d="M25.2028 32.5437C23.8083 36.2816 19.7194 38.5756 15.783 37.7934C11.8163 37.0051 9.08594 33.436 9.08594 29.4275C9.08594 24.9543 12.7155 21.3281 17.1929 21.3281H39.8071C44.2845 21.3281 47.9141 24.9543 47.9141 29.4275C47.9141 33.436 45.1838 37.0051 41.2169 37.7934C37.2804 38.5757 33.1921 36.2816 31.7977 32.5437L25.2028 32.5437Z" fill="#432020"/>
</g>
<path fill-rule="evenodd" clip-rule="evenodd" d="M25.2028 32.5437C23.8083 36.2816 19.7194 38.5756 15.783 37.7934C11.8163 37.0051 9.08594 33.436 9.08594 29.4275C9.08594 24.9543 12.7155 21.3281 17.1929 21.3281H39.8071C44.2845 21.3281 47.9141 24.9543 47.9141 29.4275C47.9141 33.436 45.1838 37.0051 41.2169 37.7934C37.2804 38.5757 33.1921 36.2816 31.7977 32.5437L25.2028 32.5437Z" stroke="url(#paint12_linear_499_704)" stroke-width="0.65625"/>
<line x1="14.9187" y1="29.7312" x2="19.8187" y2="29.7312" stroke="#FFDE89" stroke-width="1.09375" stroke-linecap="round"/>
<line x1="17.3497" y1="32.2" x2="17.3497" y2="27.3" stroke="#FFDE89" stroke-width="1.09375" stroke-linecap="round"/>
<circle cx="40.4014" cy="27.6282" r="0.984375" fill="#FFDE89"/>
<circle cx="38.2609" cy="29.7688" r="0.984375" fill="#FFDE89"/>
<circle cx="42.5422" cy="29.7688" r="0.984375" fill="#FFDE89"/>
<circle cx="40.4014" cy="31.9093" r="0.984375" fill="#FFDE89"/>
<mask id="mask0_499_704" style="mask-type:alpha" maskUnits="userSpaceOnUse" x="9" y="21" width="39" height="17">
<path fill-rule="evenodd" clip-rule="evenodd" d="M25.2028 32.5437C23.8083 36.2816 19.7194 38.5756 15.783 37.7934C11.8163 37.0051 9.08594 33.436 9.08594 29.4275C9.08594 24.9543 12.7155 21.3281 17.1929 21.3281H39.8071C44.2845 21.3281 47.9141 24.9543 47.9141 29.4275C47.9141 33.436 45.1838 37.0051 41.2169 37.7934C37.2804 38.5757 33.1921 36.2816 31.7977 32.5437L25.2028 32.5437Z" fill="#432020"/>
</mask>
<g mask="url(#mask0_499_704)">
<rect opacity="0.05" x="23.1766" y="18.8455" width="4.19474" height="20.4531" transform="rotate(36.472 23.1766 18.8455)" fill="white"/>
<rect opacity="0.2" x="30.0372" y="18.1505" width="1.80418" height="28.0096" transform="rotate(36.472 30.0372 18.1505)" fill="white"/>
</g>
</g>
<defs>
<filter id="filter0_d_499_704" x="22.5228" y="7.54407" width="9.73828" height="8.68604" filterUnits="userSpaceOnUse" color-interpolation-filters="sRGB">
<feFlood flood-opacity="0" result="BackgroundImageFix"/>
<feColorMatrix in="SourceAlpha" type="matrix" values="0 0 0 0 0 0 0 0 0 0 0 0 0 0 0 0 0 0 127 0" result="hardAlpha"/>
<feOffset dx="0.328125" dy="-0.328125"/>
<feGaussianBlur stdDeviation="0.546875"/>
<feComposite in2="hardAlpha" operator="out"/>
<feColorMatrix type="matrix" values="0 0 0 0 0.620833 0 0 0 0 0.0827778 0 0 0 0 0.131692 0 0 0 0.2 0"/>
<feBlend mode="normal" in2="BackgroundImageFix" result="effect1_dropShadow_499_704"/>
<feBlend mode="normal" in="SourceGraphic" in2="effect1_dropShadow_499_704" result="shape"/>
</filter>
<filter id="filter1_d_499_704" x="24.8929" y="8.55969" width="10.5547" height="7.54517" filterUnits="userSpaceOnUse" color-interpolation-filters="sRGB">
<feFlood flood-opacity="0" result="BackgroundImageFix"/>
<feColorMatrix in="SourceAlpha" type="matrix" values="0 0 0 0 0 0 0 0 0 0 0 0 0 0 0 0 0 0 127 0" result="hardAlpha"/>
<feOffset dx="0.328125" dy="-0.328125"/>
<feGaussianBlur stdDeviation="0.546875"/>
<feComposite in2="hardAlpha" operator="out"/>
<feColorMatrix type="matrix" values="0 0 0 0 0.620833 0 0 0 0 0.0827778 0 0 0 0 0.131692 0 0 0 0.2 0"/>
<feBlend mode="normal" in2="BackgroundImageFix" result="effect1_dropShadow_499_704"/>
<feBlend mode="normal" in="SourceGraphic" in2="effect1_dropShadow_499_704" result="shape"/>
</filter>
<filter id="filter2_d_499_704" x="24.7594" y="6.25562" width="7.58862" height="10.2637" filterUnits="userSpaceOnUse" color-interpolation-filters="sRGB">
<feFlood flood-opacity="0" result="BackgroundImageFix"/>
<feColorMatrix in="SourceAlpha" type="matrix" values="0 0 0 0 0 0 0 0 0 0 0 0 0 0 0 0 0 0 127 0" result="hardAlpha"/>
<feOffset dx="0.328125" dy="-0.328125"/>
<feGaussianBlur stdDeviation="0.546875"/>
<feComposite in2="hardAlpha" operator="out"/>
<feColorMatrix type="matrix" values="0 0 0 0 0.620833 0 0 0 0 0.0827778 0 0 0 0 0.131692 0 0 0 0.2 0"/>
<feBlend mode="normal" in2="BackgroundImageFix" result="effect1_dropShadow_499_704"/>
<feBlend mode="normal" in="SourceGraphic" in2="effect1_dropShadow_499_704" result="shape"/>
</filter>
<filter id="filter3_iiii_499_704" x="6.69141" y="7.65625" width="41.0898" height="52.0078" filterUnits="userSpaceOnUse" color-interpolation-filters="sRGB">
<feFlood flood-opacity="0" result="BackgroundImageFix"/>
<feBlend mode="normal" in="SourceGraphic" in2="BackgroundImageFix" result="shape"/>
<feColorMatrix in="SourceAlpha" type="matrix" values="0 0 0 0 0 0 0 0 0 0 0 0 0 0 0 0 0 0 127 0" result="hardAlpha"/>
<feOffset dx="-3.28125" dy="-4.92188"/>
<feGaussianBlur stdDeviation="3.55469"/>
<feComposite in2="hardAlpha" operator="arithmetic" k2="-1" k3="1"/>
<feColorMatrix type="matrix" values="0 0 0 0 0.8 0 0 0 0 0.14902 0 0 0 0 0.207843 0 0 0 0.4 0"/>
<feBlend mode="normal" in2="shape" result="effect1_innerShadow_499_704"/>
<feColorMatrix in="SourceAlpha" type="matrix" values="0 0 0 0 0 0 0 0 0 0 0 0 0 0 0 0 0 0 127 0" result="hardAlpha"/>
<feOffset dx="-2.1875" dy="-2.73438"/>
<feGaussianBlur stdDeviation="1.91406"/>
<feComposite in2="hardAlpha" operator="arithmetic" k2="-1" k3="1"/>
<feColorMatrix type="matrix" values="0 0 0 0 0.8 0 0 0 0 0.15 0 0 0 0 0.209091 0 0 0 0.7 0"/>
<feBlend mode="normal" in2="effect1_innerShadow_499_704" result="effect2_innerShadow_499_704"/>
<feColorMatrix in="SourceAlpha" type="matrix" values="0 0 0 0 0 0 0 0 0 0 0 0 0 0 0 0 0 0 127 0" result="hardAlpha"/>
<feOffset dx="0.820312" dy="1.64062"/>
<feGaussianBlur stdDeviation="2.1875"/>
<feComposite in2="hardAlpha" operator="arithmetic" k2="-1" k3="1"/>
<feColorMatrix type="matrix" values="0 0 0 0 1 0 0 0 0 0.948093 0 0 0 0 0.8125 0 0 0 0.1 0"/>
<feBlend mode="normal" in2="effect2_innerShadow_499_704" result="effect3_innerShadow_499_704"/>
<feColorMatrix in="SourceAlpha" type="matrix" values="0 0 0 0 0 0 0 0 0 0 0 0 0 0 0 0 0 0 127 0" result="hardAlpha"/>
<feOffset dx="0.4375" dy="0.820312"/>
<feGaussianBlur stdDeviation="0.820312"/>
<feComposite in2="hardAlpha" operator="arithmetic" k2="-1" k3="1"/>
<feColorMatrix type="matrix" values="0 0 0 0 1 0 0 0 0 0.921007 0 0 0 0 0.708333 0 0 0 0.5 0"/>
<feBlend mode="normal" in2="effect3_innerShadow_499_704" result="effect4_innerShadow_499_704"/>
</filter>
<filter id="filter4_d_499_704" x="9.60437" y="40.3334" width="14.588" height="12.5072" filterUnits="userSpaceOnUse" color-interpolation-filters="sRGB">
<feFlood flood-opacity="0" result="BackgroundImageFix"/>
<feColorMatrix in="SourceAlpha" type="matrix" values="0 0 0 0 0 0 0 0 0 0 0 0 0 0 0 0 0 0 127 0" result="hardAlpha"/>
<feOffset dx="0.328125" dy="-0.328125"/>
<feGaussianBlur stdDeviation="0.546875"/>
<feComposite in2="hardAlpha" operator="out"/>
<feColorMatrix type="matrix" values="0 0 0 0 0.620833 0 0 0 0 0.0827778 0 0 0 0 0.131692 0 0 0 0.2 0"/>
<feBlend mode="normal" in2="BackgroundImageFix" result="effect1_dropShadow_499_704"/>
<feBlend mode="normal" in="SourceGraphic" in2="effect1_dropShadow_499_704" result="shape"/>
</filter>
<filter id="filter5_d_499_704" x="33.469" y="40.3334" width="14.588" height="12.5072" filterUnits="userSpaceOnUse" color-interpolation-filters="sRGB">
<feFlood flood-opacity="0" result="BackgroundImageFix"/>
<feColorMatrix in="SourceAlpha" type="matrix" values="0 0 0 0 0 0 0 0 0 0 0 0 0 0 0 0 0 0 127 0" result="hardAlpha"/>
<feOffset dx="0.328125" dy="-0.328125"/>
<feGaussianBlur stdDeviation="0.546875"/>
<feComposite in2="hardAlpha" operator="out"/>
<feColorMatrix type="matrix" values="0 0 0 0 0.620833 0 0 0 0 0.0827778 0 0 0 0 0.131692 0 0 0 0.2 0"/>
<feBlend mode="normal" in2="BackgroundImageFix" result="effect1_dropShadow_499_704"/>
<feBlend mode="normal" in="SourceGraphic" in2="effect1_dropShadow_499_704" result="shape"/>
</filter>
<filter id="filter6_diii_499_704" x="23.9072" y="38.7605" width="9.38" height="4.90186" filterUnits="userSpaceOnUse" color-interpolation-filters="sRGB">
<feFlood flood-opacity="0" result="BackgroundImageFix"/>
<feColorMatrix in="SourceAlpha" type="matrix" values="0 0 0 0 0 0 0 0 0 0 0 0 0 0 0 0 0 0 127 0" result="hardAlpha"/>
<feOffset dy="0.492188"/>
<feGaussianBlur stdDeviation="0.546875"/>
<feComposite in2="hardAlpha" operator="out"/>
<feColorMatrix type="matrix" values="0 0 0 0 0.992157 0 0 0 0 0.8 0 0 0 0 0.298039 0 0 0 0.4 0"/>
<feBlend mode="normal" in2="BackgroundImageFix" result="effect1_dropShadow_499_704"/>
<feBlend mode="normal" in="SourceGraphic" in2="effect1_dropShadow_499_704" result="shape"/>
<feColorMatrix in="SourceAlpha" type="matrix" values="0 0 0 0 0 0 0 0 0 0 0 0 0 0 0 0 0 0 127 0" result="hardAlpha"/>
<feOffset dx="-0.0546875" dy="-0.382812"/>
<feComposite in2="hardAlpha" operator="arithmetic" k2="-1" k3="1"/>
<feColorMatrix type="matrix" values="0 0 0 0 0.25 0 0 0 0 0.0364583 0 0 0 0 0.0364583 0 0 0 0.5 0"/>
<feBlend mode="normal" in2="shape" result="effect2_innerShadow_499_704"/>
<feColorMatrix in="SourceAlpha" type="matrix" values="0 0 0 0 0 0 0 0 0 0 0 0 0 0 0 0 0 0 127 0" result="hardAlpha"/>
<feOffset dy="0.21875"/>
<feGaussianBlur stdDeviation="0.546875"/>
<feComposite in2="hardAlpha" operator="arithmetic" k2="-1" k3="1"/>
<feColorMatrix type="matrix" values="0 0 0 0 0 0 0 0 0 0 0 0 0 0 0 0 0 0 0.5 0"/>
<feBlend mode="normal" in2="effect2_innerShadow_499_704" result="effect3_innerShadow_499_704"/>
<feColorMatrix in="SourceAlpha" type="matrix" values="0 0 0 0 0 0 0 0 0 0 0 0 0 0 0 0 0 0 127 0" result="hardAlpha"/>
<feOffset dy="-0.21875"/>
<feComposite in2="hardAlpha" operator="arithmetic" k2="-1" k3="1"/>
<feColorMatrix type="matrix" values="0 0 0 0 1 0 0 0 0 0.943479 0 0 0 0 0.795833 0 0 0 1 0"/>
<feBlend mode="normal" in2="effect3_innerShadow_499_704" result="effect4_innerShadow_499_704"/>
</filter>
<filter id="filter7_ii_499_704" x="8.75781" y="21" width="40.4688" height="18.5868" filterUnits="userSpaceOnUse" color-interpolation-filters="sRGB">
<feFlood flood-opacity="0" result="BackgroundImageFix"/>
<feBlend mode="normal" in="SourceGraphic" in2="BackgroundImageFix" result="shape"/>
<feColorMatrix in="SourceAlpha" type="matrix" values="0 0 0 0 0 0 0 0 0 0 0 0 0 0 0 0 0 0 127 0" result="hardAlpha"/>
<feOffset dx="0.546875" dy="1.09375"/>
<feGaussianBlur stdDeviation="0.820312"/>
<feComposite in2="hardAlpha" operator="arithmetic" k2="-1" k3="1"/>
<feColorMatrix type="matrix" values="0 0 0 0 0 0 0 0 0 0 0 0 0 0 0 0 0 0 0.25 0"/>
<feBlend mode="normal" in2="shape" result="effect1_innerShadow_499_704"/>
<feColorMatrix in="SourceAlpha" type="matrix" values="0 0 0 0 0 0 0 0 0 0 0 0 0 0 0 0 0 0 127 0" result="hardAlpha"/>
<feOffset dx="0.984375" dy="1.3125"/>
<feGaussianBlur stdDeviation="1.42188"/>
<feComposite in2="hardAlpha" operator="arithmetic" k2="-1" k3="1"/>
<feColorMatrix type="matrix" values="0 0 0 0 1 0 0 0 0 1 0 0 0 0 1 0 0 0 0.3 0"/>
<feBlend mode="normal" in2="effect1_innerShadow_499_704" result="effect2_innerShadow_499_704"/>
</filter>
<radialGradient id="paint0_radial_499_704" cx="0" cy="0" r="1" gradientUnits="userSpaceOnUse" gradientTransform="translate(24.8086 9.92578) rotate(79.4874) scale(2.69762 2.65502)">
<stop stop-color="#FDCC4C"/>
<stop offset="1" stop-color="#FDCC4C" stop-opacity="0"/>
</radialGradient>
<radialGradient id="paint1_radial_499_704" cx="0" cy="0" r="1" gradientUnits="userSpaceOnUse" gradientTransform="translate(32.6547 10.9177) rotate(115.613) scale(2.69762 2.65502)">
<stop stop-color="#FDCC4C"/>
<stop offset="1" stop-color="#FDCC4C" stop-opacity="0"/>
</radialGradient>
<radialGradient id="paint2_radial_499_704" cx="0" cy="0" r="1" gradientUnits="userSpaceOnUse" gradientTransform="translate(29.0816 8.72522) rotate(74.8763) scale(2.69762 2.65502)">
<stop stop-color="#FDCC4C"/>
<stop offset="1" stop-color="#FDCC4C" stop-opacity="0"/>
</radialGradient>
<radialGradient id="paint3_radial_499_704" cx="0" cy="0" r="1" gradientUnits="userSpaceOnUse" gradientTransform="translate(28.4541 26.168) rotate(90) scale(14.7109 27.8475)">
<stop stop-color="#FFD881"/>
<stop offset="1" stop-color="#FFD881" stop-opacity="0.08"/>
</radialGradient>
<linearGradient id="paint4_linear_499_704" x1="17.8173" y1="48.8633" x2="13.5517" y2="46.3476" gradientUnits="userSpaceOnUse">
<stop stop-color="#F74757"/>
<stop offset="1" stop-color="#F74757" stop-opacity="0"/>
</linearGradient>
<linearGradient id="paint5_linear_499_704" x1="19.8408" y1="51.2695" x2="13.0049" y2="45.3906" gradientUnits="userSpaceOnUse">
<stop stop-color="#FFD881"/>
<stop offset="1" stop-color="#FFD881" stop-opacity="0"/>
</linearGradient>
<radialGradient id="paint6_radial_499_704" cx="0" cy="0" r="1" gradientUnits="userSpaceOnUse" gradientTransform="translate(19.8955 49.082) rotate(148.393) scale(2.92169 2.87554)">
<stop stop-color="white" stop-opacity="0.6"/>
<stop offset="1" stop-color="white" stop-opacity="0"/>
</radialGradient>
<radialGradient id="paint7_radial_499_704" cx="0" cy="0" r="1" gradientUnits="userSpaceOnUse" gradientTransform="translate(17.1884 51.5976) rotate(-71.5651) scale(1.72937 3.51295)">
<stop stop-color="#CE414E"/>
<stop offset="1" stop-color="#CE414E" stop-opacity="0"/>
</radialGradient>
<linearGradient id="paint8_linear_499_704" x1="39.1878" y1="48.8633" x2="43.4534" y2="46.3476" gradientUnits="userSpaceOnUse">
<stop stop-color="#F74757"/>
<stop offset="1" stop-color="#F74757" stop-opacity="0"/>
</linearGradient>
<linearGradient id="paint9_linear_499_704" x1="37.1643" y1="51.2695" x2="44.0003" y2="45.3906" gradientUnits="userSpaceOnUse">
<stop stop-color="#FFD881"/>
<stop offset="1" stop-color="#FFD881" stop-opacity="0"/>
</linearGradient>
<radialGradient id="paint10_radial_499_704" cx="0" cy="0" r="1" gradientUnits="userSpaceOnUse" gradientTransform="translate(37.1097 49.082) rotate(31.6075) scale(2.92169 2.87554)">
<stop stop-color="white" stop-opacity="0.6"/>
<stop offset="1" stop-color="white" stop-opacity="0"/>
</radialGradient>
<radialGradient id="paint11_radial_499_704" cx="0" cy="0" r="1" gradientUnits="userSpaceOnUse" gradientTransform="translate(39.8167 51.5976) rotate(-108.435) scale(1.72937 3.51295)">
<stop stop-color="#CE414E"/>
<stop offset="1" stop-color="#CE414E" stop-opacity="0"/>
</radialGradient>
<linearGradient id="paint12_linear_499_704" x1="12.5859" y1="22.3672" x2="45.2344" y2="36.2852" gradientUnits="userSpaceOnUse">
<stop stop-color="#FFDE89"/>
<stop offset="0.177083" stop-color="#FFF0C8"/>
<stop offset="0.317708" stop-color="#FFDE89"/>
<stop offset="0.822917" stop-color="#FFF0C8"/>
<stop offset="0.994792" stop-color="#FFDE89"/>
</linearGradient>
<clipPath id="clip0_499_704">
<rect width="56" height="56" fill="white" transform="translate(0.5)"/>
</clipPath>
</defs>
</svg>
