<svg width="52" height="54" viewBox="0 0 52 54" fill="none"
    xmlns="http://www.w3.org/2000/svg">
    <g clip-path="url(#clip0_2_1566)" filter="url(#filter0_df_2_1566)">
        <path d="M43.4022 18.9864C43.5467 18.5407 43.3586 18.0523 42.9528 17.818L36.3178 13.9873L33.4619 13.8693L31.8072 11.3831L25.7168 7.86686C25.1149 7.51933 24.3501 7.87941 24.2166 8.56152C21.9209 20.2903 17.4716 25.6107 8.5442 33.1325C8.01168 33.5812 8.08107 34.4253 8.68412 34.7735L14.2689 37.9979L18.0824 37.9033L19.281 40.8916L25.9215 44.7255C26.3248 44.9583 26.8379 44.8795 27.1549 44.5384C35.3112 35.763 39.7185 30.3414 43.4022 18.9864Z" fill="url(#paint0_linear_2_1566)"/>
        <g filter="url(#filter1_d_2_1566)">
            <path d="M35.7855 22.8651L29.4348 26.1655L31.8535 27.5619L31.3448 28.4431L28.4685 26.7824L27.4713 28.5095L30.3477 30.1702L29.839 31.0513L26.9626 29.3907L25.3652 32.1575L23.927 31.3271L25.5244 28.5603L22.6318 26.8902L23.1405 26.0091L26.0332 27.6792L27.0303 25.9521L24.1376 24.282L24.6463 23.4009L27.0814 24.8068L26.7643 17.6567L28.3822 18.5908L28.5735 24.9398L34.1676 21.931L35.7855 22.8651Z" fill="white"/>
        </g>
    </g>
    <defs>
        <filter id="filter0_df_2_1566" x="-0.559692" y="-0.5" width="53.5597" height="56.0553" filterUnits="userSpaceOnUse" color-interpolation-filters="sRGB">
            <feFlood flood-opacity="0" result="BackgroundImageFix"/>
            <feColorMatrix in="SourceAlpha" type="matrix" values="0 0 0 0 0 0 0 0 0 0 0 0 0 0 0 0 0 0 127 0" result="hardAlpha"/>
            <feOffset dy="1"/>
            <feGaussianBlur stdDeviation="4"/>
            <feComposite in2="hardAlpha" operator="out"/>
            <feColorMatrix type="matrix" values="0 0 0 0 0 0 0 0 0 0 0 0 0 0 0 0 0 0 0.08 0"/>
            <feBlend mode="normal" in2="BackgroundImageFix" result="effect1_dropShadow_2_1566"/>
            <feBlend mode="normal" in="SourceGraphic" in2="effect1_dropShadow_2_1566" result="shape"/>
            <feGaussianBlur stdDeviation="0.5" result="effect2_foregroundBlur_2_1566"/>
        </filter>
        <filter id="filter1_d_2_1566" x="21.8317" y="17.6567" width="13.9538" height="15.3007" filterUnits="userSpaceOnUse" color-interpolation-filters="sRGB">
            <feFlood flood-opacity="0" result="BackgroundImageFix"/>
            <feColorMatrix in="SourceAlpha" type="matrix" values="0 0 0 0 0 0 0 0 0 0 0 0 0 0 0 0 0 0 127 0" result="hardAlpha"/>
            <feOffset dx="-0.5" dy="0.5"/>
            <feGaussianBlur stdDeviation="0.15"/>
            <feComposite in2="hardAlpha" operator="out"/>
            <feColorMatrix type="matrix" values="0 0 0 0 1 0 0 0 0 0.635294 0 0 0 0 0 0 0 0 1 0"/>
            <feBlend mode="normal" in2="BackgroundImageFix" result="effect1_dropShadow_2_1566"/>
            <feBlend mode="normal" in="SourceGraphic" in2="effect1_dropShadow_2_1566" result="shape"/>
        </filter>
        <linearGradient id="paint0_linear_2_1566" x1="20.7301" y1="20.2963" x2="36.3104" y2="33.7274" gradientUnits="userSpaceOnUse">
            <stop stop-color="#FAE5B4"/>
            <stop offset="1" stop-color="#F8D46B"/>
        </linearGradient>
        <clipPath id="clip0_2_1566">
            <rect width="25" height="31.8182" fill="white" transform="matrix(-0.866025 -0.5 -0.5 0.866025 45 19)"/>
        </clipPath>
    </defs>
</svg>
