<svg width="20" height="20" viewBox="0 0 20 20" fill="none"
    xmlns="http://www.w3.org/2000/svg">
    <rect width="20" height="20" fill="#FEF9DC"/>
    <g opacity="0.8">
        <path fill-rule="evenodd" clip-rule="evenodd" d="M10.1156 3.81233C10.9927 3.08142 12.3311 3.60956 12.4727 4.74246C12.9091 8.23391 12.9091 11.7661 12.4727 15.2576C12.3311 16.3905 10.9927 16.9186 10.1156 16.1877L6.49833 13.1733C6.46089 13.1421 6.4137 13.125 6.36496 13.125H3.33333C2.52792 13.125 1.875 12.4721 1.875 11.6667V8.33334C1.875 7.52793 2.52792 6.87501 3.33333 6.87501H6.36496C6.4137 6.87501 6.46089 6.85792 6.49833 6.82672L10.1156 3.81233ZM11.2323 4.8975C11.2133 4.74538 11.0336 4.67447 10.9158 4.77261L7.29856 7.787C7.03648 8.0054 6.70612 8.12501 6.36496 8.12501H3.33333C3.21827 8.12501 3.125 8.21829 3.125 8.33334V11.6667C3.125 11.7817 3.21827 11.875 3.33333 11.875H6.36496C6.70612 11.875 7.03648 11.9946 7.29856 12.213L10.9158 15.2274C11.0336 15.3256 11.2133 15.2546 11.2323 15.1025C11.6559 11.714 11.6559 8.28599 11.2323 4.8975Z" fill="#A05124"/>
        <path d="M16.5901 4.95482C16.9179 4.84643 17.2714 5.02423 17.3798 5.35195C17.8635 6.81443 18.125 8.37731 18.125 10C18.125 11.6227 17.8635 13.1856 17.3798 14.6481C17.2714 14.9758 16.9179 15.1536 16.5901 15.0452C16.2624 14.9368 16.0846 14.5833 16.193 14.2556C16.6353 12.9181 16.875 11.4877 16.875 10C16.875 8.51235 16.6353 7.0819 16.193 5.74446C16.0846 5.41674 16.2624 5.06321 16.5901 4.95482Z" fill="#A05124"/>
        <path d="M15.0269 6.62309C14.9079 6.29909 14.5487 6.13294 14.2247 6.25199C13.9007 6.37103 13.7346 6.73019 13.8536 7.05419C14.1907 7.97163 14.375 8.9636 14.375 10C14.375 10.8597 14.2482 11.6886 14.0127 12.4697C13.9996 12.5133 13.9861 12.5566 13.9723 12.5998C13.9351 12.7163 13.8956 12.8316 13.8536 12.9458C13.7346 13.2698 13.9007 13.629 14.2247 13.748C14.5487 13.8671 14.9079 13.7009 15.0269 13.3769C15.0751 13.2459 15.1205 13.1135 15.1631 12.9799C15.179 12.9303 15.1944 12.8805 15.2095 12.8306C15.4799 11.9337 15.625 10.9832 15.625 10C15.625 8.81435 15.414 7.67657 15.0269 6.62309Z" fill="#A05124"/>
    </g>
</svg>
