<svg width="139" height="38" viewBox="0 0 139 38" fill="none"
    xmlns="http://www.w3.org/2000/svg">
    <path d="M0 9C0 4.02944 4.02944 0 9 0H138.923H138.638C133.542 0 129.125 3.52928 128 8.5V8.5L121.737 31.3767C120.666 35.288 117.111 38 113.056 38H0V9Z" fill="white"/>
    <path d="M0 9C0 4.02944 4.02944 0 9 0H138.923H138.638C133.542 0 129.125 3.52928 128 8.5V8.5L121.737 31.3767C120.666 35.288 117.111 38 113.056 38H0V9Z" fill="url(#paint0_linear_2_1647)"/>
    <defs>
        <linearGradient id="paint0_linear_2_1647" x1="34.4615" y1="0" x2="34.4615" y2="38" gradientUnits="userSpaceOnUse">
            <stop stop-color="#FAC82E" stop-opacity="0.4"/>
            <stop offset="1" stop-color="#FAC82E" stop-opacity="0.05"/>
        </linearGradient>
    </defs>
</svg>
