<svg width="24" height="24" viewBox="0 0 24 24" fill="none"
    xmlns="http://www.w3.org/2000/svg">
    <path fill-rule="evenodd" clip-rule="evenodd" d="M3 12C3 7.02944 7.02944 3 12 3C16.9706 3 21 7.02944 21 12C21 16.9706 16.9706 21 12 21C7.02944 21 3 16.9706 3 12ZM12.7941 6.70588C12.7941 6.2673 12.4386 5.91176 12 5.91176C11.5614 5.91176 11.2059 6.2673 11.2059 6.70588V12C11.2059 12.2738 11.3469 12.5283 11.5791 12.6734L14.5 14.5C14.8719 14.7324 15.3618 14.6194 15.5943 14.2475C15.8267 13.8756 15.7137 13.3856 15.3418 13.1532L12.7941 11.5599V6.70588Z" fill="url(#paint0_linear_2_480)"/>
    <defs>
        <linearGradient id="paint0_linear_2_480" x1="4.5" y1="3" x2="20" y2="20" gradientUnits="userSpaceOnUse">
            <stop stop-color="#FF8000"/>
            <stop offset="1" stop-color="#FFA800"/>
        </linearGradient>
    </defs>
</svg>
