<svg width="18" height="18" viewBox="0 0 18 18" fill="none"
    xmlns="http://www.w3.org/2000/svg">
    <path fill-rule="evenodd" clip-rule="evenodd" d="M0 9C0 4.02944 4.02944 0 9 0C13.9706 0 18 4.02944 18 9C18 13.9706 13.9706 18 9 18C4.02944 18 0 13.9706 0 9ZM9.79412 3.70588C9.79412 3.2673 9.43858 2.91176 9 2.91176C8.56142 2.91176 8.20588 3.2673 8.20588 3.70588V9C8.20588 9.2738 8.34693 9.5283 8.57912 9.67341L11.5 11.5C11.8719 11.7324 12.3618 11.6194 12.5943 11.2475C12.8267 10.8756 12.7137 10.3856 12.3418 10.1532L9.79412 8.55986V3.70588Z" fill="url(#paint0_linear_2_481)"/>
    <defs>
        <linearGradient id="paint0_linear_2_481" x1="1.5" y1="-6.43179e-08" x2="17" y2="17" gradientUnits="userSpaceOnUse">
            <stop stop-color="#FF8000"/>
            <stop offset="1" stop-color="#FFA800"/>
        </linearGradient>
    </defs>
</svg>
