<svg viewBox="0 0 343 129" fill="none"
  xmlns="http://www.w3.org/2000/svg">
  <path d="M80.3631 7.30695C81.998 4.63166 84.9073 3 88.0426 3H255.948C259.083 3 261.992 4.63166 263.627 7.30695C267.292 13.3041 262.976 21 255.948 21H88.0426C81.0143 21 76.6981 13.3041 80.3631 7.30695Z" fill="url(#paint0_radial_475_1063)"/>
  <path d="M80.3631 7.30695C81.998 4.63166 84.9073 3 88.0426 3H255.948C259.083 3 261.992 4.63166 263.627 7.30695C267.292 13.3041 262.976 21 255.948 21H88.0426C81.0143 21 76.6981 13.3041 80.3631 7.30695Z" fill="url(#paint1_radial_475_1063)" fill-opacity="0.4"/>
  <g opacity="0.8" filter="url(#filter0_bii_475_1063)">
    <rect y="9" width="343" height="120" rx="16" fill="#F2E0C0"/>
  </g>
  <path d="M10.9951 18C11.2777 14.6087 14.1129 12.0003 17.5159 12.0007L19.4951 12.001H326.495L327.653 12.3167C330.217 13.0153 331.995 15.3433 331.995 18L332.693 17.8359C336.578 16.9217 340.244 20.0163 339.995 24V112.001C339.995 119.733 333.727 126.001 325.995 126.001H16.9951C9.26312 126.001 2.99512 119.733 2.99512 112.001V25V23.6476C2.99512 20.6864 5.15555 18.168 8.08234 17.7175L9.49512 17.5L10.9951 18Z" fill="#FDFAF5" fill-opacity="0.9"/>
  <path d="M10.837 18.4743L11.4406 18.6755L11.4934 18.0415C11.7544 14.9094 14.3729 12.5004 17.5159 12.5007L19.4951 12.501H19.4951H326.428L327.522 12.7991C329.868 13.4384 331.495 15.5688 331.495 18V18.6313L332.11 18.4867L332.807 18.3226C336.366 17.4852 339.724 20.3198 339.496 23.9688L339.495 23.9844V24V112.001C339.495 119.457 333.451 125.501 325.995 125.501H16.9951C9.53927 125.501 3.49512 119.457 3.49512 112.001V25V23.6476C3.49512 20.9331 5.47551 18.6246 8.1584 18.2116L9.45169 18.0126L10.837 18.4743Z" stroke="url(#paint2_linear_475_1063)" stroke-opacity="0.8"/>
  <path fill-rule="evenodd" clip-rule="evenodd" d="M17.5208 12.0015C14.1402 12.0015 11.324 14.5928 11.0433 17.9617L11.0334 18.08C10.6052 17.8112 10.1249 17.6165 9.60993 17.5135C9.55613 17.5028 9.50109 17.4996 9.44641 17.5042L8.9602 17.5447C5.59131 17.8255 3 20.6417 3 24.0223V25.6594C3 25.9355 3.22386 26.1594 3.5 26.1594C3.77614 26.1594 4 25.9355 4 25.6594L4 24.0223C4 21.1618 6.19264 18.7788 9.04325 18.5413L9.46939 18.5057C10.7445 18.7839 11.7312 19.8004 11.9686 21.0875L12 21.2577V21.633C12 23.2172 10.7158 24.5015 9.13158 24.5015C8.32472 24.5015 7.71098 23.777 7.84363 22.9811L7.90205 22.6305C7.9442 22.3777 8.0643 22.1443 8.24558 21.963L8.35355 21.855C8.54882 21.6598 8.54882 21.3432 8.35355 21.1479C8.15829 20.9527 7.84171 20.9527 7.64645 21.1479L7.53847 21.2559C7.20982 21.5845 6.99207 22.0077 6.91566 22.4661L6.85723 22.8167C6.623 24.2221 7.70678 25.5015 9.13158 25.5015C11.2681 25.5015 13 23.7695 13 21.633V21.4248C13.4252 21.6785 13.899 21.8602 14.4046 21.9535L14.6198 21.9932L14.6648 22.0015H14.7105H15.1316C17.268 22.0015 19 20.2695 19 18.133C19 16.7082 17.7206 15.6245 16.3152 15.8587L15.9647 15.9171C15.5062 15.9935 15.0831 16.2113 14.7544 16.5399L14.6464 16.6479C14.4512 16.8432 14.4512 17.1598 14.6464 17.355C14.8417 17.5503 15.1583 17.5503 15.3536 17.355L15.4615 17.247C15.6428 17.0658 15.8762 16.9457 16.1291 16.9035L16.4796 16.8451C17.2755 16.7124 18 17.3262 18 18.133C18 19.7172 16.7158 21.0015 15.1316 21.0015H14.7563L14.586 20.9701C13.2989 20.7326 12.2824 19.746 12.0043 18.4709L12.0398 18.0447C12.2773 15.1941 14.6603 13.0015 17.5208 13.0015H19.1579C19.434 13.0015 19.6579 12.7776 19.6579 12.5015C19.6579 12.2253 19.434 12.0015 19.1579 12.0015H17.5208ZM16 25.0015C16 25.5538 15.5523 26.0015 15 26.0015C14.4477 26.0015 14 25.5538 14 25.0015C14 24.4492 14.4477 24.0015 15 24.0015C15.5523 24.0015 16 24.4492 16 25.0015ZM340.158 24.0223C340.158 20.6417 337.567 17.8255 334.198 17.5447L333.712 17.5042C333.657 17.4996 333.602 17.5028 333.548 17.5135C333.033 17.6165 332.553 17.8112 332.125 18.08L332.115 17.9617C331.834 14.5928 329.018 12.0015 325.637 12.0015H324C323.724 12.0015 323.5 12.2253 323.5 12.5015C323.5 12.7776 323.724 13.0015 324 13.0015H325.637C328.498 13.0015 330.881 15.1941 331.118 18.0447L331.154 18.4709C330.876 19.746 329.859 20.7326 328.572 20.9701L328.402 21.0015H328.027C326.442 21.0015 325.158 19.7172 325.158 18.133C325.158 17.3262 325.883 16.7124 326.679 16.8451L327.029 16.9035C327.282 16.9457 327.515 17.0658 327.697 17.247L327.805 17.355C328 17.5503 328.316 17.5503 328.512 17.355C328.707 17.1598 328.707 16.8432 328.512 16.6479L328.404 16.5399C328.075 16.2113 327.652 15.9935 327.194 15.9171L326.843 15.8587C325.438 15.6245 324.158 16.7082 324.158 18.133C324.158 20.2695 325.89 22.0015 328.027 22.0015H328.448H328.493L328.538 21.9932L328.754 21.9535C329.259 21.8602 329.733 21.6785 330.158 21.4248V21.633C330.158 23.7695 331.89 25.5015 334.027 25.5015C335.451 25.5015 336.535 24.2221 336.301 22.8167L336.243 22.4661C336.166 22.0077 335.948 21.5845 335.62 21.2559L335.512 21.1479C335.316 20.9527 335 20.9527 334.805 21.1479C334.609 21.3432 334.609 21.6598 334.805 21.855L334.913 21.963C335.094 22.1443 335.214 22.3777 335.256 22.6305L335.315 22.9811C335.447 23.777 334.833 24.5015 334.027 24.5015C332.442 24.5015 331.158 23.2172 331.158 21.633V21.2577L331.19 21.0875C331.427 19.8004 332.414 18.7839 333.689 18.5057L334.115 18.5413C336.966 18.7788 339.158 21.1618 339.158 24.0223V25.6594C339.158 25.9355 339.382 26.1594 339.658 26.1594C339.934 26.1594 340.158 25.9355 340.158 25.6594V24.0223ZM328.158 26.0015C327.606 26.0015 327.158 25.5538 327.158 25.0015C327.158 24.4492 327.606 24.0015 328.158 24.0015C328.71 24.0015 329.158 24.4492 329.158 25.0015C329.158 25.5538 328.71 26.0015 328.158 26.0015Z" fill="#F5CFA3"/>
  <g filter="url(#filter1_diii_475_1063)">
    <path d="M88.9951 3H254.995C251.338 3.60951 248.37 6.29158 247.395 9.86843L244.014 22.2624C241.641 30.9636 233.738 37 224.719 37H119.271C110.252 37 102.349 30.9636 99.9758 22.2623L96.5956 9.86843C95.6201 6.29157 92.6522 3.60951 88.9951 3Z" fill="#FBE9D8"/>
  </g>
  <path fill-rule="evenodd" clip-rule="evenodd" d="M134.581 18.1213L132.46 16L130.338 18.1213L132.46 20.2426L134.581 18.1213ZM135.288 18.8284C135.679 18.4379 135.679 17.8047 135.288 17.4142L133.167 15.2929C132.776 14.9024 132.143 14.9024 131.753 15.2929L129.631 17.4142C129.568 17.4777 129.515 17.5476 129.472 17.6218H108.995V18.6218H129.472C129.515 18.6957 129.568 18.7652 129.631 18.8284L131.753 20.9497C132.143 21.3403 132.776 21.3403 133.167 20.9497L135.288 18.8284Z" fill="url(#paint3_linear_475_1063)"/>
  <path fill-rule="evenodd" clip-rule="evenodd" d="M209.409 18.1213L211.53 16L213.652 18.1213L211.53 20.2426L209.409 18.1213ZM208.702 18.8284C208.312 18.4379 208.312 17.8047 208.702 17.4142L210.823 15.2929C211.214 14.9024 211.847 14.9024 212.238 15.2929L214.359 17.4142C214.422 17.4777 214.476 17.5476 214.518 17.6218H234.995V18.6218H214.518C214.475 18.6957 214.422 18.7652 214.359 18.8284L212.238 20.9497C211.847 21.3403 211.214 21.3403 210.823 20.9497L208.702 18.8284Z" fill="url(#paint4_linear_475_1063)"/>
  <defs>
    <filter id="filter0_bii_475_1063" x="-40" y="-31" width="423" height="200" filterUnits="userSpaceOnUse" color-interpolation-filters="sRGB">
      <feFlood flood-opacity="0" result="BackgroundImageFix"/>
      <feGaussianBlur in="BackgroundImageFix" stdDeviation="20"/>
      <feComposite in2="SourceAlpha" operator="in" result="effect1_backgroundBlur_475_1063"/>
      <feBlend mode="normal" in="SourceGraphic" in2="effect1_backgroundBlur_475_1063" result="shape"/>
      <feColorMatrix in="SourceAlpha" type="matrix" values="0 0 0 0 0 0 0 0 0 0 0 0 0 0 0 0 0 0 127 0" result="hardAlpha"/>
      <feOffset dx="-2" dy="-3"/>
      <feGaussianBlur stdDeviation="1.5"/>
      <feComposite in2="hardAlpha" operator="arithmetic" k2="-1" k3="1"/>
      <feColorMatrix type="matrix" values="0 0 0 0 0.925 0 0 0 0 0.717307 0 0 0 0 0.412396 0 0 0 0.9 0"/>
      <feBlend mode="normal" in2="shape" result="effect2_innerShadow_475_1063"/>
      <feColorMatrix in="SourceAlpha" type="matrix" values="0 0 0 0 0 0 0 0 0 0 0 0 0 0 0 0 0 0 127 0" result="hardAlpha"/>
      <feOffset dx="1" dy="1"/>
      <feGaussianBlur stdDeviation="3.5"/>
      <feComposite in2="hardAlpha" operator="arithmetic" k2="-1" k3="1"/>
      <feColorMatrix type="matrix" values="0 0 0 0 0.979167 0 0 0 0 0.948008 0 0 0 0 0.901649 0 0 0 0.6 0"/>
      <feBlend mode="normal" in2="effect2_innerShadow_475_1063" result="effect3_innerShadow_475_1063"/>
    </filter>
    <filter id="filter1_diii_475_1063" x="85.9951" y="0" width="174" height="42" filterUnits="userSpaceOnUse" color-interpolation-filters="sRGB">
      <feFlood flood-opacity="0" result="BackgroundImageFix"/>
      <feColorMatrix in="SourceAlpha" type="matrix" values="0 0 0 0 0 0 0 0 0 0 0 0 0 0 0 0 0 0 127 0" result="hardAlpha"/>
      <feOffset dx="1" dy="1"/>
      <feGaussianBlur stdDeviation="2"/>
      <feComposite in2="hardAlpha" operator="out"/>
      <feColorMatrix type="matrix" values="0 0 0 0 0.7875 0 0 0 0 0.457648 0 0 0 0 0.160781 0 0 0 0.16 0"/>
      <feBlend mode="normal" in2="BackgroundImageFix" result="effect1_dropShadow_475_1063"/>
      <feBlend mode="normal" in="SourceGraphic" in2="effect1_dropShadow_475_1063" result="shape"/>
      <feColorMatrix in="SourceAlpha" type="matrix" values="0 0 0 0 0 0 0 0 0 0 0 0 0 0 0 0 0 0 127 0" result="hardAlpha"/>
      <feOffset dx="-1" dy="-2"/>
      <feComposite in2="hardAlpha" operator="arithmetic" k2="-1" k3="1"/>
      <feColorMatrix type="matrix" values="0 0 0 0 0.920833 0 0 0 0 0.779498 0 0 0 0 0.556337 0 0 0 0.7 0"/>
      <feBlend mode="normal" in2="shape" result="effect2_innerShadow_475_1063"/>
      <feColorMatrix in="SourceAlpha" type="matrix" values="0 0 0 0 0 0 0 0 0 0 0 0 0 0 0 0 0 0 127 0" result="hardAlpha"/>
      <feOffset dy="5"/>
      <feGaussianBlur stdDeviation="4"/>
      <feComposite in2="hardAlpha" operator="arithmetic" k2="-1" k3="1"/>
      <feColorMatrix type="matrix" values="0 0 0 0 1 0 0 0 0 0.93 0 0 0 0 0.9 0 0 0 0.3 0"/>
      <feBlend mode="normal" in2="effect2_innerShadow_475_1063" result="effect3_innerShadow_475_1063"/>
      <feColorMatrix in="SourceAlpha" type="matrix" values="0 0 0 0 0 0 0 0 0 0 0 0 0 0 0 0 0 0 127 0" result="hardAlpha"/>
      <feOffset dy="3"/>
      <feGaussianBlur stdDeviation="1.5"/>
      <feComposite in2="hardAlpha" operator="arithmetic" k2="-1" k3="1"/>
      <feColorMatrix type="matrix" values="0 0 0 0 1 0 0 0 0 1 0 0 0 0 1 0 0 0 0.5 0"/>
      <feBlend mode="normal" in2="effect3_innerShadow_475_1063" result="effect4_innerShadow_475_1063"/>
    </filter>
    <radialGradient id="paint0_radial_475_1063" cx="0" cy="0" r="1" gradientUnits="userSpaceOnUse" gradientTransform="translate(86.4951 17) rotate(145.008) scale(12.2066 37.1846)">
      <stop stop-color="#EFCDA5"/>
      <stop offset="0.605154" stop-color="#E1A162"/>
    </radialGradient>
    <radialGradient id="paint1_radial_475_1063" cx="0" cy="0" r="1" gradientUnits="userSpaceOnUse" gradientTransform="translate(256.495 13) rotate(-162.897) scale(6.80073 26.9324)">
      <stop offset="0.271011" stop-color="#DDA06B"/>
      <stop offset="1" stop-color="#EFCDA5"/>
    </radialGradient>
    <linearGradient id="paint2_linear_475_1063" x1="4" y1="57.5005" x2="339" y2="57.5005" gradientUnits="userSpaceOnUse">
      <stop offset="0.0657387" stop-color="#F3C48F"/>
      <stop offset="0.169486" stop-color="#F3C48F" stop-opacity="0.2"/>
      <stop offset="0.277631" stop-color="#F3C48F" stop-opacity="0.8"/>
      <stop offset="0.726061" stop-color="#F3C48F" stop-opacity="0.4"/>
      <stop offset="0.931207" stop-color="#F3C48F"/>
    </linearGradient>
    <linearGradient id="paint3_linear_475_1063" x1="135.581" y1="11.8756" x2="111.488" y2="11.8756" gradientUnits="userSpaceOnUse">
      <stop stop-color="#C55038" stop-opacity="0.6"/>
      <stop offset="1" stop-color="#C55038" stop-opacity="0"/>
    </linearGradient>
    <linearGradient id="paint4_linear_475_1063" x1="208.409" y1="11.8756" x2="232.503" y2="11.8756" gradientUnits="userSpaceOnUse">
      <stop stop-color="#C55038" stop-opacity="0.6"/>
      <stop offset="1" stop-color="#C55038" stop-opacity="0"/>
    </linearGradient>
  </defs>
</svg>
