<svg width="111" height="120" viewBox="0 0 111 120" fill="none"
    xmlns="http://www.w3.org/2000/svg">
    <g clip-path="url(#clip0_2_1555)">
        <path d="M0.5 34.9996C3.5 -11.0002 106.5 -11.0005 110.5 34.9996V103.001C110.5 111.838 103.337 119.001 94.5 119.001H16.5C7.66344 119.001 0.5 111.838 0.5 103.001V34.9996Z" fill="#C03021"/>
        <rect x="8" width="96" height="66" rx="13" fill="#F9E7E6"/>
        <g filter="url(#filter0_i_2_1555)">
            <path d="M0.5 41.0012C15.5617 70.9991 92.5098 72.2517 110.5 41.0012V103.001C110.5 111.838 103.337 119.001 94.5 119.001H16.5C7.66344 119.001 0.5 111.838 0.5 103.001V41.0012Z" fill="#F74757"/>
            <path d="M0.5 41.0012C15.5617 70.9991 92.5098 72.2517 110.5 41.0012V103.001C110.5 111.838 103.337 119.001 94.5 119.001H16.5C7.66344 119.001 0.5 111.838 0.5 103.001V41.0012Z" fill="url(#paint0_linear_2_1555)" fill-opacity="0.5"/>
            <path d="M0.5 41.0012C15.5617 70.9991 92.5098 72.2517 110.5 41.0012V103.001C110.5 111.838 103.337 119.001 94.5 119.001H16.5C7.66344 119.001 0.5 111.838 0.5 103.001V41.0012Z" fill="url(#paint1_linear_2_1555)" fill-opacity="0.2"/>
        </g>
    </g>
    <defs>
        <filter id="filter0_i_2_1555" x="0.5" y="41.0012" width="110" height="78" filterUnits="userSpaceOnUse" color-interpolation-filters="sRGB">
            <feFlood flood-opacity="0" result="BackgroundImageFix"/>
            <feBlend mode="normal" in="SourceGraphic" in2="BackgroundImageFix" result="shape"/>
            <feColorMatrix in="SourceAlpha" type="matrix" values="0 0 0 0 0 0 0 0 0 0 0 0 0 0 0 0 0 0 127 0" result="hardAlpha"/>
            <feOffset/>
            <feGaussianBlur stdDeviation="4"/>
            <feComposite in2="hardAlpha" operator="arithmetic" k2="-1" k3="1"/>
            <feColorMatrix type="matrix" values="0 0 0 0 1 0 0 0 0 1 0 0 0 0 1 0 0 0 0.6 0"/>
            <feBlend mode="normal" in2="shape" result="effect1_innerShadow_2_1555"/>
        </filter>
        <linearGradient id="paint0_linear_2_1555" x1="55.5" y1="26.5" x2="55.5" y2="84" gradientUnits="userSpaceOnUse">
            <stop stop-color="#FF8A00"/>
            <stop offset="1" stop-color="#FF8A00" stop-opacity="0"/>
        </linearGradient>
        <linearGradient id="paint1_linear_2_1555" x1="110.5" y1="72" x2="49.5" y2="71" gradientUnits="userSpaceOnUse">
            <stop stop-color="#F50058"/>
            <stop offset="0.994792" stop-color="#FF005C" stop-opacity="0"/>
        </linearGradient>
        <clipPath id="clip0_2_1555">
            <rect width="110" height="119.001" fill="white" transform="translate(0.5)"/>
        </clipPath>
    </defs>
</svg>
