<svg width="21" height="22" viewBox="0 0 21 22" fill="none" xmlns="http://www.w3.org/2000/svg">
<path fill-rule="evenodd" clip-rule="evenodd" d="M3.73529 3.76179C3.73529 1.68421 5.44715 0 7.55882 0C8.74144 0 9.79865 0.528234 10.5 1.35797C11.2014 0.528234 12.2586 0 13.4412 0C15.5529 0 17.2647 1.68421 17.2647 3.76179C17.2647 4.63483 16.9624 5.43841 16.4552 6.07674H17.5588C19.1832 6.07674 20.5 7.37229 20.5 8.97043V10.4173C20.5 10.8967 20.105 11.2854 19.6176 11.2854H11.7353C11.5404 11.2854 11.3824 11.1299 11.3824 10.9381V6.93222C11.0495 6.72254 10.7518 6.46351 10.5 6.16562C10.2482 6.46351 9.95052 6.72254 9.61765 6.93222V10.9381C9.61765 11.1299 9.45963 11.2854 9.26471 11.2854H1.38235C0.895043 11.2854 0.5 10.8967 0.5 10.4173V8.97043C0.5 7.37229 1.81681 6.07674 3.44118 6.07674H4.5448C4.03758 5.43841 3.73529 4.63483 3.73529 3.76179ZM9.61765 3.76179C9.61765 2.64309 8.69588 1.73621 7.55882 1.73621C6.42177 1.73621 5.5 2.64309 5.5 3.76179C5.5 4.88049 6.42177 5.78737 7.55882 5.78737C8.69588 5.78737 9.61765 4.88049 9.61765 3.76179ZM11.3824 3.76179C11.3824 4.88049 12.3041 5.78737 13.4412 5.78737C14.5782 5.78737 15.5 4.88049 15.5 3.76179C15.5 2.64309 14.5782 1.73621 13.4412 1.73621C12.3041 1.73621 11.3824 2.64309 11.3824 3.76179Z" fill="url(#paint0_linear_2_2974)"/>
<path d="M9.61765 13.1952C9.61765 13.0034 9.45963 12.848 9.26471 12.848H3.02825C2.55101 12.848 2.14321 13.1863 2.0626 13.6491C1.80137 15.1489 1.80137 16.6816 2.0626 18.1815L2.3265 19.6966C2.50419 20.7168 3.34636 21.4984 4.39191 21.6133L5.64499 21.7511C6.84606 21.8832 8.05131 21.9661 9.25762 21.9999C9.45525 22.0054 9.61765 21.8487 9.61765 21.6541L9.61765 13.1952Z" fill="url(#paint1_linear_2_2974)"/>
<path d="M11.7424 21.9999C11.5448 22.0054 11.3824 21.8487 11.3824 21.6541L11.3824 13.1952C11.3824 13.0034 11.5404 12.848 11.7353 12.848H17.9717C18.449 12.848 18.8568 13.1863 18.9374 13.6491C19.1986 15.1489 19.1986 16.6816 18.9374 18.1815L18.6735 19.6966C18.4958 20.7168 17.6536 21.4984 16.6081 21.6133L15.355 21.7511C14.1539 21.8832 12.9487 21.9661 11.7424 21.9999Z" fill="url(#paint2_linear_2_2974)"/>
<defs>
<linearGradient id="paint0_linear_2_2974" x1="18.7353" y1="21.1239" x2="2.58322" y2="1.18878" gradientUnits="userSpaceOnUse">
<stop stop-color="#F74757"/>
<stop offset="1" stop-color="#F74757" stop-opacity="0.7"/>
</linearGradient>
<linearGradient id="paint1_linear_2_2974" x1="18.7353" y1="21.1239" x2="2.58322" y2="1.18878" gradientUnits="userSpaceOnUse">
<stop stop-color="#F74757"/>
<stop offset="1" stop-color="#F74757" stop-opacity="0.7"/>
</linearGradient>
<linearGradient id="paint2_linear_2_2974" x1="18.7353" y1="21.1239" x2="2.58322" y2="1.18878" gradientUnits="userSpaceOnUse">
<stop stop-color="#F74757"/>
<stop offset="1" stop-color="#F74757" stop-opacity="0.7"/>
</linearGradient>
</defs>
</svg>
