<svg width="14" height="14" viewBox="0 0 14 14" fill="none" xmlns="http://www.w3.org/2000/svg">
<g clip-path="url(#clip0_810_1180)">
<path d="M7 12.8333C10.2217 12.8333 12.8333 10.2216 12.8333 6.99996C12.8333 3.7783 10.2217 1.16663 7 1.16663C3.77834 1.16663 1.16667 3.7783 1.16667 6.99996C1.16667 10.2216 3.77834 12.8333 7 12.8333Z" stroke="#333333" stroke-width="0.583333" stroke-linejoin="round"/>
<path d="M4.375 9.625L5.6875 5.6875L9.625 4.375L8.3125 8.3125L4.375 9.625Z" fill="#333333" stroke="#333333" stroke-width="0.583333" stroke-linejoin="round"/>
<path fill-rule="evenodd" clip-rule="evenodd" d="M7.00001 7.58329C7.32218 7.58329 7.58334 7.32213 7.58334 6.99996C7.58334 6.67778 7.32218 6.41663 7.00001 6.41663C6.67783 6.41663 6.41667 6.67778 6.41667 6.99996C6.41667 7.32213 6.67783 7.58329 7.00001 7.58329Z" fill="#333333"/>
</g>
<defs>
<clipPath id="clip0_810_1180">
<rect width="14" height="14" fill="white"/>
</clipPath>
</defs>
</svg>
