<svg width="24" height="24" viewBox="0 0 24 24" fill="none"
    xmlns="http://www.w3.org/2000/svg">
    <path fill-rule="evenodd" clip-rule="evenodd" d="M4.63655 5.80691C3.94202 6.13933 3.5 6.84094 3.5 7.61092V11.5228C3.5 12.8026 3.78528 14.0784 4.44952 15.1724C6.31207 18.2398 8.22352 19.7517 11.5727 21.3999C11.8421 21.5325 12.1584 21.5335 12.4289 21.4034C15.8678 19.7488 17.8211 18.2987 19.6548 15.089C20.2508 14.0457 20.5 12.8466 20.5 11.645V7.61092C20.5 6.84094 20.058 6.13933 19.3635 5.80691L12.8635 2.69581C12.3175 2.43449 11.6825 2.43449 11.1365 2.69581L4.63655 5.80691ZM12 8.38463C12.5868 8.38463 13.0625 7.92927 13.0625 7.36754C13.0625 6.80582 12.5868 6.35045 12 6.35045C11.4132 6.35045 10.9375 6.80582 10.9375 7.36754C10.9375 7.92927 11.4132 8.38463 12 8.38463ZM12.7969 10.9274C12.7969 10.5061 12.4401 10.1645 12 10.1645C11.5599 10.1645 11.2031 10.5061 11.2031 10.9274V16.0128C11.2031 16.4341 11.5599 16.7756 12 16.7756C12.4401 16.7756 12.7969 16.4341 12.7969 16.0128V10.9274Z" fill="url(#paint0_linear_2_502)"/>
    <defs>
        <linearGradient id="paint0_linear_2_502" x1="3" y1="1.99982" x2="22.5466" y2="5.57432" gradientUnits="userSpaceOnUse">
            <stop stop-color="#51A6F4"/>
            <stop offset="0.994792" stop-color="#76CBFC"/>
        </linearGradient>
    </defs>
</svg>
