<svg width="18" height="20" viewBox="0 0 18 20" fill="none"
    xmlns="http://www.w3.org/2000/svg">
    <path fill-rule="evenodd" clip-rule="evenodd" d="M1.63655 3.80691C0.942019 4.13933 0.5 4.84094 0.5 5.61092V9.52277C0.5 10.8026 0.785275 12.0784 1.44952 13.1724C3.31207 16.2398 5.22352 17.7517 8.57268 19.3999C8.84208 19.5325 9.15838 19.5335 9.42895 19.4034C12.8678 17.7488 14.8211 16.2987 16.6548 13.089C17.2508 12.0457 17.5 10.8466 17.5 9.64496V5.61092C17.5 4.84094 17.058 4.13933 16.3635 3.80691L9.86345 0.695809C9.31748 0.434486 8.68252 0.434486 8.13655 0.695809L1.63655 3.80691ZM9 6.38463C9.5868 6.38463 10.0625 5.92927 10.0625 5.36754C10.0625 4.80582 9.5868 4.35045 9 4.35045C8.4132 4.35045 7.9375 4.80582 7.9375 5.36754C7.9375 5.92927 8.4132 6.38463 9 6.38463ZM9.79688 8.92736C9.79688 8.50607 9.4401 8.16454 9 8.16454C8.5599 8.16454 8.20312 8.50607 8.20312 8.92736V14.0128C8.20312 14.4341 8.5599 14.7756 9 14.7756C9.4401 14.7756 9.79688 14.4341 9.79688 14.0128V8.92736Z" fill="url(#paint0_linear_2_503)"/>
    <defs>
        <linearGradient id="paint0_linear_2_503" x1="2.11424e-08" y1="-0.000183495" x2="19.5466" y2="3.57432" gradientUnits="userSpaceOnUse">
            <stop stop-color="#51A6F4"/>
            <stop offset="0.994792" stop-color="#76CBFC"/>
        </linearGradient>
    </defs>
</svg>
