<svg width="127" height="22" viewBox="0 0 127 22" fill="none" xmlns="http://www.w3.org/2000/svg">
<path fill-rule="evenodd" clip-rule="evenodd" d="M26.0859 11.1213L23.9646 9L21.8433 11.1213L23.9646 13.2426L26.0859 11.1213ZM26.793 11.8284C27.1836 11.4379 27.1836 10.8047 26.793 10.4142L24.6717 8.29289C24.2812 7.90237 23.648 7.90237 23.2575 8.29289L21.1362 10.4142C21.0727 10.4777 21.0195 10.5476 20.9767 10.6218H0.500151V11.6218H20.9773C21.02 11.6957 21.073 11.7652 21.1362 11.8284L23.2575 13.9497C23.648 14.3403 24.2812 14.3403 24.6717 13.9497L26.793 11.8284Z" fill="url(#paint0_linear_475_1193)"/>
<path fill-rule="evenodd" clip-rule="evenodd" d="M100.914 11.1213L103.035 9L105.157 11.1213L103.035 13.2426L100.914 11.1213ZM100.207 11.8284C99.8164 11.4379 99.8164 10.8047 100.207 10.4142L102.328 8.29289C102.719 7.90237 103.352 7.90237 103.742 8.29289L105.864 10.4142C105.927 10.4777 105.98 10.5476 106.023 10.6218H126.5V11.6218H106.023C105.98 11.6957 105.927 11.7652 105.864 11.8284L103.742 13.9497C103.352 14.3403 102.719 14.3403 102.328 13.9497L100.207 11.8284Z" fill="url(#paint1_linear_475_1193)"/>
<path d="M36.3321 8.36V9.96H40.7161V11.864H37.3561V18.664H39.0041V17.912H44.2521V18.664H45.9001V11.864H42.4121V9.96H46.8281V8.36H42.4121V6.168C43.8521 5.96 45.1161 5.656 46.2041 5.272L45.3721 3.864C42.9881 4.616 40.0761 5 36.6201 5L37.1321 6.504C38.3961 6.504 39.5961 6.456 40.7161 6.36V8.36H36.3321ZM39.0041 16.344V13.432H44.2521V16.344H39.0041ZM33.7081 3.992L32.5721 5.064C33.7561 5.832 34.6521 6.552 35.2921 7.208L36.4281 6.088C35.6761 5.384 34.7641 4.68 33.7081 3.992ZM33.3401 7.8L32.1721 8.936C33.3561 9.784 34.2841 10.568 34.9401 11.304L36.0921 10.152C35.3561 9.368 34.4281 8.584 33.3401 7.8ZM34.7641 12.12C34.1081 14.04 33.3241 15.912 32.4281 17.736L34.1081 18.472C34.9081 16.68 35.6281 14.76 36.2841 12.728L34.7641 12.12ZM48.8281 4.808V6.392H54.8441V4.808H48.8281ZM48.2361 9.112V10.744H50.2201C49.5321 13.336 48.9721 14.936 48.5561 15.544C48.4921 15.592 48.3801 15.64 48.2201 15.688L48.6041 17.256C50.5241 16.904 52.3321 16.456 54.0121 15.88C54.1401 16.184 54.2681 16.504 54.3961 16.856L55.7721 16.152C55.4201 16.712 55.0201 17.224 54.5561 17.672L55.8201 18.776C57.9961 16.648 59.1001 13.288 59.1481 8.696V8.568H60.9721C60.9401 12.808 60.8921 15.288 60.7961 16.008C60.6681 16.712 60.2841 17.064 59.6121 17.064C59.1961 17.064 58.7161 17.032 58.1561 17L58.5401 18.456C59.1801 18.504 59.6121 18.536 59.8681 18.536C61.3401 18.536 62.1721 17.944 62.3641 16.76C62.5081 15.512 62.5881 12.248 62.5881 6.968H59.1481V3.896H57.4841V6.968H55.5161V8.568H57.4841V8.696C57.4521 11.736 56.9081 14.2 55.8361 16.056C55.1641 14.456 54.4601 13 53.7561 11.688L52.3641 12.36C52.7161 13.032 53.0681 13.736 53.4201 14.504C52.4441 14.856 51.4521 15.16 50.4441 15.384C50.8441 14.36 51.3081 12.824 51.8361 10.744H55.4201V9.112H48.2361ZM64.5561 5.944V7.544H66.7001V9.688H64.3481V11.288H66.6201C66.3961 14.104 65.5801 16.216 64.1881 17.624L65.4361 18.728C66.6201 17.528 67.4521 15.88 67.9321 13.768C68.4441 14.36 69.0841 15.176 69.8521 16.216L70.7801 14.792C69.9161 13.832 69.0521 12.968 68.1881 12.2L68.2841 11.288H70.5081V9.688H68.3641V7.544H70.2841V5.944H68.3641V3.944H66.7001V5.944H64.5561ZM77.8841 4.392H70.8921V13.416H72.5081V5.928H76.2681V13.416H77.8841V4.392ZM77.2441 18.424C77.7561 18.424 78.1401 18.296 78.3961 18.056C78.6521 17.784 78.8441 16.952 78.9561 15.56L77.5161 15.096C77.4841 15.992 77.4201 16.52 77.3241 16.712C77.2441 16.872 77.1321 16.952 76.9721 16.952H76.2841C76.0281 16.952 75.9161 16.824 75.9161 16.584V13.4H74.7001C74.9561 12.392 75.1161 11.24 75.1481 9.928V6.936H73.6281V9.928C73.5641 11.816 73.2121 13.368 72.6041 14.552C71.9961 15.656 70.7961 16.584 69.0361 17.32L69.9001 18.712C71.6921 17.992 73.0041 16.968 73.8041 15.64C74.0281 15.256 74.2201 14.824 74.3961 14.36V16.92C74.3961 17.912 74.8601 18.424 75.8041 18.424H77.2441ZM88.1561 4.36H80.8761V14.648H82.4921V5.96H86.5241V14.504H88.1561V4.36ZM86.1081 14.84L84.9241 15.992C85.9961 16.92 86.8281 17.8 87.4201 18.616L88.6841 17.352C87.9801 16.52 87.1161 15.688 86.1081 14.84ZM83.7241 6.872V11.848C83.6601 13.24 83.3881 14.376 82.8921 15.272C82.3801 16.072 81.4041 16.76 79.9641 17.304L80.9081 18.808C82.4121 18.232 83.5161 17.416 84.2041 16.376C84.8921 15.256 85.2761 13.736 85.3401 11.848V6.872H83.7241ZM89.5321 5.256V15.096H91.1481V5.256H89.5321ZM92.6521 18.504C93.8041 18.504 94.3961 17.912 94.3961 16.76V3.912H92.7321V16.328C92.7321 16.76 92.5081 16.984 92.0601 16.984C91.4361 16.984 90.7641 16.952 90.0601 16.888L90.4441 18.504H92.6521Z" fill="#BC351C" fill-opacity="0.85"/>
<defs>
<linearGradient id="paint0_linear_475_1193" x1="27.0859" y1="4.87564" x2="2.99257" y2="4.87564" gradientUnits="userSpaceOnUse">
<stop stop-color="#C55038" stop-opacity="0.6"/>
<stop offset="1" stop-color="#C55038" stop-opacity="0"/>
</linearGradient>
<linearGradient id="paint1_linear_475_1193" x1="99.9141" y1="4.87564" x2="124.007" y2="4.87564" gradientUnits="userSpaceOnUse">
<stop stop-color="#C55038" stop-opacity="0.6"/>
<stop offset="1" stop-color="#C55038" stop-opacity="0"/>
</linearGradient>
</defs>
</svg>
