<svg width="296" height="52" viewBox="0 0 296 52" fill="none" xmlns="http://www.w3.org/2000/svg">
<g filter="url(#filter0_d_475_956)">
<path d="M13.028 11.304L9.854 1H3.046L6.266 11.304H13.028ZM38.604 6.29L39.708 1H33.268L30.784 13.006H37.224L38.098 8.866H46.148V6.29H38.604ZM27.242 17.836C29.128 17.836 30.048 16.916 30.048 15.03V6.566C30.048 4.68 29.128 3.76 27.242 3.76H25.08L26.506 1.138H19.422L17.996 3.76H17.352C15.466 3.76 14.546 4.68 14.546 6.566V15.03C14.546 16.916 15.466 17.836 17.352 17.836H27.242ZM23.746 9.51H20.802V7.026C20.802 6.566 21.032 6.336 21.492 6.336H23.056C23.516 6.336 23.746 6.566 23.746 7.026V9.51ZM42.836 31.222C43.986 30.348 44.584 29.29 44.676 28.14L45.826 11.488H40.444L39.156 30.118L37.086 15.03H31.474L33.36 28.186C33.498 29.29 34.142 30.256 35.2 31.13L36.764 32.326L31.52 36.236V39.548L38.972 34.074L46.102 39.548V36.006L41.41 32.28L42.836 31.222ZM21.492 15.26C21.032 15.26 20.802 15.03 20.802 14.57V12.132H23.746V14.57C23.746 15.03 23.516 15.26 23.056 15.26H21.492ZM13.12 18.48C13.12 16.456 12.108 15.444 10.084 15.444H3V17.928H5.116C5.898 17.928 6.266 18.296 6.266 19.078V39.272C6.266 39.64 6.082 39.916 5.668 40.146L3 41.25V44.24L11.142 40.836C12.476 40.284 13.12 39.318 13.12 37.938V18.48ZM22.044 29.842H23.24C23.7 29.842 23.93 30.072 23.93 30.532V36.052C23.93 36.512 23.7 36.742 23.24 36.742H21.492L22.872 39.318H27.15C29.036 39.318 29.956 38.398 29.956 36.512V30.072C29.956 28.186 29.036 27.266 27.15 27.266H22.504L23.056 24.368H30.094V21.792H26.506L25.77 19.216H18.64L19.376 21.792H15.006V24.368H16.892L14.132 39.318H20.296L22.044 29.842ZM12.844 43.504H45.964V40.974H11.464L12.844 43.504Z" fill="#FEFCF0"/>
<path d="M60.12 33.89L63.708 27.358C64.122 26.668 64.306 25.886 64.306 25.104V7.992H65.87V5.416H64.306V1.138H58.05V5.416H55.566V1.138H49.31V5.416H47.7V7.992H49.31V25.104C49.31 25.932 49.54 26.668 49.954 27.358L53.496 33.844L49.632 40.744C49.356 41.204 48.942 41.48 48.436 41.572L47.7 41.71V44.286L52.944 43.274C54.462 43.044 55.566 42.262 56.256 40.928L56.808 39.916L57.406 40.974C58.096 42.262 59.2 43.044 60.718 43.274L65.916 44.286V41.71L65.18 41.572C64.582 41.48 64.214 41.204 63.984 40.744L60.12 33.89ZM90.848 21.286H83.074V18.802C83.074 18.572 83.12 18.296 83.258 17.974L89.422 5.462C89.928 4.45 89.928 3.53 89.514 2.748C89.1 1.966 88.364 1.552 87.26 1.552H67.48V4.128H81.326C81.556 4.128 81.694 4.22 81.832 4.404C81.97 4.588 81.97 4.772 81.832 4.956L76.266 16.548C75.944 17.146 75.806 17.744 75.806 18.342V21.286H66.1V23.862H75.806V41.02C75.806 41.48 75.576 41.71 75.116 41.71H69.136L70.516 44.286H80.268C82.154 44.286 83.074 43.366 83.074 41.48V23.862H90.848V21.286ZM55.796 26.162C55.658 25.84 55.566 25.564 55.566 25.334V7.992H58.05V25.334C58.05 25.564 57.958 25.84 57.82 26.162L56.808 27.956L55.796 26.162Z" fill="#FEFCF0"/>
<path d="M132.006 40.882C131.592 40.744 131.224 40.56 130.994 40.284L123.404 31.406L133.294 19.17C134.168 18.066 134.352 16.962 133.8 15.812C133.294 14.662 132.282 14.11 130.856 14.11H106.798L107.948 7.9H135.088V5.324H108.408L109.19 1.138H101.922L101.14 5.324H92.768V7.9H100.68L94.654 40.146C94.516 40.882 94.102 41.342 93.412 41.48L92.4 41.71V44.286L98.196 43.136C100.45 42.676 101.784 41.342 102.198 39.088L105.602 20.642L114.618 31.406L107.304 40.422C107.074 40.744 106.706 40.974 106.246 41.066L103.256 41.71V44.286L112.824 42.446C114.204 42.17 115.308 41.526 116.136 40.468L119.08 36.788L122.3 40.606C123.174 41.664 124.324 42.354 125.658 42.584L135.548 44.286V41.71L132.006 40.882ZM112.732 18.894H105.924L106.338 16.686H125.244C125.52 16.686 125.704 16.824 125.842 17.054C125.934 17.284 125.888 17.468 125.704 17.698L118.896 26.116L112.732 18.894Z" fill="#FEFCF0"/>
<path d="M201.53 7.67V5.094H196.792L198.494 1.138H191.778L190.03 5.094H185.522L183.82 1.138H177.104L178.806 5.094H175.724V7.67H181.336V11.672H176.552V14.248H181.336V18.802H175.724V21.378H181.336V25.932H176.552V28.508H181.336V31.498H177.38L174.712 43.09L169.974 33.154H174.39V4.404C174.39 2.518 173.424 1.552 171.538 1.552H162.476C160.498 1.552 159.486 2.518 159.486 4.496V33.154H163.396L158.382 44.286H164.178L166.754 38.49L169.422 44.286H175.264L174.942 43.642H178.852L181.336 32.878V44.286H186.81V28.508H188.788V44.286H194.262V32.878L196.746 43.642H201.024L198.218 31.498H194.262V28.508H197.252C199.138 28.508 200.058 27.588 200.058 25.702V21.378H201.53V18.802H200.058V14.478C200.058 12.592 199.138 11.672 197.252 11.672H194.262V7.67H201.53ZM168.916 30.854V9.28H164.96V29.106C164.96 29.612 164.868 30.026 164.638 30.44L163.902 32.05V5.002C163.902 4.404 164.178 4.082 164.776 4.082H169.054C169.652 4.082 169.974 4.404 169.974 5.002V33.108L168.916 30.854ZM188.788 11.672H186.81V7.67H188.788V11.672ZM186.81 14.248H188.788V18.802H186.81V14.248ZM195.412 14.248C195.872 14.248 196.102 14.478 196.102 14.938V18.802H194.262V14.248H195.412ZM186.81 25.932V21.378H188.788V25.932H186.81ZM196.102 25.242C196.102 25.702 195.872 25.932 195.412 25.932H194.262V21.378H196.102V25.242Z" fill="#FEFCF0"/>
<path d="M212.19 17.514L211.132 17.652C210.902 17.698 210.718 17.606 210.58 17.422C210.442 17.284 210.442 17.054 210.58 16.824L218.814 1.138H211.776L204.002 16.594C203.404 17.836 203.404 18.94 204.094 19.86C204.784 20.872 205.888 21.24 207.452 20.964L210.488 20.458L204.554 30.716C203.68 32.234 203.68 33.522 204.554 34.672C205.428 35.822 206.762 36.144 208.556 35.638L221.574 32.004V29.428L212.466 31.958C212.144 32.096 211.914 32.004 211.73 31.774C211.546 31.544 211.546 31.268 211.684 30.992L222.218 12.316H215.18L212.19 17.514ZM238.134 40.836V4.588H245.77V2.012H223.184V4.588H230.866V40.836H222.264V43.412H246.69V40.836H238.134ZM203.68 44.286L221.758 40.054V37.478L203.68 41.618V44.286Z" fill="#FEFCF0"/>
<path d="M259.972 41.25C259.512 41.25 259.282 41.02 259.282 40.56V28.922H272.852C274.738 28.922 275.658 28.002 275.658 26.116V15.582C275.658 13.696 274.738 12.776 272.852 12.776H256.338L258.454 6.888H279.752C280.212 6.888 280.442 7.118 280.442 7.578V32.602C280.442 33.062 280.212 33.292 279.752 33.292H268.942L270.322 35.868H284.904C286.79 35.868 287.71 34.948 287.71 33.062V7.118C287.71 5.232 286.79 4.312 284.904 4.312H259.374L260.524 1H253.256L247.782 16.456H252.014V41.02C252.014 42.906 252.934 43.826 254.82 43.826H289.55L290.93 41.25H259.972ZM259.282 16.042C259.282 15.582 259.512 15.352 259.972 15.352H267.7C268.16 15.352 268.39 15.582 268.39 16.042V25.656C268.39 26.116 268.16 26.346 267.7 26.346H259.282V16.042Z" fill="#FEFCF0"/>
</g>
<defs>
<filter id="filter0_d_475_956" x="0" y="0" width="295.93" height="51.2859" filterUnits="userSpaceOnUse" color-interpolation-filters="sRGB">
<feFlood flood-opacity="0" result="BackgroundImageFix"/>
<feColorMatrix in="SourceAlpha" type="matrix" values="0 0 0 0 0 0 0 0 0 0 0 0 0 0 0 0 0 0 127 0" result="hardAlpha"/>
<feOffset dx="1" dy="3"/>
<feGaussianBlur stdDeviation="2"/>
<feComposite in2="hardAlpha" operator="out"/>
<feColorMatrix type="matrix" values="0 0 0 0 0.895833 0 0 0 0 0.227691 0 0 0 0 0.309592 0 0 0 0.8 0"/>
<feBlend mode="normal" in2="BackgroundImageFix" result="effect1_dropShadow_475_956"/>
<feBlend mode="normal" in="SourceGraphic" in2="effect1_dropShadow_475_956" result="shape"/>
</filter>
</defs>
</svg>
