<svg width="22" height="22" viewBox="0 0 22 22" fill="none" xmlns="http://www.w3.org/2000/svg">
<path d="M11 0C8.19404 0 5.91935 2.24142 5.91935 5.00635C5.91935 7.77129 8.19404 10.0127 11 10.0127C13.806 10.0127 16.0806 7.77129 16.0806 5.00635C16.0806 2.24142 13.806 0 11 0Z" fill="url(#paint0_linear_2_2976)"/>
<path d="M5.58065 12.6828C2.77468 12.6828 0.5 14.9242 0.5 17.6891V19.2755C0.5 20.2811 1.23958 21.1385 2.24676 21.3005C8.04388 22.2332 13.9561 22.2332 19.7532 21.3005C20.7604 21.1385 21.5 20.2811 21.5 19.2755V17.6891C21.5 14.9242 19.2253 12.6828 16.4194 12.6828H15.9575C15.7076 12.6828 15.4592 12.7217 15.2216 12.7982L14.0489 13.1755C12.0678 13.8129 9.93221 13.8129 7.95105 13.1755L6.77842 12.7982C6.54081 12.7217 6.29242 12.6828 6.04247 12.6828H5.58065Z" fill="url(#paint1_linear_2_2976)"/>
<defs>
<linearGradient id="paint0_linear_2_2976" x1="19.6471" y1="21.1239" x2="3.67566" y2="0.426167" gradientUnits="userSpaceOnUse">
<stop stop-color="#F74757"/>
<stop offset="1" stop-color="#F74757" stop-opacity="0.7"/>
</linearGradient>
<linearGradient id="paint1_linear_2_2976" x1="19.6471" y1="21.1239" x2="3.67566" y2="0.426167" gradientUnits="userSpaceOnUse">
<stop stop-color="#F74757"/>
<stop offset="1" stop-color="#F74757" stop-opacity="0.7"/>
</linearGradient>
</defs>
</svg>
