<svg width="22" height="22" viewBox="0 0 22 22" fill="none"
    xmlns="http://www.w3.org/2000/svg">
    <path fill-rule="evenodd" clip-rule="evenodd" d="M5.24194 5.50678C5.24194 2.46547 7.81991 0 11 0C14.1801 0 16.7581 2.46547 16.7581 5.50678C16.7581 8.5481 14.1801 11.0136 11 11.0136C7.81991 11.0136 5.24194 8.5481 5.24194 5.50678ZM11 1.94357C8.94229 1.94357 7.27419 3.53888 7.27419 5.50678C7.27419 7.47469 8.94229 9.07 11 9.07C13.0577 9.07 14.7258 7.47469 14.7258 5.50678C14.7258 3.53888 13.0577 1.94357 11 1.94357Z" fill="black" fill-opacity="0.6"/>
    <path fill-rule="evenodd" clip-rule="evenodd" d="M5.58065 14.9007C3.89707 14.9007 2.53226 16.206 2.53226 17.8161V19.3557C2.53226 19.3792 2.55002 19.3992 2.57422 19.403C8.15447 20.2743 13.8455 20.2743 19.4258 19.403C19.45 19.3992 19.4677 19.3792 19.4677 19.3557V17.8161C19.4677 16.206 18.1029 14.9007 16.4194 14.9007H15.9575C15.9218 14.9007 15.8863 14.9061 15.8524 14.9167L14.6798 15.2829C12.2887 16.0296 9.71129 16.0296 7.32024 15.2829L6.1476 14.9167C6.11366 14.9061 6.07818 14.9007 6.04247 14.9007H5.58065ZM0.5 17.8161C0.5 15.1326 2.77468 12.9571 5.58065 12.9571H6.04247C6.29242 12.9571 6.54081 12.9949 6.77842 13.0691L7.95105 13.4353C9.93221 14.054 12.0678 14.054 14.0489 13.4353L15.2216 13.0691C15.4592 12.9949 15.7076 12.9571 15.9575 12.9571H16.4194C19.2253 12.9571 21.5 15.1326 21.5 17.8161V19.3557C21.5 20.3317 20.7604 21.1639 19.7532 21.3211C13.9561 22.2263 8.04388 22.2263 2.24676 21.3211C1.23958 21.1639 0.5 20.3317 0.5 19.3557V17.8161Z" fill="black" fill-opacity="0.6"/>
</svg>
