<svg width="24" height="24" viewBox="0 0 24 24" fill="none"
    xmlns="http://www.w3.org/2000/svg">
    <rect width="24" height="24" rx="5" fill="#55B737"/>
    <path d="M15.5858 8.94634C15.816 8.94634 16.0438 8.96282 16.2696 8.98811C15.655 6.12629 12.5955 3.99997 9.10294 3.99997C5.19823 3.99997 1.99995 6.66094 1.99995 10.0404C1.99995 11.9918 3.06403 13.5929 4.84223 14.8356L4.13181 16.9722L6.61489 15.7273C7.50334 15.9028 8.21627 16.0839 9.1029 16.0839C9.3258 16.0839 9.54674 16.0728 9.76601 16.0556C9.62729 15.581 9.54676 15.0837 9.54676 14.5673C9.5468 11.4643 12.2116 8.94634 15.5858 8.94634ZM11.7165 6.87631C12.323 6.87631 12.8146 7.36796 12.8146 7.97446C12.8146 8.58096 12.323 9.07259 11.7165 9.07259C11.11 9.07259 10.6184 8.58094 10.6184 7.97446C10.6184 7.36798 11.11 6.87631 11.7165 6.87631ZM6.74682 9.09473C6.14033 9.09473 5.64866 8.60308 5.64866 7.9966C5.64866 7.39012 6.14033 6.89847 6.74682 6.89847C7.35335 6.89847 7.845 7.39012 7.845 7.9966C7.845 8.60306 7.35335 9.09473 6.74682 9.09473ZM22.0185 14.5051C22.0185 11.6654 19.1769 9.35057 15.9853 9.35057C12.6057 9.35057 9.94399 11.6654 9.94399 14.5051C9.94399 17.3497 12.6057 19.6594 15.9853 19.6594C16.6925 19.6594 17.4061 19.4809 18.1165 19.3028L20.0649 20.37L19.5305 18.5949C20.9563 17.5253 22.0185 16.107 22.0185 14.5051ZM14.1293 13.709C13.6974 13.709 13.3473 13.3589 13.3473 12.927C13.3473 12.4951 13.6974 12.145 14.1293 12.145C14.5612 12.145 14.9113 12.4951 14.9113 12.927C14.9113 13.3589 14.5612 13.709 14.1293 13.709ZM18.034 13.7534C17.6021 13.7534 17.252 13.4032 17.252 12.9714C17.252 12.5395 17.6021 12.1894 18.034 12.1894C18.4659 12.1894 18.816 12.5395 18.816 12.9714C18.816 13.4032 18.4659 13.7534 18.034 13.7534Z" fill="white"/>
</svg>
